<svg width="289" height="90" viewBox="0 0 289 90" fill="none" xmlns="http://www.w3.org/2000/svg">
<path d="M50.2155 17.9649C53.9051 17.9649 56.8962 14.9739 56.8962 11.2842C56.8962 7.59457 53.9051 4.60352 50.2155 4.60352C46.5258 4.60352 43.5348 7.59457 43.5348 11.2842C43.5348 14.9739 46.5258 17.9649 50.2155 17.9649Z" fill="#3E67C5"/>
<path d="M81.4473 49.1967C85.137 49.1967 88.128 46.2056 88.128 42.516C88.128 38.8263 85.137 35.8353 81.4473 35.8353C77.7577 35.8353 74.7666 38.8263 74.7666 42.516C74.7666 46.2056 77.7577 49.1967 81.4473 49.1967Z" fill="#3E67C5"/>
<path d="M63.8793 86.2839C67.569 86.2839 70.56 83.2928 70.56 79.6032C70.56 75.9135 67.569 72.9225 63.8793 72.9225C60.1897 72.9225 57.1986 75.9135 57.1986 79.6032C57.1986 83.2928 60.1897 86.2839 63.8793 86.2839Z" fill="#3E67C5"/>
<path d="M10.2006 68.7159C13.8902 68.7159 16.8813 65.7248 16.8813 62.0352C16.8813 58.3455 13.8902 55.3545 10.2006 55.3545C6.51095 55.3545 3.5199 58.3455 3.5199 62.0352C3.5199 65.7248 6.51095 68.7159 10.2006 68.7159Z" fill="#3E67C5"/>
<path d="M50.5538 74.4039C50.3092 74.3273 50.0518 74.2997 49.7965 74.3227C49.5412 74.3457 49.2929 74.4189 49.0659 74.538C48.8389 74.6572 48.6377 74.8199 48.4737 75.017C48.3097 75.2141 48.1862 75.4415 48.1103 75.6864C48.034 75.931 48.0066 76.1884 48.0297 76.4436C48.0528 76.6988 48.126 76.947 48.2451 77.174C48.3642 77.4009 48.5269 77.6021 48.7238 77.7662C48.9208 77.9302 49.1481 78.0538 49.3928 78.1299L53.3078 79.3485C53.3402 77.9931 53.6201 76.6971 54.1187 75.5127L50.5538 74.4039V74.4039ZM11.4857 51.5376L11.2535 48.7557C10.3004 49.0383 9.29334 49.1967 8.24934 49.1967C7.95234 49.1967 7.65984 49.176 7.36914 49.1517L7.58964 51.7905C8.42664 51.5772 9.29874 51.4512 10.2014 51.4512C10.6361 51.4512 11.0636 51.4863 11.4857 51.5376ZM72.3257 66.7908C72.5194 66.3207 72.5221 65.7936 72.3333 65.3216C72.1444 64.8495 71.779 64.4697 71.3145 64.2628C70.8501 64.056 70.3233 64.0384 69.8461 64.2138C69.3689 64.3893 68.9789 64.7439 68.759 65.2023L66.8654 69.4548C68.1425 69.831 69.3161 70.4448 70.3439 71.2413L72.3257 66.7908V66.7908ZM22.4108 65.6433L20.3534 65.0025C19.9777 66.2811 19.3633 67.4769 18.5426 68.5269L21.2507 69.3702C21.7385 69.5023 22.2585 69.4402 22.7015 69.1969C23.1444 68.9536 23.4758 68.5481 23.626 68.0656C23.7762 67.583 23.7335 67.0611 23.5069 66.6094C23.2803 66.1577 22.8874 65.8114 22.4108 65.6433V65.6433ZM36.9818 20.3166C36.8511 20.0961 36.6781 19.9035 36.4729 19.7499C36.2677 19.5963 36.0342 19.4846 35.7858 19.4212C35.5374 19.3579 35.2789 19.3441 35.0252 19.3807C34.7715 19.4173 34.5274 19.5035 34.307 19.6344L25.8587 24.651C25.4319 24.924 25.1278 25.3522 25.0108 25.8452C24.8938 26.3382 24.9729 26.8574 25.2316 27.2931C25.4902 27.7289 25.908 28.047 26.3969 28.1804C26.8857 28.3138 27.4072 28.252 27.8513 28.008L36.2996 22.9914C36.7446 22.727 37.0664 22.2967 37.1943 21.7952C37.3222 21.2936 37.2458 20.7618 36.9818 20.3166ZM41.1731 71.4834L31.7924 68.5629C31.3035 68.4267 30.7808 68.4863 30.335 68.729C29.8893 68.9717 29.5556 69.3785 29.4048 69.8631C29.2539 70.3477 29.2977 70.872 29.5268 71.3248C29.756 71.7777 30.1525 72.1235 30.6323 72.2889L40.013 75.2094C40.4997 75.3384 41.0175 75.2744 41.4581 75.0308C41.8988 74.7872 42.2283 74.3829 42.378 73.9021C42.5277 73.4214 42.4859 72.9014 42.2614 72.4507C42.0369 72.0001 41.647 71.6535 41.1731 71.4834ZM58.9715 19.3806L65.1203 25.9533C65.2953 26.1409 65.5055 26.292 65.739 26.3982C65.9725 26.5043 66.2246 26.5634 66.481 26.5719C66.7373 26.5804 66.9928 26.5383 67.2329 26.4479C67.4729 26.3575 67.6927 26.2206 67.8797 26.0451C68.2575 25.6914 68.4795 25.2022 68.4968 24.685C68.5142 24.1678 68.3256 23.6649 67.9724 23.2866L61.4681 16.3341C60.8323 17.4958 59.9856 18.5289 58.9715 19.3806V19.3806ZM72.7577 56.2275C72.642 56.4633 72.575 56.7199 72.5607 56.9822C72.5465 57.2444 72.5853 57.5069 72.6748 57.7538C72.7643 58.0007 72.9027 58.227 73.0817 58.4192C73.2607 58.6114 73.4766 58.7655 73.7165 58.8723C73.9564 58.9792 74.2154 59.0365 74.478 59.0409C74.7406 59.0453 75.0014 58.9967 75.2448 58.898C75.4882 58.7993 75.7092 58.6525 75.8945 58.4665C76.0799 58.2804 76.2258 58.0589 76.3235 57.8151L78.6014 52.7004C77.3365 52.3457 76.1491 51.7575 75.1004 50.9661L72.7577 56.2275V56.2275ZM76.9913 32.9283L74.6828 30.4614C74.5077 30.2743 74.2975 30.1234 74.0641 30.0175C73.8307 29.9116 73.5788 29.8527 73.3226 29.8442C73.0665 29.8357 72.8111 29.8777 72.5712 29.9678C72.3313 30.058 72.1115 30.1945 71.9243 30.3696C71.7372 30.5447 71.5863 30.7549 71.4804 30.9883C71.3745 31.2217 71.3157 31.4737 71.3071 31.7298C71.2986 31.986 71.3406 32.2413 71.4308 32.4812C71.5209 32.7211 71.6574 32.9409 71.8325 33.1281L73.7936 35.2242C74.7077 34.2669 75.7921 33.4883 76.9913 32.9283V32.9283ZM17.7605 34.0002L19.4039 33.0246C19.8308 32.7516 20.1349 32.3234 20.2519 31.8304C20.3689 31.3374 20.2898 30.8182 20.0311 30.3825C19.7725 29.9467 19.3546 29.6286 18.8658 29.4952C18.377 29.3618 17.8554 29.4236 17.4113 29.6676L15.4205 30.8502C16.3895 31.7457 17.183 32.8139 17.7605 34.0002V34.0002ZM79.9892 38.9889L79.1738 39.7287L78.5546 40.3119L79.9892 38.9889Z" fill="#3E67C5"/>
<path d="M8.24845 45.2925C11.9381 45.2925 14.9291 42.3014 14.9291 38.6118C14.9291 34.9221 11.9381 31.9311 8.24845 31.9311C4.5588 31.9311 1.56775 34.9221 1.56775 38.6118C1.56775 42.3014 4.5588 45.2925 8.24845 45.2925Z" fill="#3E67C5"/>
<g filter="url(#filter0_d_126_334)">
<path d="M57.7979 40.76C57.7979 34.7013 61.6379 31.672 69.3179 31.672C71.7926 31.672 74.2673 32.0133 76.7419 32.696V36.92C74.2246 36.1946 71.7073 35.832 69.1899 35.832C66.6726 35.832 64.9019 36.28 63.8779 37.176C62.8539 38.0293 62.3419 39.3093 62.3419 41.016V66.04C62.3419 67.704 62.8539 68.984 63.8779 69.88C64.9446 70.7333 66.7793 71.16 69.3819 71.16C72.0273 71.16 74.5233 70.8186 76.8699 70.136V74.296C74.7366 74.9786 72.2193 75.32 69.3179 75.32C61.6379 75.32 57.7979 72.2906 57.7979 66.232V40.76ZM85.2634 64.632V66.552C85.2634 68.2586 85.6688 69.5173 86.4794 70.328C87.2901 71.1386 88.8261 71.544 91.0874 71.544C93.3488 71.544 95.4821 70.712 97.4874 69.048V57.08L90.1914 59.128C88.2714 59.6826 86.9701 60.3653 86.2874 61.176C85.6048 61.9866 85.2634 63.1386 85.2634 64.632ZM91.0234 38.264C98.2768 38.264 101.903 41.3573 101.903 47.544V75H97.5514V72.376C95.3754 74.296 92.7728 75.256 89.7434 75.256C83.8128 75.256 80.8474 72.3333 80.8474 66.488V64.44C80.8474 60.0026 83.4288 57.0586 88.5914 55.608L97.5514 53.112V47.544C97.5088 45.7946 97.0181 44.5146 96.0794 43.704C95.1408 42.8933 93.2421 42.488 90.3834 42.488C87.5674 42.488 84.9648 42.9146 82.5754 43.768V39.48C85.0074 38.6693 87.8234 38.264 91.0234 38.264ZM111.337 36.408C111.337 33.6346 112.084 31.5013 113.577 30.008C115.07 28.472 117.268 27.704 120.169 27.704C121.193 27.704 122.153 27.768 123.049 27.896V31.8C122.409 31.6293 121.556 31.544 120.489 31.544C117.417 31.544 115.881 33.144 115.881 36.344V38.584H122.665V42.488H115.881V75H111.337V42.488H107.689V38.584H111.337V36.408ZM126.443 65.72V47.928C126.443 44.8986 127.296 42.488 129.003 40.696C130.752 38.8613 133.376 37.944 136.875 37.944C140.374 37.944 142.955 38.8613 144.619 40.696C146.326 42.488 147.179 44.8986 147.179 47.928V59.064H130.923V65.528C130.923 67.448 131.52 68.8773 132.715 69.816C133.91 70.7546 135.766 71.224 138.283 71.224C140.8 71.224 143.403 70.84 146.091 70.072V74.296C143.958 74.9786 141.419 75.32 138.475 75.32C130.454 75.32 126.443 72.12 126.443 65.72ZM130.923 55.288H142.827V47.928C142.827 43.9173 140.843 41.912 136.875 41.912C132.907 41.912 130.923 43.9173 130.923 47.928V55.288ZM142.443 28.92L138.603 35.768H135.659L138.155 28.92H142.443ZM196.535 31.992V75H192.183V52.344C192.183 47.9493 192.311 43.704 192.567 39.608L183.799 63.544H178.999L170.103 39.608C170.402 43.576 170.551 47.8 170.551 52.28V75H166.263V31.992H171.639L181.367 58.936L191.095 31.992H196.535ZM214.386 71.096C216.519 71.096 218.567 70.4346 220.53 69.112V38.584H225.074V75H220.722V73.272C218.247 74.5093 215.709 75.128 213.106 75.128C210.546 75.128 208.498 74.36 206.962 72.824C205.426 71.2453 204.658 68.984 204.658 66.04V38.584H209.202V65.656C209.202 69.2826 210.93 71.096 214.386 71.096ZM230.881 47.16C230.881 44.1733 231.735 41.9546 233.441 40.504C235.148 39.0106 237.943 38.264 241.825 38.264C244.215 38.264 246.583 38.6266 248.929 39.352V43.576C246.796 42.808 244.449 42.424 241.889 42.424C239.329 42.424 237.601 42.808 236.705 43.576C235.809 44.3013 235.361 45.5386 235.361 47.288V48.952C235.361 50.3173 235.617 51.3626 236.129 52.088C236.684 52.8133 237.687 53.496 239.137 54.136L244.641 56.824C248.481 58.7013 250.401 61.304 250.401 64.632V66.36C250.401 72.3333 246.54 75.32 238.817 75.32C235.916 75.32 233.356 74.9786 231.137 74.296V70.072C233.356 70.84 235.809 71.224 238.497 71.224C241.228 71.224 243.127 70.8186 244.193 70.008C245.303 69.1546 245.857 67.9173 245.857 66.296V65.016C245.857 63.8213 245.58 62.904 245.025 62.264C244.471 61.5813 243.383 60.856 241.761 60.088L236.257 57.464C232.673 55.7573 230.881 53.048 230.881 49.336V47.16ZM255.58 65.72V47.928C255.58 44.8986 256.434 42.488 258.14 40.696C259.89 38.8613 262.514 37.944 266.012 37.944C269.511 37.944 272.092 38.8613 273.756 40.696C275.463 42.488 276.316 44.8986 276.316 47.928V59.064H260.06V65.528C260.06 67.448 260.658 68.8773 261.852 69.816C263.047 70.7546 264.903 71.224 267.42 71.224C269.938 71.224 272.54 70.84 275.228 70.072V74.296C273.095 74.9786 270.556 75.32 267.612 75.32C259.591 75.32 255.58 72.12 255.58 65.72ZM260.06 55.288H271.964V47.928C271.964 43.9173 269.98 41.912 266.012 41.912C262.044 41.912 260.06 43.9173 260.06 47.928V55.288Z" fill="white"/>
</g>
<defs>
<filter id="filter0_d_126_334" x="53.798" y="27.704" width="226.518" height="55.616" filterUnits="userSpaceOnUse" color-interpolation-filters="sRGB">
<feFlood flood-opacity="0" result="BackgroundImageFix"/>
<feColorMatrix in="SourceAlpha" type="matrix" values="0 0 0 0 0 0 0 0 0 0 0 0 0 0 0 0 0 0 127 0" result="hardAlpha"/>
<feOffset dy="4"/>
<feGaussianBlur stdDeviation="2"/>
<feComposite in2="hardAlpha" operator="out"/>
<feColorMatrix type="matrix" values="0 0 0 0 0 0 0 0 0 0 0 0 0 0 0 0 0 0 0.25 0"/>
<feBlend mode="normal" in2="BackgroundImageFix" result="effect1_dropShadow_126_334"/>
<feBlend mode="normal" in="SourceGraphic" in2="effect1_dropShadow_126_334" result="shape"/>
</filter>
</defs>
</svg>
