<svg width="64" height="64" viewBox="0 0 64 64" fill="none" xmlns="http://www.w3.org/2000/svg">
<path d="M32 57.3333C45.9334 57.3333 57.3334 45.9333 57.3334 32C57.3334 18.0666 45.9334 6.66665 32 6.66665C18.0667 6.66665 6.66671 18.0666 6.66671 32C6.66671 45.9333 18.0667 57.3333 32 57.3333ZM32 0.333313C49.4167 0.333313 63.6667 14.5833 63.6667 32C63.6667 49.4166 49.4167 63.6666 32 63.6666C14.5834 63.6666 0.333374 49.4166 0.333374 32C0.333374 14.5833 14.5834 0.333313 32 0.333313ZM47.8334 30.4166V35.1666H28.8334V16.1666H33.5834V30.4166H47.8334Z" fill="#333538"/>
</svg>
