<svg width="244" height="127" viewBox="0 0 244 127" fill="none" xmlns="http://www.w3.org/2000/svg">
<path d="M61.2155 17.9649C64.9051 17.9649 67.8962 14.9739 67.8962 11.2842C67.8962 7.59457 64.9051 4.60352 61.2155 4.60352C57.5258 4.60352 54.5348 7.59457 54.5348 11.2842C54.5348 14.9739 57.5258 17.9649 61.2155 17.9649Z" fill="#3E67C5"/>
<path d="M92.4473 49.1967C96.137 49.1967 99.128 46.2056 99.128 42.516C99.128 38.8263 96.137 35.8353 92.4473 35.8353C88.7577 35.8353 85.7666 38.8263 85.7666 42.516C85.7666 46.2056 88.7577 49.1967 92.4473 49.1967Z" fill="#3E67C5"/>
<path d="M74.8793 86.2839C78.569 86.2839 81.56 83.2928 81.56 79.6032C81.56 75.9135 78.569 72.9225 74.8793 72.9225C71.1897 72.9225 68.1986 75.9135 68.1986 79.6032C68.1986 83.2928 71.1897 86.2839 74.8793 86.2839Z" fill="#3E67C5"/>
<path d="M21.2006 68.7159C24.8902 68.7159 27.8813 65.7248 27.8813 62.0352C27.8813 58.3455 24.8902 55.3545 21.2006 55.3545C17.5109 55.3545 14.5199 58.3455 14.5199 62.0352C14.5199 65.7248 17.5109 68.7159 21.2006 68.7159Z" fill="#3E67C5"/>
<path d="M61.5538 74.4039C61.3092 74.3273 61.0518 74.2997 60.7965 74.3227C60.5412 74.3457 60.2929 74.4189 60.0659 74.538C59.8389 74.6572 59.6377 74.8199 59.4737 75.017C59.3097 75.2141 59.1862 75.4415 59.1103 75.6864C59.034 75.931 59.0066 76.1884 59.0297 76.4436C59.0528 76.6988 59.126 76.947 59.2451 77.174C59.3642 77.4009 59.5269 77.6021 59.7238 77.7662C59.9208 77.9302 60.1481 78.0538 60.3928 78.1299L64.3078 79.3485C64.3402 77.9931 64.6201 76.6971 65.1187 75.5127L61.5538 74.4039V74.4039ZM22.4857 51.5376L22.2535 48.7557C21.3004 49.0383 20.2933 49.1967 19.2493 49.1967C18.9523 49.1967 18.6598 49.176 18.3691 49.1517L18.5896 51.7905C19.4266 51.5772 20.2987 51.4512 21.2014 51.4512C21.6361 51.4512 22.0636 51.4863 22.4857 51.5376ZM83.3257 66.7908C83.5194 66.3207 83.5221 65.7936 83.3333 65.3216C83.1444 64.8495 82.779 64.4697 82.3145 64.2628C81.8501 64.056 81.3233 64.0384 80.8461 64.2138C80.3689 64.3893 79.9789 64.7439 79.759 65.2023L77.8654 69.4548C79.1425 69.831 80.3161 70.4448 81.3439 71.2413L83.3257 66.7908V66.7908ZM33.4108 65.6433L31.3534 65.0025C30.9777 66.2811 30.3633 67.4769 29.5426 68.5269L32.2507 69.3702C32.7385 69.5023 33.2585 69.4402 33.7015 69.1969C34.1444 68.9536 34.4758 68.5481 34.626 68.0656C34.7762 67.583 34.7335 67.0611 34.5069 66.6094C34.2803 66.1577 33.8874 65.8114 33.4108 65.6433V65.6433ZM47.9818 20.3166C47.8511 20.0961 47.6781 19.9035 47.4729 19.7499C47.2677 19.5963 47.0342 19.4846 46.7858 19.4212C46.5374 19.3579 46.2789 19.3441 46.0252 19.3807C45.7715 19.4173 45.5274 19.5035 45.307 19.6344L36.8587 24.651C36.4319 24.924 36.1278 25.3522 36.0108 25.8452C35.8938 26.3382 35.9729 26.8574 36.2316 27.2931C36.4902 27.7289 36.908 28.047 37.3969 28.1804C37.8857 28.3138 38.4072 28.252 38.8513 28.008L47.2996 22.9914C47.7446 22.727 48.0664 22.2967 48.1943 21.7952C48.3222 21.2936 48.2458 20.7618 47.9818 20.3166ZM52.1731 71.4834L42.7924 68.5629C42.3035 68.4267 41.7808 68.4863 41.335 68.729C40.8893 68.9717 40.5556 69.3785 40.4048 69.8631C40.2539 70.3477 40.2977 70.872 40.5268 71.3248C40.756 71.7777 41.1525 72.1235 41.6323 72.2889L51.013 75.2094C51.4997 75.3384 52.0175 75.2744 52.4581 75.0308C52.8988 74.7872 53.2283 74.3829 53.378 73.9021C53.5277 73.4214 53.4859 72.9014 53.2614 72.4507C53.0369 72.0001 52.647 71.6535 52.1731 71.4834ZM69.9715 19.3806L76.1203 25.9533C76.2953 26.1409 76.5055 26.292 76.739 26.3982C76.9725 26.5043 77.2246 26.5634 77.481 26.5719C77.7373 26.5804 77.9928 26.5383 78.2329 26.4479C78.4729 26.3575 78.6927 26.2206 78.8797 26.0451C79.2575 25.6914 79.4795 25.2022 79.4968 24.685C79.5142 24.1678 79.3256 23.6649 78.9724 23.2866L72.4681 16.3341C71.8323 17.4958 70.9856 18.5289 69.9715 19.3806V19.3806ZM83.7577 56.2275C83.642 56.4633 83.575 56.7199 83.5607 56.9822C83.5465 57.2444 83.5853 57.5069 83.6748 57.7538C83.7643 58.0007 83.9027 58.227 84.0817 58.4192C84.2607 58.6114 84.4766 58.7655 84.7165 58.8723C84.9564 58.9792 85.2154 59.0365 85.478 59.0409C85.7406 59.0453 86.0014 58.9967 86.2448 58.898C86.4882 58.7993 86.7092 58.6525 86.8945 58.4665C87.0799 58.2804 87.2258 58.0589 87.3235 57.8151L89.6014 52.7004C88.3365 52.3457 87.1491 51.7575 86.1004 50.9661L83.7577 56.2275V56.2275ZM87.9913 32.9283L85.6828 30.4614C85.5077 30.2743 85.2975 30.1234 85.0641 30.0175C84.8307 29.9116 84.5788 29.8527 84.3226 29.8442C84.0665 29.8357 83.8111 29.8777 83.5712 29.9678C83.3313 30.058 83.1115 30.1945 82.9243 30.3696C82.7372 30.5447 82.5863 30.7549 82.4804 30.9883C82.3745 31.2217 82.3157 31.4737 82.3071 31.7298C82.2986 31.986 82.3406 32.2413 82.4308 32.4812C82.5209 32.7211 82.6574 32.9409 82.8325 33.1281L84.7936 35.2242C85.7077 34.2669 86.7921 33.4883 87.9913 32.9283V32.9283ZM28.7605 34.0002L30.4039 33.0246C30.8308 32.7516 31.1349 32.3234 31.2519 31.8304C31.3689 31.3374 31.2898 30.8182 31.0311 30.3825C30.7725 29.9467 30.3546 29.6286 29.8658 29.4952C29.377 29.3618 28.8554 29.4236 28.4113 29.6676L26.4205 30.8502C27.3895 31.7457 28.183 32.8139 28.7605 34.0002V34.0002ZM90.9892 38.9889L90.1738 39.7287L89.5546 40.3119L90.9892 38.9889Z" fill="#3E67C5"/>
<path d="M19.2484 45.2925C22.9381 45.2925 25.9291 42.3014 25.9291 38.6118C25.9291 34.9221 22.9381 31.9311 19.2484 31.9311C15.5588 31.9311 12.5677 34.9221 12.5677 38.6118C12.5677 42.3014 15.5588 45.2925 19.2484 45.2925Z" fill="#3E67C5"/>
<g filter="url(#filter0_d_126_334)">
<g filter="url(#filter1_d_126_334)">
<path d="M97.6223 74.4059V117.414H93.2703V94.7579C93.2703 90.3633 93.3983 86.1179 93.6543 82.0219L84.8863 105.958H80.0863L71.1903 82.0219C71.489 85.9899 71.6383 90.2139 71.6383 94.6939V117.414H67.3503V74.4059H72.7263L82.4543 101.35L92.1823 74.4059H97.6223ZM115.473 113.51C117.607 113.51 119.655 112.849 121.617 111.526V80.9979H126.161V117.414H121.809V115.686C119.335 116.923 116.796 117.542 114.193 117.542C111.633 117.542 109.585 116.774 108.049 115.238C106.513 113.659 105.745 111.398 105.745 108.454V80.9979H110.289V108.07C110.289 111.697 112.017 113.51 115.473 113.51ZM131.969 89.5739C131.969 86.5873 132.822 84.3686 134.529 82.9179C136.235 81.4246 139.03 80.6779 142.913 80.6779C145.302 80.6779 147.67 81.0406 150.017 81.7659V85.9899C147.883 85.2219 145.537 84.8379 142.977 84.8379C140.417 84.8379 138.689 85.2219 137.793 85.9899C136.897 86.7153 136.449 87.9526 136.449 89.7019V91.3659C136.449 92.7313 136.705 93.7766 137.217 94.5019C137.771 95.2273 138.774 95.9099 140.225 96.5499L145.729 99.2379C149.569 101.115 151.489 103.718 151.489 107.046V108.774C151.489 114.747 147.627 117.734 139.905 117.734C137.003 117.734 134.443 117.393 132.225 116.71V112.486C134.443 113.254 136.897 113.638 139.585 113.638C142.315 113.638 144.214 113.233 145.281 112.422C146.39 111.569 146.945 110.331 146.945 108.71V107.43C146.945 106.235 146.667 105.318 146.113 104.678C145.558 103.995 144.47 103.27 142.849 102.502L137.345 99.8779C133.761 98.1713 131.969 95.4619 131.969 91.7499V89.5739ZM156.668 108.134V90.3419C156.668 87.3126 157.521 84.9019 159.228 83.1099C160.977 81.2753 163.601 80.3579 167.1 80.3579C170.598 80.3579 173.18 81.2753 174.844 83.1099C176.55 84.9019 177.404 87.3126 177.404 90.3419V101.478H161.148V107.942C161.148 109.862 161.745 111.291 162.94 112.23C164.134 113.169 165.99 113.638 168.508 113.638C171.025 113.638 173.628 113.254 176.316 112.486V116.71C174.182 117.393 171.644 117.734 168.7 117.734C160.678 117.734 156.668 114.534 156.668 108.134ZM161.148 97.7019H173.052V90.3419C173.052 86.3313 171.068 84.3259 167.1 84.3259C163.132 84.3259 161.148 86.3313 161.148 90.3419V97.7019Z" fill="white"/>
</g>
<path d="M74.5591 31.596C74.5591 25.5373 78.3991 22.508 86.0791 22.508C88.5538 22.508 91.0284 22.8493 93.5031 23.532V27.756C90.9858 27.0306 88.4684 26.668 85.9511 26.668C83.4338 26.668 81.6631 27.116 80.6391 28.012C79.6151 28.8653 79.1031 30.1453 79.1031 31.852V56.876C79.1031 58.54 79.6151 59.82 80.6391 60.716C81.7058 61.5693 83.5404 61.996 86.1431 61.996C88.7884 61.996 91.2844 61.6546 93.6311 60.972V65.132C91.4978 65.8146 88.9804 66.156 86.0791 66.156C78.3991 66.156 74.5591 63.1266 74.5591 57.068V31.596ZM106.025 55.468V57.388C106.025 59.0946 106.43 60.3533 107.241 61.164C108.051 61.9746 109.587 62.38 111.849 62.38C114.11 62.38 116.243 61.548 118.249 59.884V47.916L110.953 49.964C109.033 50.5186 107.731 51.2013 107.049 52.012C106.366 52.8226 106.025 53.9746 106.025 55.468ZM111.785 29.1C119.038 29.1 122.665 32.1933 122.665 38.38V65.836H118.313V63.212C116.137 65.132 113.534 66.092 110.505 66.092C104.574 66.092 101.609 63.1693 101.609 57.324V55.276C101.609 50.8386 104.19 47.8946 109.353 46.444L118.313 43.948V38.38C118.27 36.6306 117.779 35.3506 116.841 34.54C115.902 33.7293 114.003 33.324 111.145 33.324C108.329 33.324 105.726 33.7506 103.337 34.604V30.316C105.769 29.5053 108.585 29.1 111.785 29.1ZM136.098 27.244C136.098 24.4706 136.845 22.3373 138.338 20.844C139.831 19.308 142.029 18.54 144.93 18.54C145.954 18.54 146.914 18.604 147.81 18.732V22.636C147.17 22.4653 146.317 22.38 145.25 22.38C142.178 22.38 140.642 23.98 140.642 27.18V29.42H147.426V33.324H140.642V65.836H136.098V33.324H132.45V29.42H136.098V27.244ZM155.204 56.556V38.764C155.204 35.7346 156.057 33.324 157.764 31.532C159.513 29.6973 162.137 28.78 165.636 28.78C169.135 28.78 171.716 29.6973 173.38 31.532C175.087 33.324 175.94 35.7346 175.94 38.764V49.9H159.684V56.364C159.684 58.284 160.281 59.7133 161.476 60.652C162.671 61.5906 164.527 62.06 167.044 62.06C169.561 62.06 172.164 61.676 174.852 60.908V65.132C172.719 65.8146 170.18 66.156 167.236 66.156C159.215 66.156 155.204 62.956 155.204 56.556ZM159.684 46.124H171.588V38.764C171.588 34.7533 169.604 32.748 165.636 32.748C161.668 32.748 159.684 34.7533 159.684 38.764V46.124ZM171.204 19.756L167.364 26.604H164.42L166.916 19.756H171.204Z" fill="white"/>
</g>
<defs>
<filter id="filter0_d_126_334" x="63.3503" y="18.54" width="118.053" height="107.194" filterUnits="userSpaceOnUse" color-interpolation-filters="sRGB">
<feFlood flood-opacity="0" result="BackgroundImageFix"/>
<feColorMatrix in="SourceAlpha" type="matrix" values="0 0 0 0 0 0 0 0 0 0 0 0 0 0 0 0 0 0 127 0" result="hardAlpha"/>
<feOffset dy="4"/>
<feGaussianBlur stdDeviation="2"/>
<feComposite in2="hardAlpha" operator="out"/>
<feColorMatrix type="matrix" values="0 0 0 0 0 0 0 0 0 0 0 0 0 0 0 0 0 0 0.25 0"/>
<feBlend mode="normal" in2="BackgroundImageFix" result="effect1_dropShadow_126_334"/>
<feBlend mode="normal" in="SourceGraphic" in2="effect1_dropShadow_126_334" result="shape"/>
</filter>
<filter id="filter1_d_126_334" x="63.3503" y="74.4059" width="118.053" height="51.328" filterUnits="userSpaceOnUse" color-interpolation-filters="sRGB">
<feFlood flood-opacity="0" result="BackgroundImageFix"/>
<feColorMatrix in="SourceAlpha" type="matrix" values="0 0 0 0 0 0 0 0 0 0 0 0 0 0 0 0 0 0 127 0" result="hardAlpha"/>
<feOffset dy="4"/>
<feGaussianBlur stdDeviation="2"/>
<feComposite in2="hardAlpha" operator="out"/>
<feColorMatrix type="matrix" values="0 0 0 0 0 0 0 0 0 0 0 0 0 0 0 0 0 0 1 0"/>
<feBlend mode="normal" in2="BackgroundImageFix" result="effect1_dropShadow_126_334"/>
<feBlend mode="normal" in="SourceGraphic" in2="effect1_dropShadow_126_334" result="shape"/>
</filter>
</defs>
</svg>
