<svg width="100" height="100" viewBox="0 0 100 100" fill="none" xmlns="http://www.w3.org/2000/svg">
<path d="M55.7949 19.961C59.8946 19.961 63.2179 16.6376 63.2179 12.538C63.2179 8.43838 59.8946 5.11499 55.7949 5.11499C51.6953 5.11499 48.3719 8.43838 48.3719 12.538C48.3719 16.6376 51.6953 19.961 55.7949 19.961Z" fill="#AC441D"/>
<path d="M90.497 54.663C94.5966 54.663 97.92 51.3396 97.92 47.24C97.92 43.1404 94.5966 39.817 90.497 39.817C86.3974 39.817 83.074 43.1404 83.074 47.24C83.074 51.3396 86.3974 54.663 90.497 54.663Z" fill="#AC441D"/>
<path d="M70.977 95.871C75.0766 95.871 78.4 92.5476 78.4 88.448C78.4 84.3484 75.0766 81.025 70.977 81.025C66.8773 81.025 63.554 84.3484 63.554 88.448C63.554 92.5476 66.8773 95.871 70.977 95.871Z" fill="#AC441D"/>
<path d="M11.334 76.351C15.4336 76.351 18.757 73.0276 18.757 68.928C18.757 64.8284 15.4336 61.505 11.334 61.505C7.2344 61.505 3.91101 64.8284 3.91101 68.928C3.91101 73.0276 7.2344 76.351 11.334 76.351Z" fill="#AC441D"/>
<path d="M56.171 82.671C55.8992 82.5859 55.6132 82.5553 55.3295 82.5808C55.0458 82.6064 54.77 82.6877 54.5177 82.8201C54.2655 82.9525 54.0419 83.1333 53.8597 83.3523C53.6775 83.5712 53.5403 83.824 53.456 84.096C53.3711 84.3679 53.3407 84.6538 53.3664 84.9374C53.3921 85.221 53.4734 85.4967 53.6058 85.7489C53.7381 86.001 53.9189 86.2246 54.1377 86.4069C54.3565 86.5891 54.6091 86.7265 54.881 86.811L59.231 88.165C59.267 86.659 59.578 85.219 60.132 83.903L56.171 82.671V82.671ZM12.762 57.264L12.504 54.173C11.445 54.487 10.326 54.663 9.16599 54.663C8.83599 54.663 8.51099 54.64 8.18799 54.613L8.43299 57.545C9.36299 57.308 10.332 57.168 11.335 57.168C11.818 57.168 12.293 57.207 12.762 57.264ZM80.362 74.212C80.5772 73.6897 80.5802 73.1041 80.3704 72.5796C80.1606 72.0551 79.7545 71.633 79.2384 71.4032C78.7224 71.1734 78.137 71.1538 77.6068 71.3488C77.0766 71.5437 76.6433 71.9377 76.399 72.447L74.295 77.172C75.714 77.59 77.018 78.272 78.16 79.157L80.362 74.212V74.212ZM24.901 72.937L22.615 72.225C22.1975 73.6457 21.5148 74.9744 20.603 76.141L23.612 77.078C24.154 77.2248 24.7318 77.1558 25.2239 76.8855C25.7161 76.6151 26.0843 76.1646 26.2512 75.6284C26.418 75.0923 26.3706 74.5124 26.1188 74.0105C25.8671 73.5086 25.4305 73.1238 24.901 72.937V72.937ZM41.091 22.574C40.9457 22.3291 40.7535 22.1151 40.5255 21.9444C40.2975 21.7737 40.0381 21.6496 39.7621 21.5792C39.4861 21.5088 39.1989 21.4935 38.917 21.5341C38.635 21.5748 38.3639 21.6706 38.119 21.816L28.732 27.39C28.2577 27.6934 27.9199 28.1692 27.7898 28.717C27.6598 29.2647 27.7477 29.8416 28.0351 30.3258C28.3225 30.8099 28.7868 31.1634 29.3299 31.3116C29.8731 31.4598 30.4525 31.3911 30.946 31.12L40.333 25.546C40.8274 25.2522 41.1849 24.7742 41.327 24.2169C41.4692 23.6596 41.3843 23.0688 41.091 22.574ZM45.748 79.426L35.325 76.181C34.7817 76.0297 34.2009 76.0959 33.7057 76.3656C33.2104 76.6353 32.8397 77.0873 32.672 77.6257C32.5044 78.1641 32.553 78.7467 32.8077 79.2499C33.0623 79.753 33.5029 80.1372 34.036 80.321L44.459 83.566C44.9998 83.7094 45.575 83.6383 46.0646 83.3676C46.5542 83.097 46.9204 82.6477 47.0867 82.1135C47.253 81.5794 47.2066 81.0016 46.9572 80.5009C46.7077 80.0001 46.2745 79.6151 45.748 79.426ZM65.524 21.534L72.356 28.837C72.5504 29.0454 72.784 29.2134 73.0434 29.3314C73.3028 29.4493 73.583 29.5149 73.8678 29.5244C74.1526 29.5338 74.4365 29.487 74.7032 29.3866C74.9699 29.2861 75.2142 29.1341 75.422 28.939C75.8417 28.5461 76.0883 28.0025 76.1077 27.4279C76.127 26.8532 75.9174 26.2943 75.525 25.874L68.298 18.149C67.5915 19.4398 66.6508 20.5877 65.524 21.534V21.534ZM80.842 62.475C80.7134 62.737 80.6389 63.0222 80.6231 63.3136C80.6073 63.605 80.6504 63.8966 80.7498 64.1709C80.8493 64.4452 81.003 64.6967 81.2019 64.9103C81.4008 65.1238 81.6407 65.295 81.9073 65.4137C82.1739 65.5324 82.4617 65.5961 82.7534 65.601C83.0452 65.6059 83.335 65.5519 83.6054 65.4423C83.8758 65.3326 84.1214 65.1695 84.3273 64.9628C84.5332 64.756 84.6954 64.5099 84.804 64.239L87.335 58.556C85.9295 58.1619 84.6101 57.5084 83.445 56.6291L80.842 62.475V62.475ZM85.546 36.587L82.981 33.846C82.7864 33.6381 82.5528 33.4705 82.2935 33.3528C82.0342 33.2352 81.7542 33.1697 81.4696 33.1603C81.185 33.1508 80.9013 33.1975 80.6347 33.2976C80.3682 33.3978 80.1239 33.5495 79.916 33.744C79.708 33.9386 79.5404 34.1722 79.4228 34.4315C79.3051 34.6909 79.2397 34.9708 79.2302 35.2554C79.2207 35.54 79.2674 35.8237 79.3676 36.0903C79.4677 36.3569 79.6194 36.6011 79.814 36.809L81.993 39.138C83.0086 38.0744 84.2135 37.2093 85.546 36.587V36.587ZM19.734 37.778L21.56 36.694C22.0343 36.3907 22.3721 35.9149 22.5022 35.3671C22.6322 34.8193 22.5442 34.2425 22.2569 33.7583C21.9695 33.2742 21.5052 32.9207 20.9621 32.7725C20.4189 32.6243 19.8394 32.693 19.346 32.964L17.134 34.278C18.2106 35.273 19.0923 36.46 19.734 37.778V37.778ZM88.877 43.321L87.971 44.143L87.283 44.791L88.877 43.321Z" fill="#AC441D"/>
<path d="M9.16494 50.325C13.2646 50.325 16.5879 47.0016 16.5879 42.902C16.5879 38.8024 13.2646 35.479 9.16494 35.479C5.06533 35.479 1.74194 38.8024 1.74194 42.902C1.74194 47.0016 5.06533 50.325 9.16494 50.325Z" fill="#AC441D"/>
</svg>
