<svg width="156" height="153" viewBox="0 0 156 153" fill="none" xmlns="http://www.w3.org/2000/svg">
<path d="M72 76.5C75.575 76.5 78.6365 75.2505 81.1845 72.7515C83.7282 70.2567 85 67.2562 85 63.75C85 60.2437 83.7282 57.2411 81.1845 54.7421C78.6365 52.2474 75.575 51 72 51C68.425 51 65.3657 52.2474 62.822 54.7421C60.274 57.2411 59 60.2437 59 63.75C59 67.2562 60.274 70.2567 62.822 72.7515C65.3657 75.2505 68.425 76.5 72 76.5ZM72 123.356C85.2167 111.456 95.0208 100.644 101.412 90.9202C107.804 81.2005 111 72.5687 111 65.025C111 53.4437 107.234 43.9599 99.703 36.5734C92.176 29.1911 82.9417 25.5 72 25.5C61.0583 25.5 51.8218 29.1911 44.2905 36.5734C36.7635 43.9599 33 53.4437 33 65.025C33 72.5687 36.1958 81.2005 42.5875 90.9202C48.9792 100.644 58.7833 111.456 72 123.356ZM72 140.25C54.5583 125.694 41.5323 112.172 32.922 99.6859C24.3073 87.2036 20 75.65 20 65.025C20 49.0875 25.2282 36.3906 35.6845 26.9344C46.1365 17.4781 58.2417 12.75 72 12.75C85.7583 12.75 97.8635 17.4781 108.315 26.9344C118.772 36.3906 124 49.0875 124 65.025C124 75.65 119.695 87.2036 111.084 99.6859C102.47 112.172 89.4417 125.694 72 140.25Z" fill="#333538"/>
</svg>
