<svg width="57" height="56" viewBox="0 0 57 56" fill="none" xmlns="http://www.w3.org/2000/svg">
<path d="M28.5 28C29.8063 28 30.9249 27.5427 31.8559 26.628C32.7853 25.7149 33.25 24.6167 33.25 23.3334C33.25 22.05 32.7853 20.951 31.8559 20.0364C30.9249 19.1232 29.8063 18.6667 28.5 18.6667C27.1938 18.6667 26.0759 19.1232 25.1465 20.0364C24.2155 20.951 23.75 22.05 23.75 23.3334C23.75 24.6167 24.2155 25.7149 25.1465 26.628C26.0759 27.5427 27.1938 28 28.5 28ZM28.5 45.15C33.3292 40.7945 36.9115 36.8371 39.2469 33.278C41.5823 29.7205 42.75 26.5611 42.75 23.8C42.75 19.5611 41.3741 16.0899 38.6222 13.3864C35.872 10.6844 32.4979 9.33335 28.5 9.33335C24.5021 9.33335 21.1272 10.6844 18.3754 13.3864C15.6251 16.0899 14.25 19.5611 14.25 23.8C14.25 26.5611 15.4177 29.7205 17.7531 33.278C20.0885 36.8371 23.6708 40.7945 28.5 45.15ZM28.5 51.3334C22.1271 46.0056 17.3676 41.0566 14.2215 36.4864C11.0738 31.9177 9.5 27.6889 9.5 23.8C9.5 17.9667 11.4103 13.3195 15.2309 9.85835C19.0499 6.39724 23.4729 4.66669 28.5 4.66669C33.5271 4.66669 37.9501 6.39724 41.7691 9.85835C45.5897 13.3195 47.5 17.9667 47.5 23.8C47.5 27.6889 45.927 31.9177 42.7809 36.4864C39.6332 41.0566 34.8729 46.0056 28.5 51.3334Z" fill="#BCCAEA"/>
</svg>
