<svg width="267" height="169" viewBox="0 0 267 169" fill="none" xmlns="http://www.w3.org/2000/svg">
<path d="M75.8812 27.147C81.4567 27.147 85.9765 22.6272 85.9765 17.0517C85.9765 11.4762 81.4567 6.95642 75.8812 6.95642C70.3057 6.95642 65.7859 11.4762 65.7859 17.0517C65.7859 22.6272 70.3057 27.147 75.8812 27.147Z" fill="#AC441D"/>
<path d="M123.076 74.3417C128.651 74.3417 133.171 69.8219 133.171 64.2464C133.171 58.6709 128.651 54.1511 123.076 54.1511C117.5 54.1511 112.981 58.6709 112.981 64.2464C112.981 69.8219 117.5 74.3417 123.076 74.3417Z" fill="#AC441D"/>
<path d="M96.5287 130.385C102.104 130.385 106.624 125.865 106.624 120.289C106.624 114.714 102.104 110.194 96.5287 110.194C90.9532 110.194 86.4334 114.714 86.4334 120.289C86.4334 125.865 90.9532 130.385 96.5287 130.385Z" fill="#AC441D"/>
<path d="M15.4142 103.837C20.9897 103.837 25.5095 99.3175 25.5095 93.7421C25.5095 88.1666 20.9897 83.6468 15.4142 83.6468C9.83877 83.6468 5.31896 88.1666 5.31896 93.7421C5.31896 99.3175 9.83877 103.837 15.4142 103.837Z" fill="#AC441D"/>
<path d="M76.3926 112.433C76.0229 112.317 75.634 112.275 75.2482 112.31C74.8623 112.345 74.4872 112.455 74.1442 112.635C73.8011 112.815 73.497 113.061 73.2492 113.359C73.0015 113.657 72.8149 114.001 72.7002 114.371C72.5847 114.74 72.5433 115.129 72.5783 115.515C72.6132 115.9 72.7239 116.275 72.9039 116.618C73.0838 116.961 73.3297 117.265 73.6272 117.513C73.9248 117.761 74.2683 117.948 74.6382 118.063L80.5542 119.904C80.6031 117.856 81.0261 115.898 81.7795 114.108L76.3926 112.433V112.433ZM17.3563 77.879L17.0054 73.6753C15.5652 74.1023 14.0434 74.3417 12.4658 74.3417C12.017 74.3417 11.575 74.3104 11.1357 74.2737L11.4689 78.2612C12.7337 77.9389 14.0515 77.7485 15.4156 77.7485C16.0725 77.7485 16.7185 77.8015 17.3563 77.879ZM109.292 100.928C109.585 100.218 109.589 99.4214 109.304 98.7081C109.018 97.9948 108.466 97.4208 107.764 97.1083C107.062 96.7957 106.266 96.7691 105.545 97.0342C104.824 97.2993 104.235 97.8352 103.903 98.5279L101.041 104.954C102.971 105.522 104.744 106.45 106.298 107.653L109.292 100.928V100.928ZM33.8654 99.1943L30.7564 98.226C30.1887 100.158 29.2602 101.965 28.0201 103.552L32.1123 104.826C32.8494 105.026 33.6352 104.932 34.3045 104.564C34.9739 104.197 35.4746 103.584 35.7016 102.855C35.9286 102.125 35.8641 101.337 35.5216 100.654C35.1792 99.9716 34.5855 99.4483 33.8654 99.1943V99.1943ZM55.8838 30.7006C55.6862 30.3674 55.4248 30.0764 55.1147 29.8443C54.8046 29.6121 54.4518 29.4434 54.0764 29.3476C53.701 29.2519 53.3105 29.2311 52.9271 29.2863C52.5437 29.3416 52.1749 29.4719 51.8418 29.6697L39.0755 37.2504C38.4305 37.6629 37.971 38.31 37.7942 39.055C37.6173 39.8 37.737 40.5845 38.1278 41.243C38.5186 41.9014 39.15 42.3821 39.8887 42.5837C40.6274 42.7853 41.4155 42.6918 42.0866 42.3232L54.8529 34.7425C55.5252 34.3429 56.0115 33.6928 56.2048 32.9349C56.3981 32.177 56.2826 31.3734 55.8838 30.7006ZM62.2173 108.019L48.042 103.606C47.3032 103.4 46.5133 103.49 45.8397 103.857C45.1662 104.224 44.6619 104.839 44.434 105.571C44.206 106.303 44.2721 107.095 44.6184 107.78C44.9647 108.464 45.5639 108.987 46.289 109.237L60.4642 113.65C61.1997 113.845 61.982 113.748 62.6479 113.38C63.3138 113.012 63.8118 112.401 64.038 111.674C64.2642 110.948 64.201 110.162 63.8618 109.481C63.5225 108.8 62.9334 108.276 62.2173 108.019ZM89.1126 29.2862L98.4042 39.2183C98.6685 39.5017 98.9862 39.7302 99.339 39.8906C99.6919 40.051 100.073 40.1402 100.46 40.153C100.848 40.1659 101.234 40.1022 101.596 39.9657C101.959 39.8291 102.291 39.6222 102.574 39.357C103.145 38.8225 103.48 38.0834 103.506 37.3018C103.533 36.5202 103.248 35.7602 102.714 35.1886L92.8853 24.6826C91.9244 26.438 90.6451 27.9992 89.1126 29.2862V29.2862ZM109.945 84.966C109.77 85.3222 109.669 85.7101 109.647 86.1064C109.626 86.5027 109.685 86.8992 109.82 87.2723C109.955 87.6454 110.164 87.9874 110.435 88.2779C110.705 88.5683 111.031 88.8012 111.394 88.9626C111.756 89.124 112.148 89.2107 112.545 89.2173C112.941 89.224 113.336 89.1506 113.703 89.0014C114.071 88.8523 114.405 88.6305 114.685 88.3493C114.965 88.0681 115.186 87.7334 115.333 87.365L118.776 79.6361C116.864 79.1001 115.07 78.2113 113.485 77.0154L109.945 84.966V84.966ZM116.343 49.7583L112.854 46.0305C112.59 45.7477 112.272 45.5198 111.919 45.3598C111.566 45.1998 111.186 45.1108 110.799 45.0979C110.412 45.085 110.026 45.1485 109.663 45.2847C109.301 45.4209 108.969 45.6272 108.686 45.8918C108.403 46.1564 108.175 46.4741 108.015 46.8268C107.855 47.1795 107.766 47.5602 107.753 47.9473C107.74 48.3344 107.804 48.7202 107.94 49.0827C108.076 49.4453 108.282 49.7774 108.547 50.0602L111.51 53.2277C112.892 51.7811 114.53 50.6046 116.343 49.7583V49.7583ZM26.8382 51.3781L29.3216 49.9038C29.9666 49.4913 30.4261 48.8442 30.6029 48.0992C30.7798 47.3542 30.6602 46.5697 30.2693 45.9112C29.8785 45.2528 29.2471 44.7721 28.5084 44.5705C27.7697 44.3689 26.9816 44.4623 26.3106 44.831L23.3022 46.6181C24.7664 47.9713 25.9655 49.5855 26.8382 51.3781V51.3781ZM120.873 58.9165L119.641 60.0345L118.705 60.9157L120.873 58.9165Z" fill="#AC441D"/>
<path d="M12.4644 68.442C18.0399 68.442 22.5597 63.9222 22.5597 58.3467C22.5597 52.7713 18.0399 48.2515 12.4644 48.2515C6.88893 48.2515 2.36912 52.7713 2.36912 58.3467C2.36912 63.9222 6.88893 68.442 12.4644 68.442Z" fill="#AC441D"/>
<path d="M40.8901 140.356H50.2741V141.886H42.5901V150.828H49.2881V152.358H42.5901V161.47H50.2741V163H40.8901V140.356ZM61.0394 143.858H62.7734L58.0134 153.446L62.7734 163H61.0394L57.1634 155.18L53.2874 163H51.5534L56.2794 153.446L51.5534 143.858H53.2874L57.1634 151.678L61.0394 143.858ZM73.8441 148.312C73.8441 146.34 72.8694 145.354 70.9201 145.354C69.6961 145.354 68.3701 145.694 66.9421 146.374V161.47H70.2061C72.6314 161.47 73.8441 160.28 73.8441 157.9V148.312ZM66.9081 144.776C68.4948 144.119 69.9114 143.79 71.1581 143.79C72.4274 143.79 73.4701 144.187 74.2861 144.98C75.1248 145.773 75.5441 146.884 75.5441 148.312V157.9C75.5441 159.464 75.0908 160.711 74.1841 161.64C73.2774 162.547 72.0761 163 70.5801 163H66.9421V168.066H65.2421V143.858H66.9081V144.776ZM79.9083 138.758H81.6083V163H79.9083V138.758ZM94.807 148.72C94.807 146.272 93.617 145.048 91.237 145.048C88.857 145.048 87.667 146.272 87.667 148.72V158.138C87.667 160.586 88.857 161.81 91.237 161.81C93.617 161.81 94.807 160.586 94.807 158.138V148.72ZM85.967 148.72C85.967 147.156 86.3976 145.898 87.259 144.946C88.1203 143.994 89.4463 143.518 91.237 143.518C93.0276 143.518 94.3536 143.994 95.215 144.946C96.0763 145.898 96.507 147.156 96.507 148.72V158.138C96.507 159.702 96.0763 160.96 95.215 161.912C94.3536 162.864 93.0276 163.34 91.237 163.34C89.4463 163.34 88.1203 162.864 87.259 161.912C86.3976 160.96 85.967 159.702 85.967 158.138V148.72ZM106.484 143.756H107.402V145.422H106.178C105.498 145.422 104.988 145.535 104.648 145.762C104.308 145.966 104.081 146.102 103.968 146.17C103.854 146.238 103.639 146.397 103.322 146.646C103.004 146.895 102.755 147.077 102.574 147.19V163H100.874V143.858H102.54V145.354C102.902 145.105 103.174 144.912 103.356 144.776C103.537 144.617 103.73 144.481 103.934 144.368C104.16 144.232 104.342 144.141 104.478 144.096C104.614 144.051 104.795 143.994 105.022 143.926C105.407 143.813 105.894 143.756 106.484 143.756ZM109.389 158.274V148.754C109.389 147.19 109.82 145.932 110.681 144.98C111.565 144.005 112.903 143.518 114.693 143.518C116.484 143.518 117.81 144.005 118.671 144.98C119.555 145.932 119.997 147.19 119.997 148.754V154.432H111.089V158.274C111.089 160.473 112.597 161.572 115.611 161.572C116.835 161.572 118.093 161.379 119.385 160.994V162.66C118.229 163 116.971 163.17 115.611 163.17C111.463 163.17 109.389 161.538 109.389 158.274ZM111.089 152.902H118.297V148.754C118.297 146.283 117.096 145.048 114.693 145.048C112.291 145.048 111.089 146.283 111.089 148.754V152.902ZM131.76 140.322V143.858H136.418V145.388H131.76V159.056C131.76 159.963 131.975 160.609 132.406 160.994C132.836 161.379 133.516 161.572 134.446 161.572C135.375 161.572 136.157 161.459 136.792 161.232V162.796C136.112 163 135.182 163.102 134.004 163.102C132.848 163.102 131.896 162.762 131.148 162.082C130.422 161.379 130.06 160.371 130.06 159.056V145.388H127.85V143.858H130.094L130.57 140.322H131.76ZM147.951 148.72C147.951 146.272 146.761 145.048 144.381 145.048C142.001 145.048 140.811 146.272 140.811 148.72V158.138C140.811 160.586 142.001 161.81 144.381 161.81C146.761 161.81 147.951 160.586 147.951 158.138V148.72ZM139.111 148.72C139.111 147.156 139.541 145.898 140.403 144.946C141.264 143.994 142.59 143.518 144.381 143.518C146.171 143.518 147.497 143.994 148.359 144.946C149.22 145.898 149.651 147.156 149.651 148.72V158.138C149.651 159.702 149.22 160.96 148.359 161.912C147.497 162.864 146.171 163.34 144.381 163.34C142.59 163.34 141.264 162.864 140.403 161.912C139.541 160.96 139.111 159.702 139.111 158.138V148.72ZM165.713 144.368H164.591C163.911 144.368 163.333 144.583 162.857 145.014C163.628 145.853 164.013 146.975 164.013 148.38V151.032C164.013 152.551 163.56 153.741 162.653 154.602C161.747 155.463 160.387 155.894 158.573 155.894C157.1 155.894 156.363 156.585 156.363 157.968C156.363 158.58 156.545 159.033 156.907 159.328C157.293 159.6 157.927 159.736 158.811 159.736H160.817C163.855 159.736 165.373 161.028 165.373 163.612V163.952C165.373 166.695 163.401 168.066 159.457 168.066H158.063C155.91 168.066 154.221 167.749 152.997 167.114V165.414C154.38 166.162 156.069 166.536 158.063 166.536H159.423C162.257 166.536 163.673 165.686 163.673 163.986V163.612C163.673 162.819 163.481 162.229 163.095 161.844C162.733 161.459 161.985 161.266 160.851 161.266H158.811C157.542 161.266 156.556 161.017 155.853 160.518C155.151 160.019 154.799 159.305 154.799 158.376V157.832C154.799 157.265 154.958 156.801 155.275 156.438C155.593 156.053 156.001 155.792 156.499 155.656C154.255 155.067 153.133 153.525 153.133 151.032V148.38C153.133 146.861 153.587 145.671 154.493 144.81C155.4 143.949 156.681 143.518 158.335 143.518C160.013 143.518 161.327 143.847 162.279 144.504C162.687 143.257 163.662 142.634 165.203 142.634H165.713V144.368ZM162.313 151.032V148.38C162.313 147.269 162.019 146.442 161.429 145.898C160.84 145.331 159.888 145.048 158.573 145.048C157.259 145.048 156.307 145.331 155.717 145.898C155.128 146.442 154.833 147.269 154.833 148.38V151.032C154.833 152.143 155.128 152.981 155.717 153.548C156.307 154.092 157.259 154.364 158.573 154.364C159.888 154.364 160.84 154.092 161.429 153.548C162.019 152.981 162.313 152.143 162.313 151.032ZM168.377 158.274V148.754C168.377 147.19 168.807 145.932 169.669 144.98C170.553 144.005 171.89 143.518 173.681 143.518C175.471 143.518 176.797 144.005 177.659 144.98C178.543 145.932 178.985 147.19 178.985 148.754V154.432H170.077V158.274C170.077 160.473 171.584 161.572 174.599 161.572C175.823 161.572 177.081 161.379 178.373 160.994V162.66C177.217 163 175.959 163.17 174.599 163.17C170.451 163.17 168.377 161.538 168.377 158.274ZM170.077 152.902H177.285V148.754C177.285 146.283 176.083 145.048 173.681 145.048C171.278 145.048 170.077 146.283 170.077 148.754V152.902ZM184.68 140.322V143.858H189.338V145.388H184.68V159.056C184.68 159.963 184.896 160.609 185.326 160.994C185.757 161.379 186.437 161.572 187.366 161.572C188.296 161.572 189.078 161.459 189.712 161.232V162.796C189.032 163 188.103 163.102 186.924 163.102C185.768 163.102 184.816 162.762 184.068 162.082C183.343 161.379 182.98 160.371 182.98 159.056V145.388H180.77V143.858H183.014L183.49 140.322H184.68ZM192.371 138.758H194.037V144.742C195.443 144.107 196.825 143.79 198.185 143.79C199.545 143.79 200.633 144.187 201.449 144.98C202.265 145.773 202.673 146.884 202.673 148.312V163H200.973V148.312C200.973 146.34 200.01 145.354 198.083 145.354C196.814 145.354 195.477 145.694 194.071 146.374V163H192.371V138.758ZM206.864 158.274V148.754C206.864 147.19 207.294 145.932 208.156 144.98C209.04 144.005 210.377 143.518 212.168 143.518C213.958 143.518 215.284 144.005 216.146 144.98C217.03 145.932 217.472 147.19 217.472 148.754V154.432H208.564V158.274C208.564 160.473 210.071 161.572 213.086 161.572C214.31 161.572 215.568 161.379 216.86 160.994V162.66C215.704 163 214.446 163.17 213.086 163.17C208.938 163.17 206.864 161.538 206.864 158.274ZM208.564 152.902H215.772V148.754C215.772 146.283 214.57 145.048 212.168 145.048C209.765 145.048 208.564 146.283 208.564 148.754V152.902ZM227.247 143.756H228.165V145.422H226.941C226.261 145.422 225.751 145.535 225.411 145.762C225.071 145.966 224.845 146.102 224.731 146.17C224.618 146.238 224.403 146.397 224.085 146.646C223.768 146.895 223.519 147.077 223.337 147.19V163H221.637V143.858H223.303V145.354C223.666 145.105 223.938 144.912 224.119 144.776C224.301 144.617 224.493 144.481 224.697 144.368C224.924 144.232 225.105 144.141 225.241 144.096C225.377 144.051 225.559 143.994 225.785 143.926C226.171 143.813 226.658 143.756 227.247 143.756Z" fill="#E3D3B3"/>
<g filter="url(#filter0_d_113_221)">
<path d="M72.6845 88.0176V131.026H68.3325V108.37C68.3325 103.975 68.4605 99.7296 68.7165 95.6336L59.9485 119.57H55.1485L46.2525 95.6336C46.5512 99.6016 46.7005 103.826 46.7005 108.306V131.026H42.4125V88.0176H47.7885L57.5165 114.962L67.2445 88.0176H72.6845ZM90.5355 127.122C92.6689 127.122 94.7169 126.46 96.6795 125.138V94.6096H101.224V131.026H96.8715V129.298C94.3969 130.535 91.8582 131.154 89.2555 131.154C86.6955 131.154 84.6475 130.386 83.1115 128.85C81.5755 127.271 80.8075 125.01 80.8075 122.066V94.6096H85.3515V121.682C85.3515 125.308 87.0795 127.122 90.5355 127.122ZM107.031 103.186C107.031 100.199 107.884 97.9803 109.591 96.5296C111.298 95.0363 114.092 94.2896 117.975 94.2896C120.364 94.2896 122.732 94.6523 125.079 95.3776V99.6016C122.946 98.8336 120.599 98.4496 118.039 98.4496C115.479 98.4496 113.751 98.8336 112.855 99.6016C111.959 100.327 111.511 101.564 111.511 103.314V104.978C111.511 106.343 111.767 107.388 112.279 108.114C112.834 108.839 113.836 109.522 115.287 110.162L120.791 112.85C124.631 114.727 126.551 117.33 126.551 120.658V122.386C126.551 128.359 122.69 131.346 114.967 131.346C112.066 131.346 109.506 131.004 107.287 130.322V126.098C109.506 126.866 111.959 127.25 114.647 127.25C117.378 127.25 119.276 126.844 120.343 126.034C121.452 125.18 122.007 123.943 122.007 122.322V121.042C122.007 119.847 121.73 118.93 121.175 118.29C120.62 117.607 119.532 116.882 117.911 116.114L112.407 113.49C108.823 111.783 107.031 109.074 107.031 105.362V103.186ZM131.73 121.746V103.954C131.73 100.924 132.583 98.5136 134.29 96.7216C136.039 94.887 138.663 93.9696 142.162 93.9696C145.661 93.9696 148.242 94.887 149.906 96.7216C151.613 98.5136 152.466 100.924 152.466 103.954V115.09H136.21V121.554C136.21 123.474 136.807 124.903 138.002 125.842C139.197 126.78 141.053 127.25 143.57 127.25C146.087 127.25 148.69 126.866 151.378 126.098V130.322C149.245 131.004 146.706 131.346 143.762 131.346C135.741 131.346 131.73 128.146 131.73 121.746ZM136.21 111.314H148.114V103.954C148.114 99.943 146.13 97.9376 142.162 97.9376C138.194 97.9376 136.21 99.943 136.21 103.954V111.314ZM169.243 127.122C171.376 127.122 173.424 126.46 175.387 125.138V94.6096H179.931V131.026H175.579V129.298C173.104 130.535 170.566 131.154 167.963 131.154C165.403 131.154 163.355 130.386 161.819 128.85C160.283 127.271 159.515 125.01 159.515 122.066V94.6096H164.059V121.682C164.059 125.308 165.787 127.122 169.243 127.122ZM206.859 97.1056C209.803 95.3563 212.725 94.4816 215.627 94.4816C218.528 94.4816 220.747 95.2283 222.283 96.7216C223.819 98.1723 224.587 100.242 224.587 102.93V131.026H219.979V103.378C219.979 100.263 218.421 98.7056 215.307 98.7056C213.003 98.7056 210.699 99.4096 208.395 100.818C208.608 101.458 208.715 102.311 208.715 103.378V131.026H204.171V103.378C204.171 100.263 202.592 98.7056 199.435 98.7056C197.429 98.7056 195.253 99.2603 192.907 100.37V131.026H188.363V94.6096H192.715V96.2736C195.573 95.079 198.069 94.4816 200.203 94.4816C203.104 94.4816 205.323 95.3563 206.859 97.1056Z" fill="#E3D3B3"/>
<path d="M72.6845 88.0176H73.6845V87.0176H72.6845V88.0176ZM72.6845 131.026V132.026H73.6845V131.026H72.6845ZM68.3325 131.026H67.3325V132.026H68.3325V131.026ZM68.7165 95.6336L69.7146 95.696L67.7775 95.2897L68.7165 95.6336ZM59.9485 119.57V120.57H60.6472L60.8875 119.914L59.9485 119.57ZM55.1485 119.57L54.2112 119.918L54.4534 120.57H55.1485V119.57ZM46.2525 95.6336L47.1899 95.2853L45.2553 95.7087L46.2525 95.6336ZM46.7005 131.026V132.026H47.7005V131.026H46.7005ZM42.4125 131.026H41.4125V132.026H42.4125V131.026ZM42.4125 88.0176V87.0176H41.4125V88.0176H42.4125ZM47.7885 88.0176L48.7291 87.678L48.4907 87.0176H47.7885V88.0176ZM57.5165 114.962L56.576 115.301L57.5165 117.906L58.4571 115.301L57.5165 114.962ZM67.2445 88.0176V87.0176H66.5424L66.304 87.678L67.2445 88.0176ZM71.6845 88.0176V131.026H73.6845V88.0176H71.6845ZM72.6845 130.026H68.3325V132.026H72.6845V130.026ZM69.3325 131.026V108.37H67.3325V131.026H69.3325ZM69.3325 108.37C69.3325 103.994 69.46 99.7698 69.7146 95.696L67.7185 95.5713C67.4611 99.6894 67.3325 103.956 67.3325 108.37H69.3325ZM67.7775 95.2897L59.0095 119.226L60.8875 119.914L69.6555 95.9776L67.7775 95.2897ZM59.9485 118.57H55.1485V120.57H59.9485V118.57ZM56.0859 119.221L47.1899 95.2853L45.3152 95.982L54.2112 119.918L56.0859 119.221ZM45.2553 95.7087C45.5519 99.6488 45.7005 103.848 45.7005 108.306H47.7005C47.7005 103.804 47.5505 99.5544 47.2497 95.5586L45.2553 95.7087ZM45.7005 108.306V131.026H47.7005V108.306H45.7005ZM46.7005 130.026H42.4125V132.026H46.7005V130.026ZM43.4125 131.026V88.0176H41.4125V131.026H43.4125ZM42.4125 89.0176H47.7885V87.0176H42.4125V89.0176ZM46.848 88.3572L56.576 115.301L58.4571 114.622L48.7291 87.678L46.848 88.3572ZM58.4571 115.301L68.1851 88.3572L66.304 87.678L56.576 114.622L58.4571 115.301ZM67.2445 89.0176H72.6845V87.0176H67.2445V89.0176ZM96.6795 125.138L97.2384 125.967L97.6795 125.67V125.138H96.6795ZM96.6795 94.6096V93.6096H95.6795V94.6096H96.6795ZM101.224 94.6096H102.224V93.6096H101.224V94.6096ZM101.224 131.026V132.026H102.224V131.026H101.224ZM96.8715 131.026H95.8715V132.026H96.8715V131.026ZM96.8715 129.298H97.8715V127.68L96.4243 128.403L96.8715 129.298ZM83.1115 128.85L82.3947 129.547L82.4044 129.557L83.1115 128.85ZM80.8075 94.6096V93.6096H79.8075V94.6096H80.8075ZM85.3515 94.6096H86.3515V93.6096H85.3515V94.6096ZM90.5355 128.122C92.8895 128.122 95.1294 127.388 97.2384 125.967L96.1207 124.308C94.3043 125.532 92.4482 126.122 90.5355 126.122V128.122ZM97.6795 125.138V94.6096H95.6795V125.138H97.6795ZM96.6795 95.6096H101.224V93.6096H96.6795V95.6096ZM100.224 94.6096V131.026H102.224V94.6096H100.224ZM101.224 130.026H96.8715V132.026H101.224V130.026ZM97.8715 131.026V129.298H95.8715V131.026H97.8715ZM96.4243 128.403C94.0795 129.576 91.6932 130.154 89.2555 130.154V132.154C92.0232 132.154 94.7142 131.494 97.3187 130.192L96.4243 128.403ZM89.2555 130.154C86.9098 130.154 85.1339 129.458 83.8186 128.143L82.4044 129.557C84.1612 131.313 86.4813 132.154 89.2555 132.154V130.154ZM83.8283 128.152C82.5283 126.816 81.8075 124.839 81.8075 122.066H79.8075C79.8075 125.18 80.6228 127.726 82.3948 129.547L83.8283 128.152ZM81.8075 122.066V94.6096H79.8075V122.066H81.8075ZM80.8075 95.6096H85.3515V93.6096H80.8075V95.6096ZM84.3515 94.6096V121.682H86.3515V94.6096H84.3515ZM84.3515 121.682C84.3515 123.637 84.8166 125.29 85.9236 126.452C87.0391 127.622 88.6408 128.122 90.5355 128.122V126.122C88.9743 126.122 87.9839 125.714 87.3715 125.072C86.7504 124.42 86.3515 123.353 86.3515 121.682H84.3515ZM109.591 96.5296L110.239 97.2916L110.244 97.2869L110.25 97.2822L109.591 96.5296ZM125.079 95.3776H126.079V94.64L125.374 94.4222L125.079 95.3776ZM125.079 99.6016L124.74 100.543L126.079 101.024V99.6016H125.079ZM112.855 99.6016L113.484 100.379L113.495 100.37L113.506 100.361L112.855 99.6016ZM112.279 108.114L111.462 108.69L111.473 108.706L111.485 108.721L112.279 108.114ZM115.287 110.162L115.726 109.263L115.708 109.255L115.691 109.247L115.287 110.162ZM120.791 112.85L121.23 111.951L121.23 111.951L120.791 112.85ZM107.287 130.322H106.287V131.06L106.993 131.277L107.287 130.322ZM107.287 126.098L107.614 125.153L106.287 124.693V126.098H107.287ZM120.343 126.034L120.948 126.83L120.953 126.826L120.343 126.034ZM121.175 118.29L120.399 118.92L120.409 118.933L120.419 118.945L121.175 118.29ZM117.911 116.114L117.481 117.016L117.483 117.017L117.911 116.114ZM112.407 113.49L112.837 112.587L112.837 112.587L112.407 113.49ZM108.031 103.186C108.031 100.389 108.824 98.494 110.239 97.2916L108.943 95.7677C106.945 97.4666 106.031 100.009 106.031 103.186H108.031ZM110.25 97.2822C111.682 96.0284 114.176 95.2896 117.975 95.2896V93.2896C114.008 93.2896 110.913 94.0442 108.933 95.7771L110.25 97.2822ZM117.975 95.2896C120.261 95.2896 122.53 95.6364 124.784 96.333L125.374 94.4222C122.935 93.6682 120.467 93.2896 117.975 93.2896V95.2896ZM124.079 95.3776V99.6016H126.079V95.3776H124.079ZM125.418 98.6607C123.163 97.8489 120.7 97.4496 118.039 97.4496V99.4496C120.498 99.4496 122.729 99.8183 124.74 100.543L125.418 98.6607ZM118.039 97.4496C116.715 97.4496 115.565 97.5483 114.606 97.7614C113.656 97.9727 112.824 98.3114 112.204 98.8424L113.506 100.361C113.782 100.124 114.262 99.8866 115.04 99.7138C115.809 99.5429 116.803 99.4496 118.039 99.4496V97.4496ZM112.226 98.8244C110.995 99.821 110.511 101.422 110.511 103.314H112.511C112.511 101.707 112.923 100.833 113.484 100.379L112.226 98.8244ZM110.511 103.314V104.978H112.511V103.314H110.511ZM110.511 104.978C110.511 106.446 110.783 107.728 111.462 108.69L113.096 107.537C112.751 107.049 112.511 106.24 112.511 104.978H110.511ZM111.485 108.721C112.191 109.645 113.377 110.412 114.883 111.077L115.691 109.247C114.296 108.631 113.476 108.033 113.073 107.506L111.485 108.721ZM114.848 111.06L120.352 113.748L121.23 111.951L115.726 109.263L114.848 111.06ZM120.352 113.748C123.965 115.514 125.551 117.826 125.551 120.658H127.551C127.551 116.833 125.297 113.94 121.23 111.951L120.352 113.748ZM125.551 120.658V122.386H127.551V120.658H125.551ZM125.551 122.386C125.551 125.14 124.674 127.053 123.043 128.315C121.364 129.614 118.727 130.346 114.967 130.346V132.346C118.929 132.346 122.085 131.584 124.267 129.897C126.497 128.171 127.551 125.605 127.551 122.386H125.551ZM114.967 130.346C112.142 130.346 109.684 130.013 107.581 129.366L106.993 131.277C109.327 131.996 111.99 132.346 114.967 132.346V130.346ZM108.287 130.322V126.098H106.287V130.322H108.287ZM106.96 127.043C109.298 127.852 111.864 128.25 114.647 128.25V126.25C112.054 126.25 109.714 125.879 107.614 125.153L106.96 127.043ZM114.647 128.25C117.408 128.25 119.601 127.853 120.948 126.83L119.738 125.237C118.952 125.835 117.347 126.25 114.647 126.25V128.25ZM120.953 126.826C122.349 125.752 123.007 124.198 123.007 122.322H121.007C121.007 123.688 120.556 124.609 119.733 125.241L120.953 126.826ZM123.007 122.322V121.042H121.007V122.322H123.007ZM123.007 121.042C123.007 119.704 122.697 118.519 121.931 117.635L120.419 118.945C120.762 119.34 121.007 119.99 121.007 121.042H123.007ZM121.951 117.659C121.247 116.792 119.984 115.989 118.339 115.21L117.483 117.017C119.081 117.774 119.994 118.422 120.399 118.92L121.951 117.659ZM118.341 115.211L112.837 112.587L111.977 114.392L117.481 117.016L118.341 115.211ZM112.837 112.587C111.173 111.794 109.985 110.799 109.209 109.626C108.436 108.457 108.031 107.05 108.031 105.362H106.031C106.031 107.385 106.522 109.189 107.541 110.729C108.557 112.266 110.057 113.478 111.977 114.392L112.837 112.587ZM108.031 105.362V103.186H106.031V105.362H108.031ZM134.29 96.7216L133.566 96.0316L133.566 96.032L134.29 96.7216ZM149.906 96.7216L149.165 97.3934L149.173 97.4025L149.182 97.4113L149.906 96.7216ZM152.466 115.09V116.09H153.466V115.09H152.466ZM136.21 115.09V114.09H135.21V115.09H136.21ZM138.002 125.842L137.384 126.628L137.384 126.628L138.002 125.842ZM151.378 126.098H152.378V124.772L151.103 125.136L151.378 126.098ZM151.378 130.322L151.683 131.274L152.378 131.052V130.322H151.378ZM136.21 111.314H135.21V112.314H136.21V111.314ZM148.114 111.314V112.314H149.114V111.314H148.114ZM132.73 121.746V103.954H130.73V121.746H132.73ZM132.73 103.954C132.73 101.12 133.522 98.9776 135.014 97.4113L133.566 96.032C131.644 98.0497 130.73 100.728 130.73 103.954H132.73ZM135.014 97.4117C136.512 95.8409 138.83 94.9696 142.162 94.9696V92.9696C138.497 92.9696 135.567 93.933 133.566 96.0316L135.014 97.4117ZM142.162 94.9696C145.498 94.9696 147.759 95.8424 149.165 97.3934L150.647 96.0498C148.725 93.9315 145.823 92.9696 142.162 92.9696V94.9696ZM149.182 97.4113C150.674 98.9776 151.466 101.12 151.466 103.954H153.466C153.466 100.728 152.552 98.0497 150.63 96.032L149.182 97.4113ZM151.466 103.954V115.09H153.466V103.954H151.466ZM152.466 114.09H136.21V116.09H152.466V114.09ZM135.21 115.09V121.554H137.21V115.09H135.21ZM135.21 121.554C135.21 123.692 135.886 125.451 137.384 126.628L138.62 125.055C137.729 124.355 137.21 123.255 137.21 121.554H135.21ZM137.384 126.628C138.838 127.77 140.964 128.25 143.57 128.25V126.25C141.142 126.25 139.555 125.79 138.62 125.055L137.384 126.628ZM143.57 128.25C146.19 128.25 148.885 127.85 151.653 127.059L151.103 125.136C148.495 125.881 145.985 126.25 143.57 126.25V128.25ZM150.378 126.098V130.322H152.378V126.098H150.378ZM151.073 129.369C149.064 130.012 146.633 130.346 143.762 130.346V132.346C146.779 132.346 149.426 131.996 151.683 131.274L151.073 129.369ZM143.762 130.346C139.858 130.346 137.114 129.562 135.362 128.164C133.652 126.8 132.73 124.724 132.73 121.746H130.73C130.73 125.167 131.813 127.891 134.114 129.727C136.372 131.529 139.645 132.346 143.762 132.346V130.346ZM136.21 112.314H148.114V110.314H136.21V112.314ZM149.114 111.314V103.954H147.114V111.314H149.114ZM149.114 103.954C149.114 101.797 148.58 99.995 147.337 98.7383C146.092 97.4796 144.303 96.9376 142.162 96.9376V98.9376C143.989 98.9376 145.176 99.3983 145.915 100.145C146.656 100.894 147.114 102.1 147.114 103.954H149.114ZM142.162 96.9376C140.021 96.9376 138.232 97.4796 136.987 98.7383C135.744 99.995 135.21 101.797 135.21 103.954H137.21C137.21 102.1 137.668 100.894 138.409 100.145C139.148 99.3983 140.335 98.9376 142.162 98.9376V96.9376ZM135.21 103.954V111.314H137.21V103.954H135.21ZM175.387 125.138L175.946 125.967L176.387 125.67V125.138H175.387ZM175.387 94.6096V93.6096H174.387V94.6096H175.387ZM179.931 94.6096H180.931V93.6096H179.931V94.6096ZM179.931 131.026V132.026H180.931V131.026H179.931ZM175.579 131.026H174.579V132.026H175.579V131.026ZM175.579 129.298H176.579V127.68L175.132 128.403L175.579 129.298ZM161.819 128.85L161.102 129.547L161.112 129.557L161.819 128.85ZM159.515 94.6096V93.6096H158.515V94.6096H159.515ZM164.059 94.6096H165.059V93.6096H164.059V94.6096ZM169.243 128.122C171.597 128.122 173.837 127.388 175.946 125.967L174.828 124.308C173.012 125.532 171.156 126.122 169.243 126.122V128.122ZM176.387 125.138V94.6096H174.387V125.138H176.387ZM175.387 95.6096H179.931V93.6096H175.387V95.6096ZM178.931 94.6096V131.026H180.931V94.6096H178.931ZM179.931 130.026H175.579V132.026H179.931V130.026ZM176.579 131.026V129.298H174.579V131.026H176.579ZM175.132 128.403C172.787 129.576 170.401 130.154 167.963 130.154V132.154C170.731 132.154 173.422 131.494 176.026 130.192L175.132 128.403ZM167.963 130.154C165.617 130.154 163.841 129.458 162.526 128.143L161.112 129.557C162.869 131.313 165.189 132.154 167.963 132.154V130.154ZM162.536 128.152C161.236 126.816 160.515 124.839 160.515 122.066H158.515C158.515 125.18 159.33 127.726 161.102 129.547L162.536 128.152ZM160.515 122.066V94.6096H158.515V122.066H160.515ZM159.515 95.6096H164.059V93.6096H159.515V95.6096ZM163.059 94.6096V121.682H165.059V94.6096H163.059ZM163.059 121.682C163.059 123.637 163.524 125.29 164.631 126.452C165.747 127.622 167.348 128.122 169.243 128.122V126.122C167.682 126.122 166.691 125.714 166.079 125.072C165.458 124.42 165.059 123.353 165.059 121.682H163.059ZM206.859 97.1056L206.107 97.7654L206.655 98.3897L207.369 97.9653L206.859 97.1056ZM222.283 96.7216L221.585 97.4386L221.591 97.4437L221.596 97.4486L222.283 96.7216ZM224.587 131.026V132.026H225.587V131.026H224.587ZM219.979 131.026H218.979V132.026H219.979V131.026ZM208.395 100.818L207.873 99.9644L207.194 100.379L207.446 101.134L208.395 100.818ZM208.715 131.026V132.026H209.715V131.026H208.715ZM204.171 131.026H203.171V132.026H204.171V131.026ZM192.907 100.37L192.479 99.4656L191.907 99.7363V100.37H192.907ZM192.907 131.026V132.026H193.907V131.026H192.907ZM188.363 131.026H187.363V132.026H188.363V131.026ZM188.363 94.6096V93.6096H187.363V94.6096H188.363ZM192.715 94.6096H193.715V93.6096H192.715V94.6096ZM192.715 96.2736H191.715V97.7754L193.1 97.1963L192.715 96.2736ZM207.369 97.9653C210.187 96.2911 212.935 95.4816 215.627 95.4816V93.4816C212.515 93.4816 209.418 94.4215 206.348 96.2459L207.369 97.9653ZM215.627 95.4816C218.362 95.4816 220.294 96.1833 221.585 97.4386L222.98 96.0046C221.199 94.2732 218.694 93.4816 215.627 93.4816V95.4816ZM221.596 97.4486C222.881 98.6621 223.587 100.437 223.587 102.93H225.587C225.587 100.046 224.756 97.6825 222.969 95.9946L221.596 97.4486ZM223.587 102.93V131.026H225.587V102.93H223.587ZM224.587 130.026H219.979V132.026H224.587V130.026ZM220.979 131.026V103.378H218.979V131.026H220.979ZM220.979 103.378C220.979 101.666 220.55 100.199 219.518 99.1665C218.485 98.1342 217.018 97.7056 215.307 97.7056V99.7056C216.71 99.7056 217.578 100.056 218.103 100.581C218.628 101.106 218.979 101.974 218.979 103.378H220.979ZM215.307 97.7056C212.789 97.7056 210.307 98.4771 207.873 99.9644L208.916 101.671C211.09 100.342 213.216 99.7056 215.307 99.7056V97.7056ZM207.446 101.134C207.611 101.63 207.715 102.364 207.715 103.378H209.715C209.715 102.258 209.604 101.285 209.343 100.501L207.446 101.134ZM207.715 103.378V131.026H209.715V103.378H207.715ZM208.715 130.026H204.171V132.026H208.715V130.026ZM205.171 131.026V103.378H203.171V131.026H205.171ZM205.171 103.378C205.171 101.663 204.735 100.194 203.689 99.1617C202.645 98.1324 201.164 97.7056 199.435 97.7056V99.7056C200.862 99.7056 201.749 100.058 202.284 100.586C202.817 101.111 203.171 101.978 203.171 103.378H205.171ZM199.435 97.7056C197.245 97.7056 194.922 98.311 192.479 99.4656L193.334 101.274C195.585 100.21 197.614 99.7056 199.435 99.7056V97.7056ZM191.907 100.37V131.026H193.907V100.37H191.907ZM192.907 130.026H188.363V132.026H192.907V130.026ZM189.363 131.026V94.6096H187.363V131.026H189.363ZM188.363 95.6096H192.715V93.6096H188.363V95.6096ZM191.715 94.6096V96.2736H193.715V94.6096H191.715ZM193.1 97.1963C195.887 96.0315 198.247 95.4816 200.203 95.4816V93.4816C197.891 93.4816 195.259 94.1264 192.329 95.351L193.1 97.1963ZM200.203 95.4816C202.893 95.4816 204.806 96.2839 206.107 97.7654L207.61 96.4458C205.839 94.4287 203.315 93.4816 200.203 93.4816V95.4816Z" fill="#E3D3B3"/>
</g>
<g filter="url(#filter1_d_113_221)">
<path d="M42.1469 45.4898C42.1469 42.6738 43.0856 40.4765 44.9629 38.8978C46.8403 37.2765 49.4643 36.4658 52.8349 36.4658C56.2483 36.4658 59.1283 36.8285 61.4749 37.5538V41.9058C59.2563 41.0952 56.5469 40.6898 53.3469 40.6898C48.9523 40.6898 46.7549 42.3538 46.7549 45.6818V48.7538C46.7549 50.2472 47.0323 51.4205 47.5869 52.2738C48.1843 53.1272 49.1656 53.9378 50.5309 54.7058L57.9549 58.8658C61.4109 60.7432 63.1389 63.5805 63.1389 67.3778V70.8338C63.1389 73.7778 62.1363 76.0605 60.1309 77.6818C58.1256 79.3032 55.2243 80.1138 51.4269 80.1138C47.6723 80.1138 44.6856 79.6872 42.4669 78.8338V74.4818C44.9843 75.4205 47.8429 75.8898 51.0429 75.8898C56.0776 75.8898 58.5949 74.1192 58.5949 70.5778V67.8898C58.5949 66.4818 58.3389 65.3725 57.8269 64.5618C57.3149 63.7512 56.3976 62.9832 55.0749 62.2578L47.7149 58.2258C44.0029 56.2205 42.1469 53.2338 42.1469 49.2658V45.4898ZM72.5334 52.2738C72.5334 46.1298 76.1174 43.0578 83.2854 43.0578C85.9308 43.0578 88.1921 43.3565 90.0694 43.9538V48.1138C88.0214 47.5592 85.8028 47.2818 83.4134 47.2818C81.0241 47.2818 79.3601 47.7085 78.4214 48.5618C77.5254 49.3725 77.0774 50.6525 77.0774 52.4018V70.8338C77.0774 72.6258 77.5254 73.9272 78.4214 74.7378C79.3601 75.5485 81.0668 75.9538 83.5414 75.9538C86.0161 75.9538 88.2348 75.6125 90.1974 74.9298V79.2178C87.8934 79.8152 85.5894 80.1138 83.2854 80.1138C76.1174 80.1138 72.5334 77.0845 72.5334 71.0258V52.2738ZM102.691 39.2818C100.856 39.2818 99.9389 38.3005 99.9389 36.3378C99.9389 34.3752 100.856 33.3938 102.691 33.3938C104.568 33.3938 105.507 34.3752 105.507 36.3378C105.507 38.3005 104.568 39.2818 102.691 39.2818ZM100.451 43.6338H104.995V79.7938H100.451V43.6338ZM116.776 70.5138V52.7218C116.776 49.6925 117.629 47.2818 119.336 45.4898C121.085 43.6552 123.709 42.7378 127.208 42.7378C130.707 42.7378 133.288 43.6552 134.952 45.4898C136.659 47.2818 137.512 49.6925 137.512 52.7218V63.8578H121.256V70.3218C121.256 72.2418 121.853 73.6712 123.048 74.6098C124.243 75.5485 126.099 76.0178 128.616 76.0178C131.133 76.0178 133.736 75.6338 136.424 74.8658V79.0898C134.291 79.7725 131.752 80.1138 128.808 80.1138C120.787 80.1138 116.776 76.9138 116.776 70.5138ZM121.256 60.0818H133.16V52.7218C133.16 48.7112 131.176 46.7058 127.208 46.7058C123.24 46.7058 121.256 48.7112 121.256 52.7218V60.0818ZM153.233 45.0418C156.092 43.8472 158.694 43.2498 161.041 43.2498C163.43 43.2498 165.393 43.9965 166.929 45.4898C168.465 46.9405 169.233 49.0098 169.233 51.6978V79.7938H164.689V52.1458C164.689 49.0312 163.11 47.4738 159.953 47.4738C157.948 47.4738 155.772 48.0285 153.425 49.1378V79.7938H148.881V43.3778H153.233V45.0418ZM180.706 52.2738C180.706 46.1298 184.29 43.0578 191.458 43.0578C194.103 43.0578 196.365 43.3565 198.242 43.9538V48.1138C196.194 47.5592 193.975 47.2818 191.586 47.2818C189.197 47.2818 187.533 47.7085 186.594 48.5618C185.698 49.3725 185.25 50.6525 185.25 52.4018V70.8338C185.25 72.6258 185.698 73.9272 186.594 74.7378C187.533 75.5485 189.239 75.9538 191.714 75.9538C194.189 75.9538 196.407 75.6125 198.37 74.9298V79.2178C196.066 79.8152 193.762 80.1138 191.458 80.1138C184.29 80.1138 180.706 77.0845 180.706 71.0258V52.2738ZM207.983 70.5138V52.7218C207.983 49.6925 208.837 47.2818 210.543 45.4898C212.293 43.6552 214.917 42.7378 218.415 42.7378C221.914 42.7378 224.495 43.6552 226.159 45.4898C227.866 47.2818 228.719 49.6925 228.719 52.7218V63.8578H212.463V70.3218C212.463 72.2418 213.061 73.6712 214.255 74.6098C215.45 75.5485 217.306 76.0178 219.823 76.0178C222.341 76.0178 224.943 75.6338 227.631 74.8658V79.0898C225.498 79.7725 222.959 80.1138 220.015 80.1138C211.994 80.1138 207.983 76.9138 207.983 70.5138ZM212.463 60.0818H224.367V52.7218C224.367 48.7112 222.383 46.7058 218.415 46.7058C214.447 46.7058 212.463 48.7112 212.463 52.7218V60.0818Z" fill="#E3D3B3"/>
<path d="M44.9629 38.8978L45.6066 39.6632L45.6165 39.6546L44.9629 38.8978ZM61.4749 37.5538H62.4749V36.8162L61.7702 36.5984L61.4749 37.5538ZM61.4749 41.9058L61.1317 42.8451L62.4749 43.3359V41.9058H61.4749ZM47.5869 52.2738L46.7485 52.8188L46.7578 52.8332L46.7677 52.8473L47.5869 52.2738ZM50.5309 54.7058L50.0407 55.5774L50.0421 55.5782L50.5309 54.7058ZM57.9549 58.8658L57.466 59.7383L57.4776 59.7445L57.9549 58.8658ZM60.1309 77.6818L60.7596 78.4595L60.7596 78.4595L60.1309 77.6818ZM42.4669 78.8338H41.4669V79.5206L42.1079 79.7672L42.4669 78.8338ZM42.4669 74.4818L42.8163 73.5448L41.4669 73.0417V74.4818H42.4669ZM57.8269 64.5618L56.9814 65.0958L56.9814 65.0958L57.8269 64.5618ZM55.0749 62.2578L55.5558 61.381L55.5554 61.3808L55.0749 62.2578ZM47.7149 58.2258L48.1954 57.3488L48.1902 57.346L47.7149 58.2258ZM43.1469 45.4898C43.1469 42.9202 43.99 41.0225 45.6065 39.6632L44.3193 38.1325C42.1812 39.9304 41.1469 42.4274 41.1469 45.4898H43.1469ZM45.6165 39.6546C47.256 38.2387 49.6177 37.4658 52.8349 37.4658V35.4658C49.3108 35.4658 46.4245 36.3142 44.3093 38.141L45.6165 39.6546ZM52.8349 37.4658C56.184 37.4658 58.9577 37.8225 61.1796 38.5092L61.7702 36.5984C59.2988 35.8345 56.3125 35.4658 52.8349 35.4658V37.4658ZM60.4749 37.5538V41.9058H62.4749V37.5538H60.4749ZM61.8181 40.9666C59.4581 40.1043 56.6252 39.6898 53.3469 39.6898V41.6898C56.4687 41.6898 59.0544 42.0861 61.1317 42.8451L61.8181 40.9666ZM53.3469 39.6898C51.0519 39.6898 49.1478 40.1193 47.7992 41.1406C46.3981 42.2016 45.7549 43.7774 45.7549 45.6818H47.7549C47.7549 44.2582 48.2104 43.338 49.0066 42.735C49.8553 42.0923 51.2473 41.6898 53.3469 41.6898V39.6898ZM45.7549 45.6818V48.7538H47.7549V45.6818H45.7549ZM45.7549 48.7538C45.7549 50.3553 46.0499 51.7441 46.7485 52.8188L48.4254 51.7288C48.0146 51.0969 47.7549 50.139 47.7549 48.7538H45.7549ZM46.7677 52.8473C47.4832 53.8695 48.6048 54.7697 50.0407 55.5774L51.0212 53.8342C49.7264 53.1059 48.8853 52.3848 48.4062 51.7004L46.7677 52.8473ZM50.0421 55.5782L57.4661 59.7382L58.4438 57.9934L51.0198 53.8334L50.0421 55.5782ZM57.4776 59.7445C59.0792 60.6146 60.2322 61.6796 60.9888 62.922C61.7444 64.1625 62.1389 65.6359 62.1389 67.3778H64.1389C64.1389 65.3225 63.6695 63.4785 62.697 61.8817C61.7256 60.2867 60.2866 58.9944 58.4323 57.9871L57.4776 59.7445ZM62.1389 67.3778V70.8338H64.1389V67.3778H62.1389ZM62.1389 70.8338C62.1389 73.524 61.2376 75.5011 59.5022 76.9042L60.7596 78.4595C63.0349 76.6199 64.1389 74.0316 64.1389 70.8338H62.1389ZM59.5022 76.9042C57.7419 78.3274 55.0999 79.1138 51.4269 79.1138V81.1138C55.3486 81.1138 58.5093 80.2789 60.7596 78.4595L59.5022 76.9042ZM51.4269 79.1138C47.7321 79.1138 44.8832 78.6917 42.8259 77.9005L42.1079 79.7672C44.488 80.6826 47.6124 81.1138 51.4269 81.1138V79.1138ZM43.4669 78.8338V74.4818H41.4669V78.8338H43.4669ZM42.1175 75.4188C44.7657 76.4063 47.7459 76.8898 51.0429 76.8898V74.8898C47.94 74.8898 45.2028 74.4347 42.8163 73.5448L42.1175 75.4188ZM51.0429 76.8898C53.6469 76.8898 55.7785 76.4374 57.2822 75.3798C58.8503 74.2768 59.5949 72.6175 59.5949 70.5778H57.5949C57.5949 72.0795 57.0809 73.0761 56.1316 73.7439C55.118 74.4569 53.4736 74.8898 51.0429 74.8898V76.8898ZM59.5949 70.5778V67.8898H57.5949V70.5778H59.5949ZM59.5949 67.8898C59.5949 66.3761 59.3221 65.0566 58.6724 64.0278L56.9814 65.0958C57.3557 65.6884 57.5949 66.5875 57.5949 67.8898H59.5949ZM58.6724 64.0278C58.0323 63.0143 56.9499 62.1456 55.5558 61.381L54.5941 63.1346C55.8453 63.8208 56.5975 64.488 56.9814 65.0958L58.6724 64.0278ZM55.5554 61.3808L48.1954 57.3488L47.2345 59.1028L54.5945 63.1348L55.5554 61.3808ZM48.1902 57.346C46.4568 56.4096 45.2076 55.2724 44.3883 53.954C43.571 52.6388 43.1469 51.0879 43.1469 49.2658H41.1469C41.1469 51.4118 41.6509 53.3382 42.6896 55.0096C43.7262 56.6779 45.261 58.0368 47.2396 59.1056L48.1902 57.346ZM43.1469 49.2658V45.4898H41.1469V49.2658H43.1469ZM90.0694 43.9538H91.0694V43.2226L90.3726 43.0009L90.0694 43.9538ZM90.0694 48.1138L89.808 49.079L91.0694 49.4207V48.1138H90.0694ZM78.4214 48.5618L79.0923 49.3034L79.0941 49.3018L78.4214 48.5618ZM78.4214 74.7378L77.7505 75.4794L77.7591 75.4871L77.7678 75.4946L78.4214 74.7378ZM90.1974 74.9298H91.1974V73.5232L89.8689 73.9853L90.1974 74.9298ZM90.1974 79.2178L90.4484 80.1858L91.1974 79.9916V79.2178H90.1974ZM73.5334 52.2738C73.5334 49.3997 74.3645 47.4134 75.8722 46.1211C77.4094 44.8035 79.8211 44.0578 83.2854 44.0578V42.0578C79.5818 42.0578 76.6174 42.8482 74.5706 44.6026C72.4943 46.3822 71.5334 49.004 71.5334 52.2738H73.5334ZM83.2854 44.0578C85.8607 44.0578 88.014 44.3492 89.7662 44.9067L90.3726 43.0009C88.3702 42.3638 86.0008 42.0578 83.2854 42.0578V44.0578ZM89.0694 43.9538V48.1138H91.0694V43.9538H89.0694ZM90.3308 47.1486C88.1877 46.5682 85.8801 46.2818 83.4134 46.2818V48.2818C85.7254 48.2818 87.8552 48.5502 89.808 49.079L90.3308 47.1486ZM83.4134 46.2818C80.9691 46.2818 78.9769 46.7054 77.7487 47.8219L79.0941 49.3018C79.7433 48.7116 81.079 48.2818 83.4134 48.2818V46.2818ZM77.7505 47.8203C76.5654 48.8925 76.0774 50.4987 76.0774 52.4018H78.0774C78.0774 50.8062 78.4854 49.8525 79.0923 49.3034L77.7505 47.8203ZM76.0774 52.4018V70.8338H78.0774V52.4018H76.0774ZM76.0774 70.8338C76.0774 72.7707 76.561 74.4031 77.7505 75.4794L79.0923 73.9963C78.4899 73.4512 78.0774 72.4809 78.0774 70.8338H76.0774ZM77.7678 75.4946C78.9983 76.5574 81.0302 76.9538 83.5414 76.9538V74.9538C81.1033 74.9538 79.7218 74.5396 79.075 73.981L77.7678 75.4946ZM83.5414 76.9538C86.1072 76.9538 88.4397 76.6 90.5259 75.8743L89.8689 73.9853C88.0298 74.625 85.925 74.9538 83.5414 74.9538V76.9538ZM89.1974 74.9298V79.2178H91.1974V74.9298H89.1974ZM89.9465 78.2498C87.7217 78.8266 85.502 79.1138 83.2854 79.1138V81.1138C85.6769 81.1138 88.0651 80.8037 90.4484 80.1858L89.9465 78.2498ZM83.2854 79.1138C79.8184 79.1138 77.4045 78.3777 75.867 77.0781C74.3616 75.8057 73.5334 73.8528 73.5334 71.0258H71.5334C71.5334 74.2575 72.4972 76.8486 74.5759 78.6056C76.6224 80.3353 79.5845 81.1138 83.2854 81.1138V79.1138ZM73.5334 71.0258V52.2738H71.5334V71.0258H73.5334ZM100.451 43.6338V42.6338H99.4509V43.6338H100.451ZM104.995 43.6338H105.995V42.6338H104.995V43.6338ZM104.995 79.7938V80.7938H105.995V79.7938H104.995ZM100.451 79.7938H99.4509V80.7938H100.451V79.7938ZM102.691 38.2818C101.946 38.2818 101.566 38.0857 101.357 37.8629C101.137 37.6275 100.939 37.1812 100.939 36.3378H98.9389C98.9389 37.4572 99.1992 38.4828 99.8964 39.2287C100.605 39.9873 101.602 40.2818 102.691 40.2818V38.2818ZM100.939 36.3378C100.939 35.4945 101.137 35.0482 101.357 34.8127C101.566 34.5899 101.946 34.3938 102.691 34.3938V32.3938C101.602 32.3938 100.605 32.6884 99.8964 33.4469C99.1992 34.1928 98.9389 35.2185 98.9389 36.3378H100.939ZM102.691 34.3938C103.464 34.3938 103.863 34.5936 104.08 34.821C104.306 35.0568 104.507 35.4998 104.507 36.3378H106.507C106.507 35.2132 106.239 34.1841 105.526 33.4386C104.804 32.6848 103.795 32.3938 102.691 32.3938V34.3938ZM104.507 36.3378C104.507 37.1758 104.306 37.6188 104.08 37.8546C103.863 38.0821 103.464 38.2818 102.691 38.2818V40.2818C103.795 40.2818 104.804 39.9909 105.526 39.237C106.239 38.4915 106.507 37.4625 106.507 36.3378H104.507ZM100.451 44.6338H104.995V42.6338H100.451V44.6338ZM103.995 43.6338V79.7938H105.995V43.6338H103.995ZM104.995 78.7938H100.451V80.7938H104.995V78.7938ZM101.451 79.7938V43.6338H99.4509V79.7938H101.451ZM119.336 45.4898L118.612 44.7997L118.612 44.8002L119.336 45.4898ZM134.952 45.4898L134.211 46.1616L134.219 46.1707L134.228 46.1795L134.952 45.4898ZM137.512 63.8578V64.8578H138.512V63.8578H137.512ZM121.256 63.8578V62.8578H120.256V63.8578H121.256ZM123.048 74.6098L122.43 75.3961L122.43 75.3961L123.048 74.6098ZM136.424 74.8658H137.424V73.5401L136.149 73.9043L136.424 74.8658ZM136.424 79.0898L136.729 80.0422L137.424 79.8198V79.0898H136.424ZM121.256 60.0818H120.256V61.0818H121.256V60.0818ZM133.16 60.0818V61.0818H134.16V60.0818H133.16ZM117.776 70.5138V52.7218H115.776V70.5138H117.776ZM117.776 52.7218C117.776 49.8885 118.568 47.7458 120.06 46.1795L118.612 44.8002C116.69 46.8179 115.776 49.4965 115.776 52.7218H117.776ZM120.06 46.1799C121.557 44.6091 123.876 43.7378 127.208 43.7378V41.7378C123.543 41.7378 120.613 42.7012 118.612 44.7997L120.06 46.1799ZM127.208 43.7378C130.544 43.7378 132.804 44.6106 134.211 46.1616L135.693 44.818C133.771 42.6997 130.869 41.7378 127.208 41.7378V43.7378ZM134.228 46.1795C135.719 47.7458 136.512 49.8885 136.512 52.7218H138.512C138.512 49.4965 137.598 46.8179 135.676 44.8002L134.228 46.1795ZM136.512 52.7218V63.8578H138.512V52.7218H136.512ZM137.512 62.8578H121.256V64.8578H137.512V62.8578ZM120.256 63.8578V70.3218H122.256V63.8578H120.256ZM120.256 70.3218C120.256 72.46 120.932 74.2191 122.43 75.3961L123.666 73.8235C122.774 73.1232 122.256 72.0236 122.256 70.3218H120.256ZM122.43 75.3961C123.884 76.5383 126.01 77.0178 128.616 77.0178V75.0178C126.188 75.0178 124.601 74.5586 123.666 73.8235L122.43 75.3961ZM128.616 77.0178C131.236 77.0178 133.931 76.6181 136.699 75.8273L136.149 73.9043C133.541 74.6496 131.031 75.0178 128.616 75.0178V77.0178ZM135.424 74.8658V79.0898H137.424V74.8658H135.424ZM136.119 78.1374C134.11 78.7804 131.679 79.1138 128.808 79.1138V81.1138C131.825 81.1138 134.471 80.7646 136.729 80.0422L136.119 78.1374ZM128.808 79.1138C124.904 79.1138 122.16 78.3306 120.408 76.9321C118.698 75.568 117.776 73.4922 117.776 70.5138H115.776C115.776 73.9355 116.859 76.6596 119.16 78.4955C121.418 80.297 124.691 81.1138 128.808 81.1138V79.1138ZM121.256 61.0818H133.16V59.0818H121.256V61.0818ZM134.16 60.0818V52.7218H132.16V60.0818H134.16ZM134.16 52.7218C134.16 50.565 133.626 48.7632 132.383 47.5065C131.138 46.2478 129.349 45.7058 127.208 45.7058V47.7058C129.035 47.7058 130.222 48.1665 130.961 48.9131C131.702 49.6618 132.16 50.868 132.16 52.7218H134.16ZM127.208 45.7058C125.067 45.7058 123.278 46.2478 122.033 47.5065C120.79 48.7632 120.256 50.565 120.256 52.7218H122.256C122.256 50.868 122.714 49.6618 123.455 48.9131C124.194 48.1665 125.381 47.7058 127.208 47.7058V45.7058ZM120.256 52.7218V60.0818H122.256V52.7218H120.256ZM153.233 45.0418H152.233V46.5435L153.619 45.9645L153.233 45.0418ZM166.929 45.4898L166.232 46.2068L166.237 46.2119L166.242 46.2168L166.929 45.4898ZM169.233 79.7938V80.7938H170.233V79.7938H169.233ZM164.689 79.7938H163.689V80.7938H164.689V79.7938ZM153.425 49.1378L152.998 48.2337L152.425 48.5044V49.1378H153.425ZM153.425 79.7938V80.7938H154.425V79.7938H153.425ZM148.881 79.7938H147.881V80.7938H148.881V79.7938ZM148.881 43.3778V42.3778H147.881V43.3778H148.881ZM153.233 43.3778H154.233V42.3778H153.233V43.3778ZM153.619 45.9645C156.392 44.8054 158.862 44.2498 161.041 44.2498V42.2498C158.527 42.2498 155.791 42.889 152.847 44.1192L153.619 45.9645ZM161.041 44.2498C163.203 44.2498 164.905 44.9166 166.232 46.2068L167.626 44.7728C165.881 43.0764 163.658 42.2498 161.041 42.2498V44.2498ZM166.242 46.2168C167.527 47.4302 168.233 49.2056 168.233 51.6978H170.233C170.233 48.8141 169.403 46.4507 167.616 44.7628L166.242 46.2168ZM168.233 51.6978V79.7938H170.233V51.6978H168.233ZM169.233 78.7938H164.689V80.7938H169.233V78.7938ZM165.689 79.7938V52.1458H163.689V79.7938H165.689ZM165.689 52.1458C165.689 50.4309 165.253 48.9618 164.207 47.9299C163.164 46.9006 161.682 46.4738 159.953 46.4738V48.4738C161.381 48.4738 162.267 48.8257 162.803 49.3537C163.335 49.8792 163.689 50.7461 163.689 52.1458H165.689ZM159.953 46.4738C157.763 46.4738 155.44 47.0791 152.998 48.2337L153.852 50.0419C156.103 48.9778 158.132 48.4738 159.953 48.4738V46.4738ZM152.425 49.1378V79.7938H154.425V49.1378H152.425ZM153.425 78.7938H148.881V80.7938H153.425V78.7938ZM149.881 79.7938V43.3778H147.881V79.7938H149.881ZM148.881 44.3778H153.233V42.3778H148.881V44.3778ZM152.233 43.3778V45.0418H154.233V43.3778H152.233ZM198.242 43.9538H199.242V43.2226L198.545 43.0009L198.242 43.9538ZM198.242 48.1138L197.981 49.079L199.242 49.4207V48.1138H198.242ZM186.594 48.5618L187.265 49.3034L187.267 49.3018L186.594 48.5618ZM186.594 74.7378L185.923 75.4794L185.932 75.4871L185.94 75.4946L186.594 74.7378ZM198.37 74.9298H199.37V73.5232L198.041 73.9853L198.37 74.9298ZM198.37 79.2178L198.621 80.1858L199.37 79.9916V79.2178H198.37ZM181.706 52.2738C181.706 49.3997 182.537 47.4134 184.045 46.1211C185.582 44.8035 187.994 44.0578 191.458 44.0578V42.0578C187.754 42.0578 184.79 42.8482 182.743 44.6026C180.667 46.3822 179.706 49.004 179.706 52.2738H181.706ZM191.458 44.0578C194.033 44.0578 196.186 44.3492 197.939 44.9067L198.545 43.0009C196.543 42.3638 194.173 42.0578 191.458 42.0578V44.0578ZM197.242 43.9538V48.1138H199.242V43.9538H197.242ZM198.503 47.1486C196.36 46.5682 194.053 46.2818 191.586 46.2818V48.2818C193.898 48.2818 196.028 48.5502 197.981 49.079L198.503 47.1486ZM191.586 46.2818C189.142 46.2818 187.149 46.7054 185.921 47.8219L187.267 49.3018C187.916 48.7116 189.252 48.2818 191.586 48.2818V46.2818ZM185.923 47.8203C184.738 48.8925 184.25 50.4987 184.25 52.4018H186.25C186.25 50.8062 186.658 49.8525 187.265 49.3034L185.923 47.8203ZM184.25 52.4018V70.8338H186.25V52.4018H184.25ZM184.25 70.8338C184.25 72.7707 184.733 74.4031 185.923 75.4794L187.265 73.9963C186.662 73.4512 186.25 72.4809 186.25 70.8338H184.25ZM185.94 75.4946C187.171 76.5574 189.203 76.9538 191.714 76.9538V74.9538C189.276 74.9538 187.894 74.5396 187.248 73.981L185.94 75.4946ZM191.714 76.9538C194.28 76.9538 196.612 76.6 198.698 75.8743L198.041 73.9853C196.202 74.625 194.098 74.9538 191.714 74.9538V76.9538ZM197.37 74.9298V79.2178H199.37V74.9298H197.37ZM198.119 78.2498C195.894 78.8266 193.674 79.1138 191.458 79.1138V81.1138C193.849 81.1138 196.238 80.8037 198.621 80.1858L198.119 78.2498ZM191.458 79.1138C187.991 79.1138 185.577 78.3777 184.039 77.0781C182.534 75.8057 181.706 73.8528 181.706 71.0258H179.706C179.706 74.2575 180.67 76.8486 182.748 78.6056C184.795 80.3353 187.757 81.1138 191.458 81.1138V79.1138ZM181.706 71.0258V52.2738H179.706V71.0258H181.706ZM210.543 45.4898L209.82 44.7997L209.819 44.8002L210.543 45.4898ZM226.159 45.4898L225.419 46.1616L225.427 46.1707L225.435 46.1795L226.159 45.4898ZM228.719 63.8578V64.8578H229.719V63.8578H228.719ZM212.463 63.8578V62.8578H211.463V63.8578H212.463ZM214.255 74.6098L213.638 75.3961L213.638 75.3961L214.255 74.6098ZM227.631 74.8658H228.631V73.5401L227.357 73.9043L227.631 74.8658ZM227.631 79.0898L227.936 80.0422L228.631 79.8198V79.0898H227.631ZM212.463 60.0818H211.463V61.0818H212.463V60.0818ZM224.367 60.0818V61.0818H225.367V60.0818H224.367ZM208.983 70.5138V52.7218H206.983V70.5138H208.983ZM208.983 52.7218C208.983 49.8885 209.776 47.7458 211.268 46.1795L209.819 44.8002C207.898 46.8179 206.983 49.4965 206.983 52.7218H208.983ZM211.267 46.1799C212.765 44.6091 215.083 43.7378 218.415 43.7378V41.7378C214.75 41.7378 211.821 42.7012 209.82 44.7997L211.267 46.1799ZM218.415 43.7378C221.752 43.7378 224.012 44.6106 225.419 46.1616L226.9 44.818C224.979 42.6997 222.077 41.7378 218.415 41.7378V43.7378ZM225.435 46.1795C226.927 47.7458 227.719 49.8885 227.719 52.7218H229.719C229.719 49.4965 228.805 46.8179 226.884 44.8002L225.435 46.1795ZM227.719 52.7218V63.8578H229.719V52.7218H227.719ZM228.719 62.8578H212.463V64.8578H228.719V62.8578ZM211.463 63.8578V70.3218H213.463V63.8578H211.463ZM211.463 70.3218C211.463 72.46 212.14 74.2191 213.638 75.3961L214.873 73.8235C213.982 73.1232 213.463 72.0236 213.463 70.3218H211.463ZM213.638 75.3961C215.091 76.5383 217.217 77.0178 219.823 77.0178V75.0178C217.395 75.0178 215.809 74.5586 214.873 73.8235L213.638 75.3961ZM219.823 77.0178C222.443 77.0178 225.139 76.6181 227.906 75.8273L227.357 73.9043C224.748 74.6496 222.238 75.0178 219.823 75.0178V77.0178ZM226.631 74.8658V79.0898H228.631V74.8658H226.631ZM227.327 78.1374C225.317 78.7804 222.887 79.1138 220.015 79.1138V81.1138C223.032 81.1138 225.679 80.7646 227.936 80.0422L227.327 78.1374ZM220.015 79.1138C216.111 79.1138 213.368 78.3306 211.615 76.9321C209.905 75.568 208.983 73.4922 208.983 70.5138H206.983C206.983 73.9355 208.067 76.6596 210.368 78.4955C212.626 80.297 215.898 81.1138 220.015 81.1138V79.1138ZM212.463 61.0818H224.367V59.0818H212.463V61.0818ZM225.367 60.0818V52.7218H223.367V60.0818H225.367ZM225.367 52.7218C225.367 50.565 224.834 48.7632 223.59 47.5065C222.345 46.2478 220.556 45.7058 218.415 45.7058V47.7058C220.243 47.7058 221.43 48.1665 222.169 48.9131C222.909 49.6618 223.367 50.868 223.367 52.7218H225.367ZM218.415 45.7058C216.275 45.7058 214.486 46.2478 213.241 47.5065C211.997 48.7632 211.463 50.565 211.463 52.7218H213.463C213.463 50.868 213.922 49.6618 214.662 48.9131C215.401 48.1665 216.588 47.7058 218.415 47.7058V45.7058ZM211.463 52.7218V60.0818H213.463V52.7218H211.463Z" fill="#E3D3B3"/>
</g>
<path d="M127.2 26.6597C127.194 24.7664 128.391 23.8159 130.791 23.8082C131.564 23.8057 132.338 23.9099 133.112 24.1208L133.116 25.4408C132.329 25.2166 131.542 25.1058 130.755 25.1083C129.969 25.1109 129.416 25.2526 129.097 25.5336C128.777 25.8013 128.619 26.2018 128.62 26.7352L128.645 34.5551C128.647 35.0751 128.808 35.4746 129.129 35.7536C129.463 36.0192 130.037 36.1507 130.851 36.1481C131.677 36.1454 132.457 36.0363 133.189 35.8206L133.194 37.1206C132.528 37.3361 131.741 37.4452 130.835 37.4481C128.435 37.4558 127.232 36.513 127.226 34.6197L127.2 26.6597ZM143.405 26.8679C143.401 25.6012 142.739 24.97 141.419 24.9742C140.112 24.9784 139.461 25.6138 139.465 26.8805L139.489 34.3204C139.493 35.6004 140.148 36.2383 141.455 36.2342C142.775 36.2299 143.433 35.5878 143.429 34.3078L143.405 26.8679ZM138.045 26.865C138.042 25.9184 138.326 25.1508 138.898 24.5623C139.469 23.9738 140.308 23.6778 141.415 23.6742C142.535 23.6706 143.382 23.9613 143.958 24.5461C144.533 25.1309 144.822 25.8967 144.825 26.8433L144.849 34.3433C144.852 35.29 144.568 36.0575 143.996 36.646C143.425 37.2212 142.579 37.5106 141.459 37.5142C140.339 37.5177 139.492 37.2338 138.916 36.6623C138.354 36.0774 138.072 35.3116 138.069 34.365L138.045 26.865ZM159.809 23.8154L159.852 37.2553L158.492 37.2597L158.469 30.1797C158.465 28.8064 158.501 27.4796 158.577 26.1993L155.861 33.6881L154.361 33.6929L151.557 26.2218C151.654 27.4615 151.705 28.7813 151.709 30.1813L151.732 37.2813L150.392 37.2856L150.349 23.8456L152.029 23.8403L155.096 32.2505L158.109 23.8208L159.809 23.8154ZM175.009 23.7668L175.052 37.2067L173.692 37.211L173.669 30.1311C173.665 28.7577 173.7 27.431 173.776 26.1507L171.06 33.6394L169.56 33.6442L166.756 26.1732C166.854 27.4129 166.904 28.7327 166.909 30.1327L166.932 37.2327L165.592 37.2369L165.549 23.797L167.229 23.7916L170.296 32.2019L173.309 23.7722L175.009 23.7668ZM185.988 23.7316L187.408 23.7271L187.442 34.207C187.445 35.1537 187.161 35.9213 186.589 36.5098C186.031 37.0849 185.192 37.3742 184.072 37.3778C182.952 37.3814 182.104 37.0975 181.529 36.526C180.967 35.9411 180.685 35.1753 180.682 34.2287L180.648 23.7487L182.068 23.7442L182.102 34.1841C182.106 35.4641 182.761 36.102 184.068 36.0978C185.374 36.0937 186.026 35.4516 186.022 34.1716L185.988 23.7316ZM199.033 34.8499L198.879 30.4304L198.858 23.6905L200.278 23.6859L200.321 37.1258L198.681 37.1311L195.898 30.18C195.791 29.9003 195.26 28.5087 194.305 26.005L194.439 30.4046L194.461 37.1446L193.081 37.149L193.038 23.7091L194.678 23.7038C196.815 29.0837 198.267 32.7991 199.033 34.8499ZM206.011 23.6676L207.431 23.663L207.474 37.103L206.054 37.1075L206.011 23.6676ZM218.603 23.6273L218.607 24.8873L216.007 24.8956L216.046 37.0755L214.606 37.0801L214.567 24.9002L211.967 24.9085L211.963 23.6485L218.603 23.6273ZM226.591 37.0418L225.172 37.0463L225.157 32.5064L221.829 23.617L223.289 23.6123L224.66 27.2679C224.714 27.4144 225.125 28.6064 225.892 30.844C226.38 29.3091 227.219 26.8931 228.408 23.5959L229.848 23.5913L226.577 32.5018L226.591 37.0418Z" fill="#E3D3B3"/>
<defs>
<filter id="filter0_d_113_221" x="38.4125" y="88.0176" width="190.174" height="51.328" filterUnits="userSpaceOnUse" color-interpolation-filters="sRGB">
<feFlood flood-opacity="0" result="BackgroundImageFix"/>
<feColorMatrix in="SourceAlpha" type="matrix" values="0 0 0 0 0 0 0 0 0 0 0 0 0 0 0 0 0 0 127 0" result="hardAlpha"/>
<feOffset dy="4"/>
<feGaussianBlur stdDeviation="2"/>
<feComposite in2="hardAlpha" operator="out"/>
<feColorMatrix type="matrix" values="0 0 0 0 0 0 0 0 0 0 0 0 0 0 0 0 0 0 1 0"/>
<feBlend mode="normal" in2="BackgroundImageFix" result="effect1_dropShadow_113_221"/>
<feBlend mode="normal" in="SourceGraphic" in2="effect1_dropShadow_113_221" result="shape"/>
</filter>
<filter id="filter1_d_113_221" x="38.1469" y="33.3938" width="194.572" height="54.72" filterUnits="userSpaceOnUse" color-interpolation-filters="sRGB">
<feFlood flood-opacity="0" result="BackgroundImageFix"/>
<feColorMatrix in="SourceAlpha" type="matrix" values="0 0 0 0 0 0 0 0 0 0 0 0 0 0 0 0 0 0 127 0" result="hardAlpha"/>
<feOffset dy="4"/>
<feGaussianBlur stdDeviation="2"/>
<feComposite in2="hardAlpha" operator="out"/>
<feColorMatrix type="matrix" values="0 0 0 0 0 0 0 0 0 0 0 0 0 0 0 0 0 0 1 0"/>
<feBlend mode="normal" in2="BackgroundImageFix" result="effect1_dropShadow_113_221"/>
<feBlend mode="normal" in="SourceGraphic" in2="effect1_dropShadow_113_221" result="shape"/>
</filter>
</defs>
</svg>
