<svg width="302" height="154" viewBox="0 0 302 154" fill="none" xmlns="http://www.w3.org/2000/svg">
<path d="M65.2801 23.3544C70.0767 23.3544 73.965 19.466 73.965 14.6695C73.965 9.87293 70.0767 5.98456 65.2801 5.98456C60.4836 5.98456 56.5952 9.87293 56.5952 14.6695C56.5952 19.466 60.4836 23.3544 65.2801 23.3544Z" fill="#3E67C5"/>
<path d="M105.882 63.9557C110.678 63.9557 114.566 60.0673 114.566 55.2708C114.566 50.4742 110.678 46.5859 105.882 46.5859C101.085 46.5859 97.1966 50.4742 97.1966 55.2708C97.1966 60.0673 101.085 63.9557 105.882 63.9557Z" fill="#3E67C5"/>
<path d="M83.0431 112.169C87.8396 112.169 91.728 108.281 91.728 103.484C91.728 98.6876 87.8396 94.7993 83.0431 94.7993C78.2465 94.7993 74.3582 98.6876 74.3582 103.484C74.3582 108.281 78.2465 112.169 83.0431 112.169Z" fill="#3E67C5"/>
<path d="M13.2608 89.3307C18.0573 89.3307 21.9457 85.4423 21.9457 80.6458C21.9457 75.8492 18.0573 71.9609 13.2608 71.9609C8.46423 71.9609 4.57587 75.8492 4.57587 80.6458C4.57587 85.4423 8.46423 89.3307 13.2608 89.3307Z" fill="#3E67C5"/>
<path d="M65.7201 96.725C65.402 96.6254 65.0675 96.5896 64.7355 96.6195C64.4036 96.6494 64.0809 96.7445 63.7858 96.8994C63.4907 97.0543 63.2291 97.2659 63.0159 97.5221C62.8027 97.7782 62.6422 98.074 62.5435 98.3923C62.4442 98.7103 62.4086 99.0448 62.4387 99.3767C62.4687 99.7085 62.5639 100.031 62.7188 100.326C62.8736 100.621 63.0851 100.883 63.3411 101.096C63.5971 101.309 63.8926 101.47 64.2108 101.569L69.3003 103.153C69.3424 101.391 69.7063 99.7062 70.3544 98.1665L65.7201 96.725V96.725ZM14.9315 66.9989L14.6297 63.3824C13.3906 63.7498 12.0814 63.9557 10.7242 63.9557C10.3381 63.9557 9.95787 63.9288 9.57996 63.8972L9.86661 67.3276C10.9547 67.0503 12.0884 66.8865 13.2619 66.8865C13.8271 66.8865 14.3828 66.9322 14.9315 66.9989ZM94.0235 86.828C94.2753 86.2169 94.2788 85.5317 94.0333 84.918C93.7879 84.3043 93.3127 83.8106 92.709 83.5417C92.1052 83.2728 91.4204 83.2499 90.8 83.478C90.1796 83.706 89.6727 84.167 89.3868 84.763L86.9251 90.2912C88.5854 90.7803 90.1111 91.5782 91.4472 92.6137L94.0235 86.828V86.828ZM29.1342 85.3363L26.4595 84.5032C25.9711 86.1654 25.1724 87.72 24.1055 89.0849L27.626 90.1812C28.2602 90.353 28.9362 90.2722 29.512 89.9559C30.0878 89.6396 30.5186 89.1125 30.7139 88.4852C30.9091 87.8579 30.8536 87.1794 30.559 86.5922C30.2645 86.0049 29.7537 85.5548 29.1342 85.3363V85.3363ZM48.0765 26.4116C47.9065 26.1249 47.6816 25.8746 47.4149 25.6749C47.1481 25.4751 46.8445 25.33 46.5216 25.2476C46.1987 25.1652 45.8627 25.1473 45.5328 25.1949C45.203 25.2424 44.8857 25.3545 44.5992 25.5247L33.6164 32.0463C33.0615 32.4012 32.6662 32.9579 32.5141 33.5988C32.362 34.2397 32.4649 34.9146 32.8011 35.4811C33.1373 36.0475 33.6805 36.4611 34.316 36.6345C34.9515 36.8079 35.6295 36.7275 36.2068 36.4104L47.1896 29.8888C47.768 29.545 48.1863 28.9857 48.3526 28.3337C48.5189 27.6817 48.4196 26.9904 48.0765 26.4116ZM53.5252 92.9284L41.3302 89.1317C40.6947 88.9547 40.0151 89.0322 39.4356 89.3477C38.8562 89.6632 38.4224 90.192 38.2263 90.822C38.0301 91.452 38.087 92.1336 38.385 92.7223C38.6829 93.311 39.1984 93.7605 39.8221 93.9755L52.017 97.7722C52.6497 97.9399 53.3228 97.8567 53.8956 97.54C54.4685 97.2234 54.8969 96.6977 55.0915 96.0728C55.2861 95.4478 55.2318 94.7718 54.9399 94.186C54.6481 93.6001 54.1412 93.1495 53.5252 92.9284ZM76.6631 25.1948L84.6565 33.7393C84.884 33.9831 85.1573 34.1796 85.4608 34.3176C85.7643 34.4556 86.0921 34.5323 86.4253 34.5434C86.7586 34.5545 87.0908 34.4997 87.4028 34.3822C87.7148 34.2647 88.0006 34.0868 88.2437 33.8586C88.7348 33.3988 89.0234 32.7629 89.046 32.0905C89.0686 31.4181 88.8234 30.7643 88.3642 30.2726L79.9086 21.2343C79.082 22.7445 77.9814 24.0875 76.6631 25.1948V25.1948ZM94.5851 73.0957C94.4347 73.4022 94.3476 73.7359 94.329 74.0768C94.3105 74.4177 94.3609 74.7589 94.4773 75.0799C94.5937 75.4009 94.7736 75.6951 95.0063 75.9449C95.2389 76.1948 95.5196 76.3951 95.8315 76.534C96.1434 76.6729 96.4801 76.7474 96.8215 76.7531C97.1629 76.7589 97.5019 76.6957 97.8183 76.5674C98.1347 76.4391 98.422 76.2483 98.6629 76.0064C98.9039 75.7645 99.0936 75.4765 99.2207 75.1596L102.182 68.5105C100.538 68.0494 98.9939 67.2847 97.6306 66.2559L94.5851 73.0957V73.0957ZM100.089 42.8068L97.0878 39.5998C96.8601 39.3565 96.5868 39.1604 96.2834 39.0228C95.98 38.8851 95.6525 38.8085 95.3195 38.7974C94.9865 38.7864 94.6545 38.841 94.3426 38.9582C94.0308 39.0754 93.745 39.2528 93.5017 39.4805C93.2584 39.7081 93.0623 39.9814 92.9247 40.2848C92.787 40.5882 92.7104 40.9158 92.6994 41.2488C92.6883 41.5818 92.7429 41.9137 92.8601 42.2256C92.9773 42.5375 93.1548 42.8232 93.3824 43.0665L95.9318 45.7914C97.12 44.547 98.5298 43.5348 100.089 42.8068V42.8068ZM23.0888 44.2002L25.2252 42.932C25.7801 42.5771 26.1754 42.0204 26.3275 41.3795C26.4797 40.7386 26.3768 40.0636 26.0405 39.4972C25.7043 38.9307 25.1611 38.5171 24.5256 38.3437C23.8901 38.1703 23.2121 38.2507 22.6348 38.5679L20.0468 40.1052C21.3064 41.2694 22.338 42.6581 23.0888 44.2002V44.2002ZM103.986 50.6856L102.926 51.6473L102.121 52.4055L103.986 50.6856Z" fill="#3E67C5"/>
<path d="M10.7231 58.8803C15.5196 58.8803 19.408 54.9919 19.408 50.1953C19.408 45.3988 15.5196 41.5104 10.7231 41.5104C5.92651 41.5104 2.03815 45.3988 2.03815 50.1953C2.03815 54.9919 5.92651 58.8803 10.7231 58.8803Z" fill="#3E67C5"/>
<path d="M70.8902 124.668H80.2742V126.198H72.5902V135.14H79.2882V136.67H72.5902V145.782H80.2742V147.312H70.8902V124.668ZM91.0394 128.17H92.7734L88.0134 137.758L92.7734 147.312H91.0394L87.1634 139.492L83.2874 147.312H81.5534L86.2794 137.758L81.5534 128.17H83.2874L87.1634 135.99L91.0394 128.17ZM103.844 132.624C103.844 130.652 102.869 129.666 100.92 129.666C99.6961 129.666 98.3701 130.006 96.9421 130.686V145.782H100.206C102.631 145.782 103.844 144.592 103.844 142.212V132.624ZM96.9081 129.088C98.4948 128.431 99.9115 128.102 101.158 128.102C102.427 128.102 103.47 128.499 104.286 129.292C105.125 130.085 105.544 131.196 105.544 132.624V142.212C105.544 143.776 105.091 145.023 104.184 145.952C103.277 146.859 102.076 147.312 100.58 147.312H96.9421V152.378H95.2421V128.17H96.9081V129.088ZM109.908 123.07H111.608V147.312H109.908V123.07ZM124.807 133.032C124.807 130.584 123.617 129.36 121.237 129.36C118.857 129.36 117.667 130.584 117.667 133.032V142.45C117.667 144.898 118.857 146.122 121.237 146.122C123.617 146.122 124.807 144.898 124.807 142.45V133.032ZM115.967 133.032C115.967 131.468 116.398 130.21 117.259 129.258C118.12 128.306 119.446 127.83 121.237 127.83C123.028 127.83 124.354 128.306 125.215 129.258C126.076 130.21 126.507 131.468 126.507 133.032V142.45C126.507 144.014 126.076 145.272 125.215 146.224C124.354 147.176 123.028 147.652 121.237 147.652C119.446 147.652 118.12 147.176 117.259 146.224C116.398 145.272 115.967 144.014 115.967 142.45V133.032ZM136.484 128.068H137.402V129.734H136.178C135.498 129.734 134.988 129.847 134.648 130.074C134.308 130.278 134.081 130.414 133.968 130.482C133.854 130.55 133.639 130.709 133.322 130.958C133.004 131.207 132.755 131.389 132.574 131.502V147.312H130.874V128.17H132.54V129.666C132.902 129.417 133.174 129.224 133.356 129.088C133.537 128.929 133.73 128.793 133.934 128.68C134.16 128.544 134.342 128.453 134.478 128.408C134.614 128.363 134.795 128.306 135.022 128.238C135.407 128.125 135.894 128.068 136.484 128.068ZM139.389 142.586V133.066C139.389 131.502 139.82 130.244 140.681 129.292C141.565 128.317 142.903 127.83 144.693 127.83C146.484 127.83 147.81 128.317 148.671 129.292C149.555 130.244 149.997 131.502 149.997 133.066V138.744H141.089V142.586C141.089 144.785 142.597 145.884 145.611 145.884C146.835 145.884 148.093 145.691 149.385 145.306V146.972C148.229 147.312 146.971 147.482 145.611 147.482C141.463 147.482 139.389 145.85 139.389 142.586ZM141.089 137.214H148.297V133.066C148.297 130.595 147.096 129.36 144.693 129.36C142.291 129.36 141.089 130.595 141.089 133.066V137.214ZM161.76 124.634V128.17H166.418V129.7H161.76V143.368C161.76 144.275 161.975 144.921 162.406 145.306C162.836 145.691 163.516 145.884 164.446 145.884C165.375 145.884 166.157 145.771 166.792 145.544V147.108C166.112 147.312 165.182 147.414 164.004 147.414C162.848 147.414 161.896 147.074 161.148 146.394C160.422 145.691 160.06 144.683 160.06 143.368V129.7H157.85V128.17H160.094L160.57 124.634H161.76ZM177.951 133.032C177.951 130.584 176.761 129.36 174.381 129.36C172.001 129.36 170.811 130.584 170.811 133.032V142.45C170.811 144.898 172.001 146.122 174.381 146.122C176.761 146.122 177.951 144.898 177.951 142.45V133.032ZM169.111 133.032C169.111 131.468 169.541 130.21 170.403 129.258C171.264 128.306 172.59 127.83 174.381 127.83C176.171 127.83 177.497 128.306 178.359 129.258C179.22 130.21 179.651 131.468 179.651 133.032V142.45C179.651 144.014 179.22 145.272 178.359 146.224C177.497 147.176 176.171 147.652 174.381 147.652C172.59 147.652 171.264 147.176 170.403 146.224C169.541 145.272 169.111 144.014 169.111 142.45V133.032ZM195.713 128.68H194.591C193.911 128.68 193.333 128.895 192.857 129.326C193.628 130.165 194.013 131.287 194.013 132.692V135.344C194.013 136.863 193.56 138.053 192.653 138.914C191.747 139.775 190.387 140.206 188.573 140.206C187.1 140.206 186.363 140.897 186.363 142.28C186.363 142.892 186.545 143.345 186.907 143.64C187.293 143.912 187.927 144.048 188.811 144.048H190.817C193.855 144.048 195.373 145.34 195.373 147.924V148.264C195.373 151.007 193.401 152.378 189.457 152.378H188.063C185.91 152.378 184.221 152.061 182.997 151.426V149.726C184.38 150.474 186.069 150.848 188.063 150.848H189.423C192.257 150.848 193.673 149.998 193.673 148.298V147.924C193.673 147.131 193.481 146.541 193.095 146.156C192.733 145.771 191.985 145.578 190.851 145.578H188.811C187.542 145.578 186.556 145.329 185.853 144.83C185.151 144.331 184.799 143.617 184.799 142.688V142.144C184.799 141.577 184.958 141.113 185.275 140.75C185.593 140.365 186.001 140.104 186.499 139.968C184.255 139.379 183.133 137.837 183.133 135.344V132.692C183.133 131.173 183.587 129.983 184.493 129.122C185.4 128.261 186.681 127.83 188.335 127.83C190.013 127.83 191.327 128.159 192.279 128.816C192.687 127.569 193.662 126.946 195.203 126.946H195.713V128.68ZM192.313 135.344V132.692C192.313 131.581 192.019 130.754 191.429 130.21C190.84 129.643 189.888 129.36 188.573 129.36C187.259 129.36 186.307 129.643 185.717 130.21C185.128 130.754 184.833 131.581 184.833 132.692V135.344C184.833 136.455 185.128 137.293 185.717 137.86C186.307 138.404 187.259 138.676 188.573 138.676C189.888 138.676 190.84 138.404 191.429 137.86C192.019 137.293 192.313 136.455 192.313 135.344ZM198.377 142.586V133.066C198.377 131.502 198.807 130.244 199.669 129.292C200.553 128.317 201.89 127.83 203.681 127.83C205.471 127.83 206.797 128.317 207.659 129.292C208.543 130.244 208.985 131.502 208.985 133.066V138.744H200.077V142.586C200.077 144.785 201.584 145.884 204.599 145.884C205.823 145.884 207.081 145.691 208.373 145.306V146.972C207.217 147.312 205.959 147.482 204.599 147.482C200.451 147.482 198.377 145.85 198.377 142.586ZM200.077 137.214H207.285V133.066C207.285 130.595 206.083 129.36 203.681 129.36C201.278 129.36 200.077 130.595 200.077 133.066V137.214ZM214.68 124.634V128.17H219.338V129.7H214.68V143.368C214.68 144.275 214.896 144.921 215.326 145.306C215.757 145.691 216.437 145.884 217.366 145.884C218.296 145.884 219.078 145.771 219.712 145.544V147.108C219.032 147.312 218.103 147.414 216.924 147.414C215.768 147.414 214.816 147.074 214.068 146.394C213.343 145.691 212.98 144.683 212.98 143.368V129.7H210.77V128.17H213.014L213.49 124.634H214.68ZM222.371 123.07H224.037V129.054C225.443 128.419 226.825 128.102 228.185 128.102C229.545 128.102 230.633 128.499 231.449 129.292C232.265 130.085 232.673 131.196 232.673 132.624V147.312H230.973V132.624C230.973 130.652 230.01 129.666 228.083 129.666C226.814 129.666 225.477 130.006 224.071 130.686V147.312H222.371V123.07ZM236.864 142.586V133.066C236.864 131.502 237.294 130.244 238.156 129.292C239.04 128.317 240.377 127.83 242.168 127.83C243.958 127.83 245.284 128.317 246.146 129.292C247.03 130.244 247.472 131.502 247.472 133.066V138.744H238.564V142.586C238.564 144.785 240.071 145.884 243.086 145.884C244.31 145.884 245.568 145.691 246.86 145.306V146.972C245.704 147.312 244.446 147.482 243.086 147.482C238.938 147.482 236.864 145.85 236.864 142.586ZM238.564 137.214H245.772V133.066C245.772 130.595 244.57 129.36 242.168 129.36C239.765 129.36 238.564 130.595 238.564 133.066V137.214ZM257.247 128.068H258.165V129.734H256.941C256.261 129.734 255.751 129.847 255.411 130.074C255.071 130.278 254.845 130.414 254.731 130.482C254.618 130.55 254.403 130.709 254.085 130.958C253.768 131.207 253.519 131.389 253.337 131.502V147.312H251.637V128.17H253.303V129.666C253.666 129.417 253.938 129.224 254.119 129.088C254.301 128.929 254.493 128.793 254.697 128.68C254.924 128.544 255.105 128.453 255.241 128.408C255.377 128.363 255.559 128.306 255.785 128.238C256.171 128.125 256.658 128.068 257.247 128.068Z" fill="#BCCAEA"/>
<g filter="url(#filter0_d_120_279)">
<path d="M102.677 74.4059V117.414H98.3249V94.7579C98.3249 90.3633 98.4529 86.1179 98.7089 82.0219L89.9409 105.958H85.1409L76.2449 82.0219C76.5436 85.9899 76.6929 90.2139 76.6929 94.6939V117.414H72.4049V74.4059H77.7809L87.5089 101.35L97.2369 74.4059H102.677ZM120.528 113.51C122.661 113.51 124.709 112.849 126.672 111.526V80.9979H131.216V117.414H126.864V115.686C124.389 116.923 121.851 117.542 119.248 117.542C116.688 117.542 114.64 116.774 113.104 115.238C111.568 113.659 110.8 111.398 110.8 108.454V80.9979H115.344V108.07C115.344 111.697 117.072 113.51 120.528 113.51ZM137.023 89.5739C137.023 86.5873 137.877 84.3686 139.583 82.9179C141.29 81.4246 144.085 80.6779 147.967 80.6779C150.357 80.6779 152.725 81.0406 155.071 81.7659V85.9899C152.938 85.2219 150.591 84.8379 148.031 84.8379C145.471 84.8379 143.743 85.2219 142.847 85.9899C141.951 86.7153 141.503 87.9526 141.503 89.7019V91.3659C141.503 92.7313 141.759 93.7766 142.271 94.5019C142.826 95.2273 143.829 95.9099 145.279 96.5499L150.783 99.2379C154.623 101.115 156.543 103.718 156.543 107.046V108.774C156.543 114.747 152.682 117.734 144.959 117.734C142.058 117.734 139.498 117.393 137.279 116.71V112.486C139.498 113.254 141.951 113.638 144.639 113.638C147.37 113.638 149.269 113.233 150.335 112.422C151.445 111.569 151.999 110.331 151.999 108.71V107.43C151.999 106.235 151.722 105.318 151.167 104.678C150.613 103.995 149.525 103.27 147.903 102.502L142.399 99.8779C138.815 98.1713 137.023 95.4619 137.023 91.7499V89.5739ZM161.722 108.134V90.3419C161.722 87.3126 162.576 84.9019 164.282 83.1099C166.032 81.2753 168.656 80.3579 172.154 80.3579C175.653 80.3579 178.234 81.2753 179.898 83.1099C181.605 84.9019 182.458 87.3126 182.458 90.3419V101.478H166.202V107.942C166.202 109.862 166.8 111.291 167.994 112.23C169.189 113.169 171.045 113.638 173.562 113.638C176.08 113.638 178.682 113.254 181.37 112.486V116.71C179.237 117.393 176.698 117.734 173.754 117.734C165.733 117.734 161.722 114.534 161.722 108.134ZM166.202 97.7019H178.106V90.3419C178.106 86.3313 176.122 84.3259 172.154 84.3259C168.186 84.3259 166.202 86.3313 166.202 90.3419V97.7019ZM199.235 113.51C201.369 113.51 203.417 112.849 205.379 111.526V80.9979H209.923V117.414H205.571V115.686C203.097 116.923 200.558 117.542 197.955 117.542C195.395 117.542 193.347 116.774 191.811 115.238C190.275 113.659 189.507 111.398 189.507 108.454V80.9979H194.051V108.07C194.051 111.697 195.779 113.51 199.235 113.51ZM236.851 83.4939C239.795 81.7446 242.718 80.8699 245.619 80.8699C248.52 80.8699 250.739 81.6166 252.275 83.1099C253.811 84.5606 254.579 86.6299 254.579 89.3179V117.414H249.971V89.7659C249.971 86.6513 248.414 85.0939 245.299 85.0939C242.995 85.0939 240.691 85.7979 238.387 87.2059C238.6 87.8459 238.707 88.6993 238.707 89.7659V117.414H234.163V89.7659C234.163 86.6513 232.584 85.0939 229.427 85.0939C227.422 85.0939 225.246 85.6486 222.899 86.7579V117.414H218.355V80.9979H222.707V82.6619C225.566 81.4673 228.062 80.8699 230.195 80.8699C233.096 80.8699 235.315 81.7446 236.851 83.4939Z" fill="white"/>
</g>
<path d="M72.2546 31.532C72.2546 28.716 73.1933 26.5187 75.0706 24.94C76.9479 23.3187 79.5719 22.508 82.9426 22.508C86.3559 22.508 89.2359 22.8707 91.5826 23.596V27.948C89.3639 27.1373 86.6546 26.732 83.4546 26.732C79.0599 26.732 76.8626 28.396 76.8626 31.724V34.796C76.8626 36.2893 77.1399 37.4627 77.6946 38.316C78.2919 39.1693 79.2733 39.98 80.6386 40.748L88.0626 44.908C91.5186 46.7853 93.2466 49.6227 93.2466 53.42V56.876C93.2466 59.82 92.2439 62.1027 90.2386 63.724C88.2333 65.3453 85.3319 66.156 81.5346 66.156C77.7799 66.156 74.7933 65.7293 72.5746 64.876V60.524C75.0919 61.4627 77.9506 61.932 81.1506 61.932C86.1853 61.932 88.7026 60.1613 88.7026 56.62V53.932C88.7026 52.524 88.4466 51.4147 87.9346 50.604C87.4226 49.7933 86.5053 49.0253 85.1826 48.3L77.8226 44.268C74.1106 42.2627 72.2546 39.276 72.2546 35.308V31.532ZM102.641 38.316C102.641 32.172 106.225 29.1 113.393 29.1C116.038 29.1 118.3 29.3987 120.177 29.996V34.156C118.129 33.6013 115.91 33.324 113.521 33.324C111.132 33.324 109.468 33.7507 108.529 34.604C107.633 35.4147 107.185 36.6947 107.185 38.444V56.876C107.185 58.668 107.633 59.9693 108.529 60.78C109.468 61.5907 111.174 61.996 113.649 61.996C116.124 61.996 118.342 61.6547 120.305 60.972V65.26C118.001 65.8573 115.697 66.156 113.393 66.156C106.225 66.156 102.641 63.1267 102.641 57.068V38.316ZM132.799 25.324C130.964 25.324 130.047 24.3427 130.047 22.38C130.047 20.4173 130.964 19.436 132.799 19.436C134.676 19.436 135.615 20.4173 135.615 22.38C135.615 24.3427 134.676 25.324 132.799 25.324ZM130.559 29.676H135.103V65.836H130.559V29.676ZM146.884 56.556V38.764C146.884 35.7347 147.737 33.324 149.444 31.532C151.193 29.6973 153.817 28.78 157.316 28.78C160.814 28.78 163.396 29.6973 165.06 31.532C166.766 33.324 167.62 35.7347 167.62 38.764V49.9H151.364V56.364C151.364 58.284 151.961 59.7133 153.156 60.652C154.35 61.5907 156.206 62.06 158.724 62.06C161.241 62.06 163.844 61.676 166.532 60.908V65.132C164.398 65.8147 161.86 66.156 158.916 66.156C150.894 66.156 146.884 62.956 146.884 56.556ZM151.364 46.124H163.268V38.764C163.268 34.7533 161.284 32.748 157.316 32.748C153.348 32.748 151.364 34.7533 151.364 38.764V46.124ZM183.341 31.084C186.199 29.8893 188.802 29.292 191.149 29.292C193.538 29.292 195.501 30.0387 197.037 31.532C198.573 32.9827 199.341 35.052 199.341 37.74V65.836H194.797V38.188C194.797 35.0733 193.218 33.516 190.061 33.516C188.055 33.516 185.879 34.0707 183.533 35.18V65.836H178.989V29.42H183.341V31.084ZM210.814 38.316C210.814 32.172 214.398 29.1 221.566 29.1C224.211 29.1 226.472 29.3987 228.35 29.996V34.156C226.302 33.6013 224.083 33.324 221.694 33.324C219.304 33.324 217.64 33.7507 216.702 34.604C215.806 35.4147 215.358 36.6947 215.358 38.444V56.876C215.358 58.668 215.806 59.9693 216.702 60.78C217.64 61.5907 219.347 61.996 221.822 61.996C224.296 61.996 226.515 61.6547 228.478 60.972V65.26C226.174 65.8573 223.87 66.156 221.566 66.156C214.398 66.156 210.814 63.1267 210.814 57.068V38.316ZM238.091 56.556V38.764C238.091 35.7347 238.944 33.324 240.651 31.532C242.4 29.6973 245.024 28.78 248.523 28.78C252.022 28.78 254.603 29.6973 256.267 31.532C257.974 33.324 258.827 35.7347 258.827 38.764V49.9H242.571V56.364C242.571 58.284 243.168 59.7133 244.363 60.652C245.558 61.5907 247.414 62.06 249.931 62.06C252.448 62.06 255.051 61.676 257.739 60.908V65.132C255.606 65.8147 253.067 66.156 250.123 66.156C242.102 66.156 238.091 62.956 238.091 56.556ZM242.571 46.124H254.475V38.764C254.475 34.7533 252.491 32.748 248.523 32.748C244.555 32.748 242.571 34.7533 242.571 38.764V46.124Z" fill="white"/>
<path d="M156.925 13.6733C156.919 11.78 158.116 10.8295 160.516 10.8218C161.289 10.8194 162.063 10.9235 162.837 11.1344L162.841 12.4544C162.053 12.2302 161.266 12.1194 160.48 12.1219C159.693 12.1245 159.14 12.2662 158.821 12.5473C158.502 12.8149 158.343 13.2155 158.345 13.7488L158.37 21.5687C158.372 22.0887 158.533 22.4882 158.854 22.7672C159.188 23.0328 159.762 23.1643 160.575 23.1617C161.402 23.1591 162.181 23.0499 162.914 22.8342L162.918 24.1342C162.252 24.3497 161.466 24.4589 160.559 24.4618C158.159 24.4694 156.956 23.5266 156.95 21.6333L156.925 13.6733ZM173.13 13.8815C173.126 12.6148 172.464 11.9836 171.144 11.9878C169.837 11.992 169.186 12.6274 169.19 13.8941L169.213 21.3341C169.218 22.614 169.873 23.252 171.18 23.2478C172.5 23.2435 173.158 22.6014 173.153 21.3214L173.13 13.8815ZM167.77 13.8786C167.767 12.932 168.051 12.1644 168.622 11.5759C169.194 10.9874 170.033 10.6914 171.139 10.6878C172.259 10.6843 173.107 10.9749 173.682 11.5597C174.257 12.1445 174.547 12.9103 174.55 13.8569L174.574 21.3569C174.577 22.3036 174.292 23.0711 173.721 23.6596C173.149 24.2348 172.304 24.5242 171.184 24.5278C170.064 24.5313 169.216 24.2474 168.641 23.6759C168.079 23.091 167.797 22.3253 167.794 21.3786L167.77 13.8786ZM189.534 10.829L189.577 24.2689L188.217 24.2733L188.194 17.1933C188.19 15.82 188.225 14.4932 188.301 13.2129L185.585 20.7017L184.085 20.7065L181.281 13.2354C181.379 14.4751 181.429 15.7949 181.434 17.1949L181.457 24.2949L180.117 24.2992L180.074 10.8593L181.754 10.8539L184.821 19.2641L187.834 10.8344L189.534 10.829ZM204.733 10.7804L204.776 24.2203L203.416 24.2246L203.394 17.1447C203.389 15.7714 203.425 14.4446 203.501 13.1643L200.785 20.653L199.285 20.6578L196.481 13.1868C196.578 14.4265 196.629 15.7463 196.633 17.1463L196.656 24.2463L195.316 24.2506L195.273 10.8106L196.953 10.8053L200.02 19.2155L203.033 10.7858L204.733 10.7804ZM215.713 10.7452L217.133 10.7407L217.166 21.2206C217.169 22.1673 216.885 22.9349 216.314 23.5234C215.755 24.0985 214.916 24.3879 213.796 24.3914C212.676 24.395 211.829 24.1111 211.254 23.5396C210.692 22.9547 210.409 22.1889 210.406 21.2423L210.373 10.7623L211.793 10.7578L211.826 21.1977C211.83 22.4777 212.486 23.1156 213.792 23.1114C215.099 23.1073 215.75 22.4652 215.746 21.1852L215.713 10.7452ZM228.758 21.8636L228.604 17.444L228.582 10.7041L230.002 10.6995L230.045 24.1395L228.405 24.1447L225.623 17.1936C225.515 16.9139 224.984 15.5223 224.03 13.0186L224.164 17.4182L224.185 24.1582L222.805 24.1626L222.762 10.7227L224.402 10.7174C226.539 16.0973 227.991 19.8127 228.758 21.8636ZM235.735 10.6812L237.155 10.6766L237.198 24.1166L235.778 24.1211L235.735 10.6812ZM248.328 10.6409L248.332 11.9009L245.732 11.9092L245.771 24.0891L244.331 24.0937L244.292 11.9138L241.692 11.9221L241.688 10.6621L248.328 10.6409ZM256.316 24.0554L254.896 24.0599L254.882 19.52L251.553 10.6306L253.013 10.6259L254.385 14.2815C254.439 14.428 254.849 15.6201 255.616 17.8576C256.105 16.3227 256.944 13.9067 258.133 10.6095L259.573 10.6049L256.302 19.5154L256.316 24.0554Z" fill="#BDCBEB"/>
<defs>
<filter id="filter0_d_120_279" x="68.4049" y="74.4059" width="190.174" height="51.328" filterUnits="userSpaceOnUse" color-interpolation-filters="sRGB">
<feFlood flood-opacity="0" result="BackgroundImageFix"/>
<feColorMatrix in="SourceAlpha" type="matrix" values="0 0 0 0 0 0 0 0 0 0 0 0 0 0 0 0 0 0 127 0" result="hardAlpha"/>
<feOffset dy="4"/>
<feGaussianBlur stdDeviation="2"/>
<feComposite in2="hardAlpha" operator="out"/>
<feColorMatrix type="matrix" values="0 0 0 0 0 0 0 0 0 0 0 0 0 0 0 0 0 0 1 0"/>
<feBlend mode="normal" in2="BackgroundImageFix" result="effect1_dropShadow_120_279"/>
<feBlend mode="normal" in="SourceGraphic" in2="effect1_dropShadow_120_279" result="shape"/>
</filter>
</defs>
</svg>
