<svg width="117" height="117" viewBox="0 0 117 117" fill="none" xmlns="http://www.w3.org/2000/svg">
<path d="M65.2799 23.3544C70.0764 23.3544 73.9648 19.466 73.9648 14.6695C73.9648 9.87293 70.0764 5.98456 65.2799 5.98456C60.4833 5.98456 56.595 9.87293 56.595 14.6695C56.595 19.466 60.4833 23.3544 65.2799 23.3544Z" fill="#3E67C5"/>
<path d="M105.881 63.9557C110.678 63.9557 114.566 60.0673 114.566 55.2708C114.566 50.4742 110.678 46.5859 105.881 46.5859C101.085 46.5859 97.1964 50.4742 97.1964 55.2708C97.1964 60.0673 101.085 63.9557 105.881 63.9557Z" fill="#3E67C5"/>
<path d="M83.0428 112.169C87.8394 112.169 91.7277 108.281 91.7277 103.484C91.7277 98.6876 87.8394 94.7993 83.0428 94.7993C78.2463 94.7993 74.3579 98.6876 74.3579 103.484C74.3579 108.281 78.2463 112.169 83.0428 112.169Z" fill="#3E67C5"/>
<path d="M13.2605 89.3307C18.0571 89.3307 21.9454 85.4423 21.9454 80.6458C21.9454 75.8492 18.0571 71.9609 13.2605 71.9609C8.46399 71.9609 4.57562 75.8492 4.57562 80.6458C4.57562 85.4423 8.46399 89.3307 13.2605 89.3307Z" fill="#3E67C5"/>
<path d="M65.7198 96.725C65.4018 96.6254 65.0672 96.5896 64.7353 96.6195C64.4034 96.6494 64.0806 96.7445 63.7855 96.8994C63.4904 97.0543 63.2288 97.2659 63.0156 97.5221C62.8025 97.7782 62.6419 98.074 62.5433 98.3923C62.444 98.7103 62.4084 99.0448 62.4384 99.3767C62.4685 99.7085 62.5637 100.031 62.7185 100.326C62.8734 100.621 63.0848 100.883 63.3408 101.096C63.5968 101.309 63.8924 101.47 64.2105 101.569L69.3 103.153C69.3421 101.391 69.706 99.7062 70.3542 98.1665L65.7198 96.725V96.725ZM14.9313 66.9989L14.6294 63.3824C13.3904 63.7498 12.0812 63.9557 10.724 63.9557C10.3379 63.9557 9.95762 63.9288 9.57971 63.8972L9.86636 67.3276C10.9545 67.0503 12.0882 66.8865 13.2617 66.8865C13.8268 66.8865 14.3826 66.9322 14.9313 66.9989ZM94.0233 86.828C94.275 86.2169 94.2786 85.5317 94.0331 84.918C93.7876 84.3043 93.3125 83.8106 92.7087 83.5417C92.1049 83.2728 91.4201 83.2499 90.7997 83.478C90.1794 83.706 89.6724 84.167 89.3866 84.763L86.9249 90.2912C88.5851 90.7803 90.1108 91.5782 91.4469 92.6137L94.0233 86.828V86.828ZM29.1339 85.3363L26.4593 84.5032C25.9709 86.1654 25.1721 87.72 24.1053 89.0849L27.6258 90.1812C28.2599 90.353 28.9359 90.2722 29.5117 89.9559C30.0876 89.6396 30.5184 89.1125 30.7136 88.4852C30.9089 87.8579 30.8534 87.1794 30.5588 86.5922C30.2642 86.0049 29.7535 85.5548 29.1339 85.3363V85.3363ZM48.0762 26.4116C47.9062 26.1249 47.6814 25.8746 47.4146 25.6749C47.1478 25.4751 46.8443 25.33 46.5214 25.2476C46.1984 25.1652 45.8625 25.1473 45.5326 25.1949C45.2028 25.2424 44.8855 25.3545 44.599 25.5247L33.6162 32.0463C33.0613 32.4012 32.666 32.9579 32.5139 33.5988C32.3617 34.2397 32.4646 34.9146 32.8009 35.4811C33.1371 36.0475 33.6803 36.4611 34.3158 36.6345C34.9512 36.8079 35.6292 36.7275 36.2066 36.4104L47.1894 29.8888C47.7678 29.545 48.1861 28.9857 48.3524 28.3337C48.5187 27.6817 48.4193 26.9904 48.0762 26.4116ZM53.5249 92.9284L41.33 89.1317C40.6944 88.9547 40.0148 89.0322 39.4354 89.3477C38.8559 89.6632 38.4222 90.192 38.226 90.822C38.0299 91.452 38.0868 92.1336 38.3847 92.7223C38.6826 93.311 39.1981 93.7605 39.8219 93.9755L52.0168 97.7722C52.6495 97.9399 53.3225 97.8567 53.8954 97.54C54.4682 97.2234 54.8967 96.6977 55.0912 96.0728C55.2858 95.4478 55.2315 94.7718 54.9397 94.186C54.6478 93.6001 54.141 93.1495 53.5249 92.9284ZM76.6628 25.1948L84.6563 33.7393C84.8837 33.9831 85.157 34.1796 85.4606 34.3176C85.7641 34.4556 86.0919 34.5323 86.4251 34.5434C86.7583 34.5545 87.0905 34.4997 87.4025 34.3822C87.7146 34.2647 88.0003 34.0868 88.2435 33.8586C88.7346 33.3988 89.0231 32.7629 89.0457 32.0905C89.0683 31.4181 88.8231 30.7643 88.364 30.2726L79.9084 21.2343C79.0818 22.7445 77.9812 24.0875 76.6628 25.1948V25.1948ZM94.5849 73.0957C94.4344 73.4022 94.3473 73.7359 94.3288 74.0768C94.3103 74.4177 94.3607 74.7589 94.477 75.0799C94.5934 75.4009 94.7733 75.6951 95.006 75.9449C95.2387 76.1948 95.5194 76.3951 95.8313 76.534C96.1432 76.6729 96.4799 76.7474 96.8213 76.7531C97.1627 76.7589 97.5017 76.6957 97.8181 76.5674C98.1345 76.4391 98.4217 76.2483 98.6627 76.0064C98.9037 75.7645 99.0933 75.4765 99.2204 75.1596L102.182 68.5105C100.537 68.0494 98.9936 67.2847 97.6304 66.2559L94.5849 73.0957V73.0957ZM100.089 42.8068L97.0875 39.5998C96.8599 39.3565 96.5866 39.1604 96.2832 39.0228C95.9798 38.8851 95.6522 38.8085 95.3192 38.7974C94.9862 38.7864 94.6543 38.841 94.3424 38.9582C94.0305 39.0754 93.7448 39.2528 93.5015 39.4805C93.2582 39.7081 93.0621 39.9814 92.9244 40.2848C92.7867 40.5882 92.7102 40.9158 92.6991 41.2488C92.688 41.5818 92.7426 41.9137 92.8598 42.2256C92.977 42.5375 93.1545 42.8232 93.3821 43.0665L95.9316 45.7914C97.1198 44.547 98.5295 43.5348 100.089 42.8068V42.8068ZM23.0885 44.2002L25.225 42.932C25.7799 42.5771 26.1752 42.0204 26.3273 41.3795C26.4794 40.7386 26.3765 40.0636 26.0403 39.4972C25.7041 38.9307 25.1609 38.5171 24.5254 38.3437C23.8899 38.1703 23.2119 38.2507 22.6346 38.5679L20.0465 40.1052C21.3061 41.2694 22.3378 42.6581 23.0885 44.2002V44.2002ZM103.986 50.6856L102.926 51.6473L102.121 52.4055L103.986 50.6856Z" fill="#3E67C5"/>
<path d="M10.7228 58.8803C15.5194 58.8803 19.4077 54.9919 19.4077 50.1953C19.4077 45.3988 15.5194 41.5104 10.7228 41.5104C5.92627 41.5104 2.0379 45.3988 2.0379 50.1953C2.0379 54.9919 5.92627 58.8803 10.7228 58.8803Z" fill="#3E67C5"/>
<rect x="0.499756" y="0.5" width="116" height="116" stroke="black"/>
</svg>
