<svg width="256" height="160" viewBox="0 0 256 160" fill="none" xmlns="http://www.w3.org/2000/svg">
<path d="M65.2801 23.3544C70.0767 23.3544 73.965 19.466 73.965 14.6695C73.965 9.87293 70.0767 5.98456 65.2801 5.98456C60.4836 5.98456 56.5952 9.87293 56.5952 14.6695C56.5952 19.466 60.4836 23.3544 65.2801 23.3544Z" fill="#3E67C5"/>
<path d="M105.882 63.9557C110.678 63.9557 114.566 60.0673 114.566 55.2708C114.566 50.4742 110.678 46.5859 105.882 46.5859C101.085 46.5859 97.1966 50.4742 97.1966 55.2708C97.1966 60.0673 101.085 63.9557 105.882 63.9557Z" fill="#3E67C5"/>
<path d="M83.0431 112.169C87.8396 112.169 91.728 108.281 91.728 103.484C91.728 98.6876 87.8396 94.7993 83.0431 94.7993C78.2465 94.7993 74.3582 98.6876 74.3582 103.484C74.3582 108.281 78.2465 112.169 83.0431 112.169Z" fill="#3E67C5"/>
<path d="M13.2608 89.3307C18.0573 89.3307 21.9457 85.4423 21.9457 80.6458C21.9457 75.8492 18.0573 71.9609 13.2608 71.9609C8.46423 71.9609 4.57587 75.8492 4.57587 80.6458C4.57587 85.4423 8.46423 89.3307 13.2608 89.3307Z" fill="#3E67C5"/>
<path d="M65.7201 96.725C65.402 96.6254 65.0675 96.5896 64.7355 96.6195C64.4036 96.6494 64.0809 96.7445 63.7858 96.8994C63.4907 97.0543 63.2291 97.2659 63.0159 97.5221C62.8027 97.7782 62.6422 98.074 62.5435 98.3923C62.4442 98.7103 62.4086 99.0448 62.4387 99.3767C62.4687 99.7085 62.5639 100.031 62.7188 100.326C62.8736 100.621 63.0851 100.883 63.3411 101.096C63.5971 101.309 63.8926 101.47 64.2108 101.569L69.3003 103.153C69.3424 101.391 69.7063 99.7062 70.3544 98.1665L65.7201 96.725V96.725ZM14.9315 66.9989L14.6297 63.3824C13.3906 63.7498 12.0814 63.9557 10.7242 63.9557C10.3381 63.9557 9.95787 63.9288 9.57996 63.8972L9.86661 67.3276C10.9547 67.0503 12.0884 66.8865 13.2619 66.8865C13.8271 66.8865 14.3828 66.9322 14.9315 66.9989ZM94.0235 86.828C94.2753 86.2169 94.2788 85.5317 94.0333 84.918C93.7879 84.3043 93.3127 83.8106 92.709 83.5417C92.1052 83.2728 91.4204 83.2499 90.8 83.478C90.1796 83.706 89.6727 84.167 89.3868 84.763L86.9251 90.2912C88.5854 90.7803 90.1111 91.5782 91.4472 92.6137L94.0235 86.828V86.828ZM29.1342 85.3363L26.4595 84.5032C25.9711 86.1654 25.1724 87.72 24.1055 89.0849L27.626 90.1812C28.2602 90.353 28.9362 90.2722 29.512 89.9559C30.0878 89.6396 30.5186 89.1125 30.7139 88.4852C30.9091 87.8579 30.8536 87.1794 30.559 86.5922C30.2645 86.0049 29.7537 85.5548 29.1342 85.3363V85.3363ZM48.0765 26.4116C47.9065 26.1249 47.6816 25.8746 47.4149 25.6749C47.1481 25.4751 46.8445 25.33 46.5216 25.2476C46.1987 25.1652 45.8627 25.1473 45.5328 25.1949C45.203 25.2424 44.8857 25.3545 44.5992 25.5247L33.6164 32.0463C33.0615 32.4012 32.6662 32.9579 32.5141 33.5988C32.362 34.2397 32.4649 34.9146 32.8011 35.4811C33.1373 36.0475 33.6805 36.4611 34.316 36.6345C34.9515 36.8079 35.6295 36.7275 36.2068 36.4104L47.1896 29.8888C47.768 29.545 48.1863 28.9857 48.3526 28.3337C48.5189 27.6817 48.4196 26.9904 48.0765 26.4116ZM53.5252 92.9284L41.3302 89.1317C40.6947 88.9547 40.0151 89.0322 39.4356 89.3477C38.8562 89.6632 38.4224 90.192 38.2263 90.822C38.0301 91.452 38.087 92.1336 38.385 92.7223C38.6829 93.311 39.1984 93.7605 39.8221 93.9755L52.017 97.7722C52.6497 97.9399 53.3228 97.8567 53.8956 97.54C54.4685 97.2234 54.8969 96.6977 55.0915 96.0728C55.2861 95.4478 55.2318 94.7718 54.9399 94.186C54.6481 93.6001 54.1412 93.1495 53.5252 92.9284ZM76.6631 25.1948L84.6565 33.7393C84.884 33.9831 85.1573 34.1796 85.4608 34.3176C85.7643 34.4556 86.0921 34.5323 86.4253 34.5434C86.7586 34.5545 87.0908 34.4997 87.4028 34.3822C87.7148 34.2647 88.0006 34.0868 88.2437 33.8586C88.7348 33.3988 89.0234 32.7629 89.046 32.0905C89.0686 31.4181 88.8234 30.7643 88.3642 30.2726L79.9086 21.2343C79.082 22.7445 77.9814 24.0875 76.6631 25.1948V25.1948ZM94.5851 73.0957C94.4347 73.4022 94.3476 73.7359 94.329 74.0768C94.3105 74.4177 94.3609 74.7589 94.4773 75.0799C94.5937 75.4009 94.7736 75.6951 95.0063 75.9449C95.2389 76.1948 95.5196 76.3951 95.8315 76.534C96.1434 76.6729 96.4801 76.7474 96.8215 76.7531C97.1629 76.7589 97.5019 76.6957 97.8183 76.5674C98.1347 76.4391 98.422 76.2483 98.6629 76.0064C98.9039 75.7645 99.0936 75.4765 99.2207 75.1596L102.182 68.5105C100.538 68.0494 98.9939 67.2847 97.6306 66.2559L94.5851 73.0957V73.0957ZM100.089 42.8068L97.0878 39.5998C96.8601 39.3565 96.5868 39.1604 96.2834 39.0228C95.98 38.8851 95.6525 38.8085 95.3195 38.7974C94.9865 38.7864 94.6545 38.841 94.3426 38.9582C94.0308 39.0754 93.745 39.2528 93.5017 39.4805C93.2584 39.7081 93.0623 39.9814 92.9247 40.2848C92.787 40.5882 92.7104 40.9158 92.6994 41.2488C92.6883 41.5818 92.7429 41.9137 92.8601 42.2256C92.9773 42.5375 93.1548 42.8232 93.3824 43.0665L95.9318 45.7914C97.12 44.547 98.5298 43.5348 100.089 42.8068V42.8068ZM23.0888 44.2002L25.2252 42.932C25.7801 42.5771 26.1754 42.0204 26.3275 41.3795C26.4797 40.7386 26.3768 40.0636 26.0405 39.4972C25.7043 38.9307 25.1611 38.5171 24.5256 38.3437C23.8901 38.1703 23.2121 38.2507 22.6348 38.5679L20.0468 40.1052C21.3064 41.2694 22.338 42.6581 23.0888 44.2002V44.2002ZM103.986 50.6856L102.926 51.6473L102.121 52.4055L103.986 50.6856Z" fill="#3E67C5"/>
<path d="M10.7231 58.8803C15.5196 58.8803 19.408 54.9919 19.408 50.1953C19.408 45.3988 15.5196 41.5104 10.7231 41.5104C5.92651 41.5104 2.03815 45.3988 2.03815 50.1953C2.03815 54.9919 5.92651 58.8803 10.7231 58.8803Z" fill="#3E67C5"/>
<path d="M59.5446 130.356H68.9286V131.886H61.2446V140.828H67.9426V142.358H61.2446V151.47H68.9286V153H59.5446V130.356ZM79.6938 133.858H81.4278L76.6678 143.446L81.4278 153H79.6938L75.8178 145.18L71.9418 153H70.2078L74.9338 143.446L70.2078 133.858H71.9418L75.8178 141.678L79.6938 133.858ZM92.4985 138.312C92.4985 136.34 91.5239 135.354 89.5745 135.354C88.3505 135.354 87.0245 135.694 85.5965 136.374V151.47H88.8605C91.2859 151.47 92.4985 150.28 92.4985 147.9V138.312ZM85.5625 134.776C87.1492 134.119 88.5659 133.79 89.8125 133.79C91.0819 133.79 92.1245 134.187 92.9405 134.98C93.7792 135.773 94.1985 136.884 94.1985 138.312V147.9C94.1985 149.464 93.7452 150.711 92.8385 151.64C91.9319 152.547 90.7305 153 89.2345 153H85.5965V158.066H83.8965V133.858H85.5625V134.776ZM98.5628 128.758H100.263V153H98.5628V128.758ZM113.461 138.72C113.461 136.272 112.271 135.048 109.891 135.048C107.511 135.048 106.321 136.272 106.321 138.72V148.138C106.321 150.586 107.511 151.81 109.891 151.81C112.271 151.81 113.461 150.586 113.461 148.138V138.72ZM104.621 138.72C104.621 137.156 105.052 135.898 105.913 134.946C106.775 133.994 108.101 133.518 109.891 133.518C111.682 133.518 113.008 133.994 113.869 134.946C114.731 135.898 115.161 137.156 115.161 138.72V148.138C115.161 149.702 114.731 150.96 113.869 151.912C113.008 152.864 111.682 153.34 109.891 153.34C108.101 153.34 106.775 152.864 105.913 151.912C105.052 150.96 104.621 149.702 104.621 148.138V138.72ZM125.138 133.756H126.056V135.422H124.832C124.152 135.422 123.642 135.535 123.302 135.762C122.962 135.966 122.735 136.102 122.622 136.17C122.509 136.238 122.293 136.397 121.976 136.646C121.659 136.895 121.409 137.077 121.228 137.19V153H119.528V133.858H121.194V135.354C121.557 135.105 121.829 134.912 122.01 134.776C122.191 134.617 122.384 134.481 122.588 134.368C122.815 134.232 122.996 134.141 123.132 134.096C123.268 134.051 123.449 133.994 123.676 133.926C124.061 133.813 124.549 133.756 125.138 133.756ZM128.044 148.274V138.754C128.044 137.19 128.474 135.932 129.336 134.98C130.22 134.005 131.557 133.518 133.348 133.518C135.138 133.518 136.464 134.005 137.326 134.98C138.21 135.932 138.652 137.19 138.652 138.754V144.432H129.744V148.274C129.744 150.473 131.251 151.572 134.266 151.572C135.49 151.572 136.748 151.379 138.04 150.994V152.66C136.884 153 135.626 153.17 134.266 153.17C130.118 153.17 128.044 151.538 128.044 148.274ZM129.744 142.902H136.952V138.754C136.952 136.283 135.75 135.048 133.348 135.048C130.945 135.048 129.744 136.283 129.744 138.754V142.902ZM150.414 130.322V133.858H155.072V135.388H150.414V149.056C150.414 149.963 150.629 150.609 151.06 150.994C151.491 151.379 152.171 151.572 153.1 151.572C154.029 151.572 154.811 151.459 155.446 151.232V152.796C154.766 153 153.837 153.102 152.658 153.102C151.502 153.102 150.55 152.762 149.802 152.082C149.077 151.379 148.714 150.371 148.714 149.056V135.388H146.504V133.858H148.748L149.224 130.322H150.414ZM166.605 138.72C166.605 136.272 165.415 135.048 163.035 135.048C160.655 135.048 159.465 136.272 159.465 138.72V148.138C159.465 150.586 160.655 151.81 163.035 151.81C165.415 151.81 166.605 150.586 166.605 148.138V138.72ZM157.765 138.72C157.765 137.156 158.196 135.898 159.057 134.946C159.918 133.994 161.244 133.518 163.035 133.518C164.826 133.518 166.152 133.994 167.013 134.946C167.874 135.898 168.305 137.156 168.305 138.72V148.138C168.305 149.702 167.874 150.96 167.013 151.912C166.152 152.864 164.826 153.34 163.035 153.34C161.244 153.34 159.918 152.864 159.057 151.912C158.196 150.96 157.765 149.702 157.765 148.138V138.72ZM184.368 134.368H183.246C182.566 134.368 181.988 134.583 181.512 135.014C182.282 135.853 182.668 136.975 182.668 138.38V141.032C182.668 142.551 182.214 143.741 181.308 144.602C180.401 145.463 179.041 145.894 177.228 145.894C175.754 145.894 175.018 146.585 175.018 147.968C175.018 148.58 175.199 149.033 175.562 149.328C175.947 149.6 176.582 149.736 177.466 149.736H179.472C182.509 149.736 184.028 151.028 184.028 153.612V153.952C184.028 156.695 182.056 158.066 178.112 158.066H176.718C174.564 158.066 172.876 157.749 171.652 157.114V155.414C173.034 156.162 174.723 156.536 176.718 156.536H178.078C180.911 156.536 182.328 155.686 182.328 153.986V153.612C182.328 152.819 182.135 152.229 181.75 151.844C181.387 151.459 180.639 151.266 179.506 151.266H177.466C176.196 151.266 175.21 151.017 174.508 150.518C173.805 150.019 173.454 149.305 173.454 148.376V147.832C173.454 147.265 173.612 146.801 173.93 146.438C174.247 146.053 174.655 145.792 175.154 145.656C172.91 145.067 171.788 143.525 171.788 141.032V138.38C171.788 136.861 172.241 135.671 173.148 134.81C174.054 133.949 175.335 133.518 176.99 133.518C178.667 133.518 179.982 133.847 180.934 134.504C181.342 133.257 182.316 132.634 183.858 132.634H184.368V134.368ZM180.968 141.032V138.38C180.968 137.269 180.673 136.442 180.084 135.898C179.494 135.331 178.542 135.048 177.228 135.048C175.913 135.048 174.961 135.331 174.372 135.898C173.782 136.442 173.488 137.269 173.488 138.38V141.032C173.488 142.143 173.782 142.981 174.372 143.548C174.961 144.092 175.913 144.364 177.228 144.364C178.542 144.364 179.494 144.092 180.084 143.548C180.673 142.981 180.968 142.143 180.968 141.032ZM187.031 148.274V138.754C187.031 137.19 187.462 135.932 188.323 134.98C189.207 134.005 190.544 133.518 192.335 133.518C194.126 133.518 195.452 134.005 196.313 134.98C197.197 135.932 197.639 137.19 197.639 138.754V144.432H188.731V148.274C188.731 150.473 190.238 151.572 193.253 151.572C194.477 151.572 195.735 151.379 197.027 150.994V152.66C195.871 153 194.613 153.17 193.253 153.17C189.105 153.17 187.031 151.538 187.031 148.274ZM188.731 142.902H195.939V138.754C195.939 136.283 194.738 135.048 192.335 135.048C189.932 135.048 188.731 136.283 188.731 138.754V142.902ZM203.335 130.322V133.858H207.993V135.388H203.335V149.056C203.335 149.963 203.55 150.609 203.981 150.994C204.411 151.379 205.091 151.572 206.021 151.572C206.95 151.572 207.732 151.459 208.367 151.232V152.796C207.687 153 206.757 153.102 205.579 153.102C204.423 153.102 203.471 152.762 202.723 152.082C201.997 151.379 201.635 150.371 201.635 149.056V135.388H199.425V133.858H201.669L202.145 130.322H203.335ZM211.026 128.758H212.692V134.742C214.097 134.107 215.48 133.79 216.84 133.79C218.2 133.79 219.288 134.187 220.104 134.98C220.92 135.773 221.328 136.884 221.328 138.312V153H219.628V138.312C219.628 136.34 218.664 135.354 216.738 135.354C215.468 135.354 214.131 135.694 212.726 136.374V153H211.026V128.758ZM225.518 148.274V138.754C225.518 137.19 225.949 135.932 226.81 134.98C227.694 134.005 229.031 133.518 230.822 133.518C232.613 133.518 233.939 134.005 234.8 134.98C235.684 135.932 236.126 137.19 236.126 138.754V144.432H227.218V148.274C227.218 150.473 228.725 151.572 231.74 151.572C232.964 151.572 234.222 151.379 235.514 150.994V152.66C234.358 153 233.1 153.17 231.74 153.17C227.592 153.17 225.518 151.538 225.518 148.274ZM227.218 142.902H234.426V138.754C234.426 136.283 233.225 135.048 230.822 135.048C228.419 135.048 227.218 136.283 227.218 138.754V142.902ZM245.902 133.756H246.82V135.422H245.596C244.916 135.422 244.406 135.535 244.066 135.762C243.726 135.966 243.499 136.102 243.386 136.17C243.272 136.238 243.057 136.397 242.74 136.646C242.422 136.895 242.173 137.077 241.992 137.19V153H240.292V133.858H241.958V135.354C242.32 135.105 242.592 134.912 242.774 134.776C242.955 134.617 243.148 134.481 243.352 134.368C243.578 134.232 243.76 134.141 243.896 134.096C244.032 134.051 244.213 133.994 244.44 133.926C244.825 133.813 245.312 133.756 245.902 133.756Z" fill="#BCCAEA"/>
<path d="M50.9442 43.696C50.9442 40.88 51.8829 38.6827 53.7602 37.104C55.6376 35.4827 58.2616 34.672 61.6322 34.672C65.0456 34.672 67.9256 35.0347 70.2722 35.76V40.112C68.0536 39.3013 65.3442 38.896 62.1442 38.896C57.7496 38.896 55.5522 40.56 55.5522 43.888V46.96C55.5522 48.4533 55.8296 49.6267 56.3842 50.48C56.9816 51.3333 57.9629 52.144 59.3282 52.912L66.7522 57.072C70.2082 58.9493 71.9362 61.7867 71.9362 65.584V69.04C71.9362 71.984 70.9336 74.2667 68.9282 75.888C66.9229 77.5093 64.0216 78.32 60.2242 78.32C56.4696 78.32 53.4829 77.8933 51.2642 77.04V72.688C53.7816 73.6267 56.6402 74.096 59.8402 74.096C64.8749 74.096 67.3922 72.3253 67.3922 68.784V66.096C67.3922 64.688 67.1362 63.5787 66.6242 62.768C66.1122 61.9573 65.1949 61.1893 63.8722 60.464L56.5122 56.432C52.8002 54.4267 50.9442 51.44 50.9442 47.472V43.696ZM81.3307 50.48C81.3307 44.336 84.9147 41.264 92.0827 41.264C94.7281 41.264 96.9894 41.5627 98.8667 42.16V46.32C96.8187 45.7653 94.6001 45.488 92.2107 45.488C89.8214 45.488 88.1574 45.9147 87.2187 46.768C86.3227 47.5787 85.8747 48.8587 85.8747 50.608V69.04C85.8747 70.832 86.3227 72.1333 87.2187 72.944C88.1574 73.7547 89.8641 74.16 92.3387 74.16C94.8134 74.16 97.0321 73.8187 98.9947 73.136V77.424C96.6907 78.0213 94.3867 78.32 92.0827 78.32C84.9147 78.32 81.3307 75.2907 81.3307 69.232V50.48ZM111.488 37.488C109.654 37.488 108.736 36.5067 108.736 34.544C108.736 32.5813 109.654 31.6 111.488 31.6C113.366 31.6 114.304 32.5813 114.304 34.544C114.304 36.5067 113.366 37.488 111.488 37.488ZM109.248 41.84H113.792V78H109.248V41.84ZM125.573 68.72V50.928C125.573 47.8987 126.427 45.488 128.133 43.696C129.883 41.8613 132.507 40.944 136.005 40.944C139.504 40.944 142.085 41.8613 143.749 43.696C145.456 45.488 146.309 47.8987 146.309 50.928V62.064H130.053V68.528C130.053 70.448 130.651 71.8773 131.845 72.816C133.04 73.7547 134.896 74.224 137.413 74.224C139.931 74.224 142.533 73.84 145.221 73.072V77.296C143.088 77.9787 140.549 78.32 137.605 78.32C129.584 78.32 125.573 75.12 125.573 68.72ZM130.053 58.288H141.957V50.928C141.957 46.9173 139.973 44.912 136.005 44.912C132.037 44.912 130.053 46.9173 130.053 50.928V58.288ZM162.03 43.248C164.889 42.0533 167.492 41.456 169.838 41.456C172.228 41.456 174.19 42.2027 175.726 43.696C177.262 45.1467 178.03 47.216 178.03 49.904V78H173.486V50.352C173.486 47.2373 171.908 45.68 168.75 45.68C166.745 45.68 164.569 46.2347 162.222 47.344V78H157.678V41.584H162.03V43.248ZM189.503 50.48C189.503 44.336 193.087 41.264 200.255 41.264C202.901 41.264 205.162 41.5627 207.039 42.16V46.32C204.991 45.7653 202.773 45.488 200.383 45.488C197.994 45.488 196.33 45.9147 195.391 46.768C194.495 47.5787 194.047 48.8587 194.047 50.608V69.04C194.047 70.832 194.495 72.1333 195.391 72.944C196.33 73.7547 198.037 74.16 200.511 74.16C202.986 74.16 205.205 73.8187 207.167 73.136V77.424C204.863 78.0213 202.559 78.32 200.255 78.32C193.087 78.32 189.503 75.2907 189.503 69.232V50.48ZM216.781 68.72V50.928C216.781 47.8987 217.634 45.488 219.341 43.696C221.09 41.8613 223.714 40.944 227.213 40.944C230.711 40.944 233.293 41.8613 234.957 43.696C236.663 45.488 237.517 47.8987 237.517 50.928V62.064H221.261V68.528C221.261 70.448 221.858 71.8773 223.053 72.816C224.247 73.7547 226.103 74.224 228.621 74.224C231.138 74.224 233.741 73.84 236.429 73.072V77.296C234.295 77.9787 231.757 78.32 228.813 78.32C220.791 78.32 216.781 75.12 216.781 68.72ZM221.261 58.288H233.165V50.928C233.165 46.9173 231.181 44.912 227.213 44.912C223.245 44.912 221.261 46.9173 221.261 50.928V58.288ZM74.354 81.992V125H70.002V102.344C70.002 97.9493 70.13 93.704 70.386 89.608L61.618 113.544H56.818L47.922 89.608C48.2207 93.576 48.37 97.8 48.37 102.28V125H44.082V81.992H49.458L59.186 108.936L68.914 81.992H74.354ZM96.205 121.096C98.3383 121.096 100.386 120.435 102.349 119.112V88.584H106.893V125H102.541V123.272C100.066 124.509 97.5277 125.128 94.925 125.128C92.365 125.128 90.317 124.36 88.781 122.824C87.245 121.245 86.477 118.984 86.477 116.04V88.584H91.021V115.656C91.021 119.283 92.749 121.096 96.205 121.096ZM116.7 97.16C116.7 94.1733 117.554 91.9547 119.26 90.504C120.967 89.0107 123.762 88.264 127.644 88.264C130.034 88.264 132.402 88.6267 134.748 89.352V93.576C132.615 92.808 130.268 92.424 127.708 92.424C125.148 92.424 123.42 92.808 122.524 93.576C121.628 94.3013 121.18 95.5387 121.18 97.288V98.952C121.18 100.317 121.436 101.363 121.948 102.088C122.503 102.813 123.506 103.496 124.956 104.136L130.46 106.824C134.3 108.701 136.22 111.304 136.22 114.632V116.36C136.22 122.333 132.359 125.32 124.636 125.32C121.735 125.32 119.175 124.979 116.956 124.296V120.072C119.175 120.84 121.628 121.224 124.316 121.224C127.047 121.224 128.946 120.819 130.012 120.008C131.122 119.155 131.676 117.917 131.676 116.296V115.016C131.676 113.821 131.399 112.904 130.844 112.264C130.29 111.581 129.202 110.856 127.58 110.088L122.076 107.464C118.492 105.757 116.7 103.048 116.7 99.336V97.16ZM145.399 115.72V97.928C145.399 94.8987 146.253 92.488 147.959 90.696C149.709 88.8613 152.333 87.944 155.831 87.944C159.33 87.944 161.911 88.8613 163.575 90.696C165.282 92.488 166.135 94.8987 166.135 97.928V109.064H149.879V115.528C149.879 117.448 150.477 118.877 151.671 119.816C152.866 120.755 154.722 121.224 157.239 121.224C159.757 121.224 162.359 120.84 165.047 120.072V124.296C162.914 124.979 160.375 125.32 157.431 125.32C149.41 125.32 145.399 122.12 145.399 115.72ZM149.879 105.288H161.783V97.928C161.783 93.9173 159.799 91.912 155.831 91.912C151.863 91.912 149.879 93.9173 149.879 97.928V105.288ZM186.912 121.096C189.046 121.096 191.094 120.435 193.056 119.112V88.584H197.6V125H193.248V123.272C190.774 124.509 188.235 125.128 185.632 125.128C183.072 125.128 181.024 124.36 179.488 122.824C177.952 121.245 177.184 118.984 177.184 116.04V88.584H181.728V115.656C181.728 119.283 183.456 121.096 186.912 121.096ZM228.528 91.08C231.472 89.3307 234.395 88.456 237.296 88.456C240.197 88.456 242.416 89.2027 243.952 90.696C245.488 92.1467 246.256 94.216 246.256 96.904V125H241.648V97.352C241.648 94.2373 240.091 92.68 236.976 92.68C234.672 92.68 232.368 93.384 230.064 94.792C230.277 95.432 230.384 96.2853 230.384 97.352V125H225.84V97.352C225.84 94.2373 224.261 92.68 221.104 92.68C219.099 92.68 216.923 93.2347 214.576 94.344V125H210.032V88.584H214.384V90.248C217.243 89.0533 219.739 88.456 221.872 88.456C224.773 88.456 226.992 89.3307 228.528 91.08Z" fill="white"/>
<path d="M133.2 19.6354C133.194 17.7421 134.391 16.7916 136.791 16.7839C137.564 16.7814 138.338 16.8856 139.112 17.0965L139.116 18.4165C138.329 18.1923 137.542 18.0815 136.755 18.084C135.969 18.0866 135.416 18.2283 135.097 18.5094C134.777 18.777 134.619 19.1776 134.62 19.7109L134.645 27.5308C134.647 28.0508 134.808 28.4503 135.129 28.7293C135.463 28.9949 136.037 29.1264 136.851 29.1238C137.677 29.1212 138.457 29.012 139.189 28.7963L139.194 30.0963C138.528 30.3118 137.741 30.421 136.835 30.4239C134.435 30.4315 133.232 29.4887 133.226 27.5954L133.2 19.6354ZM149.405 19.8436C149.401 18.5769 148.739 17.9457 147.419 17.9499C146.112 17.9541 145.461 18.5895 145.465 19.8562L145.489 27.2962C145.493 28.5761 146.148 29.2141 147.455 29.2099C148.775 29.2056 149.433 28.5635 149.429 27.2835L149.405 19.8436ZM144.045 19.8407C144.042 18.8941 144.326 18.1265 144.898 17.538C145.469 16.9495 146.308 16.6535 147.415 16.6499C148.535 16.6464 149.382 16.937 149.958 17.5218C150.533 18.1066 150.822 18.8724 150.825 19.819L150.849 27.319C150.852 28.2657 150.568 29.0332 149.996 29.6217C149.425 30.1969 148.579 30.4863 147.459 30.4899C146.339 30.4934 145.492 30.2095 144.916 29.638C144.354 29.0531 144.072 28.2874 144.069 27.3407L144.045 19.8407ZM165.809 16.7911L165.852 30.231L164.492 30.2354L164.469 23.1554C164.465 21.7821 164.501 20.4553 164.577 19.175L161.861 26.6638L160.361 26.6686L157.557 19.1975C157.654 20.4372 157.705 21.757 157.709 23.157L157.732 30.257L156.392 30.2613L156.349 16.8214L158.029 16.816L161.096 25.2262L164.109 16.7965L165.809 16.7911ZM181.009 16.7425L181.052 30.1824L179.692 30.1867L179.669 23.1068C179.665 21.7335 179.7 20.4067 179.776 19.1264L177.06 26.6151L175.56 26.6199L172.756 19.1489C172.854 20.3886 172.904 21.7084 172.909 23.1084L172.932 30.2084L171.592 30.2127L171.549 16.7727L173.229 16.7673L176.296 25.1776L179.309 16.7479L181.009 16.7425ZM191.988 16.7073L193.408 16.7028L193.442 27.1827C193.445 28.1294 193.161 28.897 192.589 29.4855C192.031 30.0606 191.192 30.3499 190.072 30.3535C188.952 30.3571 188.104 30.0732 187.529 29.5017C186.967 28.9168 186.685 28.151 186.682 27.2044L186.648 16.7244L188.068 16.7199L188.102 27.1598C188.106 28.4398 188.761 29.0777 190.068 29.0735C191.374 29.0694 192.026 28.4273 192.022 27.1473L191.988 16.7073ZM205.033 27.8257L204.879 23.4061L204.858 16.6662L206.278 16.6616L206.321 30.1015L204.681 30.1068L201.898 23.1557C201.791 22.876 201.26 21.4844 200.305 18.9807L200.439 23.3803L200.461 30.1203L199.081 30.1247L199.038 16.6848L200.678 16.6795C202.815 22.0594 204.267 25.7748 205.033 27.8257ZM212.011 16.6433L213.431 16.6387L213.474 30.0787L212.054 30.0832L212.011 16.6433ZM224.603 16.603L224.607 17.863L222.007 17.8713L222.046 30.0512L220.606 30.0558L220.567 17.8759L217.967 17.8842L217.963 16.6242L224.603 16.603ZM232.591 30.0175L231.172 30.022L231.157 25.4821L227.829 16.5927L229.289 16.588L230.66 20.2436C230.714 20.3901 231.125 21.5821 231.892 23.8197C232.38 22.2848 233.219 19.8688 234.408 16.5716L235.848 16.567L232.577 25.4775L232.591 30.0175Z" fill="#BCCAEA"/>
</svg>
