<svg width="267" height="164" viewBox="0 0 267 164" fill="none" xmlns="http://www.w3.org/2000/svg">
<path d="M40.8901 135.356H50.2741V136.886H42.5901V145.828H49.2881V147.358H42.5901V156.47H50.2741V158H40.8901V135.356ZM61.0394 138.858H62.7734L58.0134 148.446L62.7734 158H61.0394L57.1634 150.18L53.2874 158H51.5534L56.2794 148.446L51.5534 138.858H53.2874L57.1634 146.678L61.0394 138.858ZM73.8441 143.312C73.8441 141.34 72.8694 140.354 70.9201 140.354C69.6961 140.354 68.3701 140.694 66.9421 141.374V156.47H70.2061C72.6314 156.47 73.8441 155.28 73.8441 152.9V143.312ZM66.9081 139.776C68.4948 139.119 69.9114 138.79 71.1581 138.79C72.4274 138.79 73.4701 139.187 74.2861 139.98C75.1248 140.773 75.5441 141.884 75.5441 143.312V152.9C75.5441 154.464 75.0908 155.711 74.1841 156.64C73.2774 157.547 72.0761 158 70.5801 158H66.9421V163.066H65.2421V138.858H66.9081V139.776ZM79.9083 133.758H81.6083V158H79.9083V133.758ZM94.807 143.72C94.807 141.272 93.617 140.048 91.237 140.048C88.857 140.048 87.667 141.272 87.667 143.72V153.138C87.667 155.586 88.857 156.81 91.237 156.81C93.617 156.81 94.807 155.586 94.807 153.138V143.72ZM85.967 143.72C85.967 142.156 86.3976 140.898 87.259 139.946C88.1203 138.994 89.4463 138.518 91.237 138.518C93.0276 138.518 94.3536 138.994 95.215 139.946C96.0763 140.898 96.507 142.156 96.507 143.72V153.138C96.507 154.702 96.0763 155.96 95.215 156.912C94.3536 157.864 93.0276 158.34 91.237 158.34C89.4463 158.34 88.1203 157.864 87.259 156.912C86.3976 155.96 85.967 154.702 85.967 153.138V143.72ZM106.484 138.756H107.402V140.422H106.178C105.498 140.422 104.988 140.535 104.648 140.762C104.308 140.966 104.081 141.102 103.968 141.17C103.854 141.238 103.639 141.397 103.322 141.646C103.004 141.895 102.755 142.077 102.574 142.19V158H100.874V138.858H102.54V140.354C102.902 140.105 103.174 139.912 103.356 139.776C103.537 139.617 103.73 139.481 103.934 139.368C104.16 139.232 104.342 139.141 104.478 139.096C104.614 139.051 104.795 138.994 105.022 138.926C105.407 138.813 105.894 138.756 106.484 138.756ZM109.389 153.274V143.754C109.389 142.19 109.82 140.932 110.681 139.98C111.565 139.005 112.903 138.518 114.693 138.518C116.484 138.518 117.81 139.005 118.671 139.98C119.555 140.932 119.997 142.19 119.997 143.754V149.432H111.089V153.274C111.089 155.473 112.597 156.572 115.611 156.572C116.835 156.572 118.093 156.379 119.385 155.994V157.66C118.229 158 116.971 158.17 115.611 158.17C111.463 158.17 109.389 156.538 109.389 153.274ZM111.089 147.902H118.297V143.754C118.297 141.283 117.096 140.048 114.693 140.048C112.291 140.048 111.089 141.283 111.089 143.754V147.902ZM131.76 135.322V138.858H136.418V140.388H131.76V154.056C131.76 154.963 131.975 155.609 132.406 155.994C132.836 156.379 133.516 156.572 134.446 156.572C135.375 156.572 136.157 156.459 136.792 156.232V157.796C136.112 158 135.182 158.102 134.004 158.102C132.848 158.102 131.896 157.762 131.148 157.082C130.422 156.379 130.06 155.371 130.06 154.056V140.388H127.85V138.858H130.094L130.57 135.322H131.76ZM147.951 143.72C147.951 141.272 146.761 140.048 144.381 140.048C142.001 140.048 140.811 141.272 140.811 143.72V153.138C140.811 155.586 142.001 156.81 144.381 156.81C146.761 156.81 147.951 155.586 147.951 153.138V143.72ZM139.111 143.72C139.111 142.156 139.541 140.898 140.403 139.946C141.264 138.994 142.59 138.518 144.381 138.518C146.171 138.518 147.497 138.994 148.359 139.946C149.22 140.898 149.651 142.156 149.651 143.72V153.138C149.651 154.702 149.22 155.96 148.359 156.912C147.497 157.864 146.171 158.34 144.381 158.34C142.59 158.34 141.264 157.864 140.403 156.912C139.541 155.96 139.111 154.702 139.111 153.138V143.72ZM165.713 139.368H164.591C163.911 139.368 163.333 139.583 162.857 140.014C163.628 140.853 164.013 141.975 164.013 143.38V146.032C164.013 147.551 163.56 148.741 162.653 149.602C161.747 150.463 160.387 150.894 158.573 150.894C157.1 150.894 156.363 151.585 156.363 152.968C156.363 153.58 156.545 154.033 156.907 154.328C157.293 154.6 157.927 154.736 158.811 154.736H160.817C163.855 154.736 165.373 156.028 165.373 158.612V158.952C165.373 161.695 163.401 163.066 159.457 163.066H158.063C155.91 163.066 154.221 162.749 152.997 162.114V160.414C154.38 161.162 156.069 161.536 158.063 161.536H159.423C162.257 161.536 163.673 160.686 163.673 158.986V158.612C163.673 157.819 163.481 157.229 163.095 156.844C162.733 156.459 161.985 156.266 160.851 156.266H158.811C157.542 156.266 156.556 156.017 155.853 155.518C155.151 155.019 154.799 154.305 154.799 153.376V152.832C154.799 152.265 154.958 151.801 155.275 151.438C155.593 151.053 156.001 150.792 156.499 150.656C154.255 150.067 153.133 148.525 153.133 146.032V143.38C153.133 141.861 153.587 140.671 154.493 139.81C155.4 138.949 156.681 138.518 158.335 138.518C160.013 138.518 161.327 138.847 162.279 139.504C162.687 138.257 163.662 137.634 165.203 137.634H165.713V139.368ZM162.313 146.032V143.38C162.313 142.269 162.019 141.442 161.429 140.898C160.84 140.331 159.888 140.048 158.573 140.048C157.259 140.048 156.307 140.331 155.717 140.898C155.128 141.442 154.833 142.269 154.833 143.38V146.032C154.833 147.143 155.128 147.981 155.717 148.548C156.307 149.092 157.259 149.364 158.573 149.364C159.888 149.364 160.84 149.092 161.429 148.548C162.019 147.981 162.313 147.143 162.313 146.032ZM168.377 153.274V143.754C168.377 142.19 168.807 140.932 169.669 139.98C170.553 139.005 171.89 138.518 173.681 138.518C175.471 138.518 176.797 139.005 177.659 139.98C178.543 140.932 178.985 142.19 178.985 143.754V149.432H170.077V153.274C170.077 155.473 171.584 156.572 174.599 156.572C175.823 156.572 177.081 156.379 178.373 155.994V157.66C177.217 158 175.959 158.17 174.599 158.17C170.451 158.17 168.377 156.538 168.377 153.274ZM170.077 147.902H177.285V143.754C177.285 141.283 176.083 140.048 173.681 140.048C171.278 140.048 170.077 141.283 170.077 143.754V147.902ZM184.68 135.322V138.858H189.338V140.388H184.68V154.056C184.68 154.963 184.896 155.609 185.326 155.994C185.757 156.379 186.437 156.572 187.366 156.572C188.296 156.572 189.078 156.459 189.712 156.232V157.796C189.032 158 188.103 158.102 186.924 158.102C185.768 158.102 184.816 157.762 184.068 157.082C183.343 156.379 182.98 155.371 182.98 154.056V140.388H180.77V138.858H183.014L183.49 135.322H184.68ZM192.371 133.758H194.037V139.742C195.443 139.107 196.825 138.79 198.185 138.79C199.545 138.79 200.633 139.187 201.449 139.98C202.265 140.773 202.673 141.884 202.673 143.312V158H200.973V143.312C200.973 141.34 200.01 140.354 198.083 140.354C196.814 140.354 195.477 140.694 194.071 141.374V158H192.371V133.758ZM206.864 153.274V143.754C206.864 142.19 207.294 140.932 208.156 139.98C209.04 139.005 210.377 138.518 212.168 138.518C213.958 138.518 215.284 139.005 216.146 139.98C217.03 140.932 217.472 142.19 217.472 143.754V149.432H208.564V153.274C208.564 155.473 210.071 156.572 213.086 156.572C214.31 156.572 215.568 156.379 216.86 155.994V157.66C215.704 158 214.446 158.17 213.086 158.17C208.938 158.17 206.864 156.538 206.864 153.274ZM208.564 147.902H215.772V143.754C215.772 141.283 214.57 140.048 212.168 140.048C209.765 140.048 208.564 141.283 208.564 143.754V147.902ZM227.247 138.756H228.165V140.422H226.941C226.261 140.422 225.751 140.535 225.411 140.762C225.071 140.966 224.845 141.102 224.731 141.17C224.618 141.238 224.403 141.397 224.085 141.646C223.768 141.895 223.519 142.077 223.337 142.19V158H221.637V138.858H223.303V140.354C223.666 140.105 223.938 139.912 224.119 139.776C224.301 139.617 224.493 139.481 224.697 139.368C224.924 139.232 225.105 139.141 225.241 139.096C225.377 139.051 225.559 138.994 225.785 138.926C226.171 138.813 226.658 138.756 227.247 138.756Z" fill="#E3D3B3"/>
<path d="M75.8812 27.147C81.4566 27.147 85.9764 22.6271 85.9764 17.0517C85.9764 11.4762 81.4566 6.95639 75.8812 6.95639C70.3057 6.95639 65.7859 11.4762 65.7859 17.0517C65.7859 22.6271 70.3057 27.147 75.8812 27.147Z" fill="#AC441D"/>
<path d="M123.076 74.3417C128.651 74.3417 133.171 69.8219 133.171 64.2464C133.171 58.6709 128.651 54.1511 123.076 54.1511C117.5 54.1511 112.981 58.6709 112.981 64.2464C112.981 69.8219 117.5 74.3417 123.076 74.3417Z" fill="#AC441D"/>
<path d="M96.5287 130.385C102.104 130.385 106.624 125.865 106.624 120.289C106.624 114.714 102.104 110.194 96.5287 110.194C90.9533 110.194 86.4335 114.714 86.4335 120.289C86.4335 125.865 90.9533 130.385 96.5287 130.385Z" fill="#AC441D"/>
<path d="M15.4142 103.837C20.9897 103.837 25.5095 99.3175 25.5095 93.7421C25.5095 88.1666 20.9897 83.6468 15.4142 83.6468C9.83878 83.6468 5.31897 88.1666 5.31897 93.7421C5.31897 99.3175 9.83878 103.837 15.4142 103.837Z" fill="#AC441D"/>
<path d="M76.3926 112.433C76.0229 112.317 75.634 112.275 75.2482 112.31C74.8623 112.345 74.4872 112.455 74.1442 112.635C73.8011 112.815 73.497 113.061 73.2492 113.359C73.0014 113.657 72.8149 114.001 72.7002 114.371C72.5847 114.74 72.5433 115.129 72.5783 115.515C72.6132 115.9 72.7239 116.276 72.9039 116.618C73.0838 116.961 73.3297 117.265 73.6272 117.513C73.9248 117.761 74.2683 117.948 74.6382 118.063L80.5542 119.904C80.6031 117.856 81.0261 115.898 81.7795 114.108L76.3926 112.433ZM17.3563 77.879L17.0054 73.6753C15.5652 74.1023 14.0434 74.3417 12.4658 74.3417C12.017 74.3417 11.575 74.3104 11.1357 74.2737L11.4689 78.2612C12.7337 77.9389 14.0515 77.7485 15.4156 77.7485C16.0725 77.7485 16.7185 77.8015 17.3563 77.879ZM109.292 100.928C109.585 100.218 109.589 99.4215 109.304 98.7081C109.018 97.9948 108.466 97.4209 107.764 97.1083C107.062 96.7957 106.266 96.7692 105.545 97.0343C104.824 97.2994 104.235 97.8352 103.903 98.5279L101.041 104.954C102.971 105.522 104.744 106.45 106.298 107.654L109.292 100.928ZM33.8654 99.1943L30.7564 98.226C30.1887 100.158 29.2602 101.965 28.0201 103.552L32.1123 104.826C32.8494 105.026 33.6352 104.932 34.3045 104.564C34.9739 104.197 35.4746 103.584 35.7016 102.855C35.9286 102.125 35.864 101.337 35.5216 100.654C35.1792 99.9716 34.5855 99.4483 33.8654 99.1943ZM55.8838 30.7006C55.6862 30.3675 55.4248 30.0765 55.1147 29.8443C54.8046 29.6122 54.4518 29.4434 54.0764 29.3477C53.701 29.2519 53.3105 29.2311 52.9271 29.2864C52.5437 29.3416 52.1749 29.4719 51.8418 29.6698L39.0755 37.2504C38.4305 37.6629 37.971 38.31 37.7942 39.055C37.6173 39.8 37.737 40.5846 38.1278 41.243C38.5186 41.9014 39.15 42.3822 39.8887 42.5837C40.6274 42.7853 41.4155 42.6919 42.0866 42.3232L54.8529 34.7426C55.5252 34.343 56.0115 33.6928 56.2048 32.9349C56.3981 32.1771 56.2826 31.3734 55.8838 30.7006ZM62.2173 108.019L48.042 103.606C47.3032 103.4 46.5133 103.49 45.8397 103.857C45.1662 104.224 44.6619 104.839 44.434 105.571C44.206 106.303 44.2721 107.095 44.6184 107.78C44.9647 108.464 45.5639 108.987 46.289 109.237L60.4642 113.65C61.1997 113.845 61.982 113.748 62.6479 113.38C63.3138 113.012 63.8118 112.401 64.038 111.674C64.2642 110.948 64.201 110.162 63.8618 109.481C63.5225 108.8 62.9334 108.276 62.2173 108.019ZM89.1126 29.2862L98.4042 39.2183C98.6685 39.5017 98.9862 39.7302 99.3391 39.8906C99.6919 40.051 100.073 40.1402 100.46 40.1531C100.848 40.166 101.234 40.1023 101.596 39.9657C101.959 39.8291 102.291 39.6223 102.574 39.357C103.145 38.8226 103.48 38.0834 103.506 37.3018C103.533 36.5203 103.248 35.7602 102.714 35.1886L92.8853 24.6826C91.9244 26.4381 90.6451 27.9992 89.1126 29.2862ZM109.945 84.966C109.77 85.3223 109.669 85.7101 109.647 86.1064C109.626 86.5027 109.685 86.8993 109.82 87.2724C109.955 87.6455 110.164 87.9875 110.435 88.2779C110.705 88.5683 111.031 88.8012 111.394 88.9626C111.756 89.1241 112.148 89.2107 112.545 89.2174C112.941 89.224 113.336 89.1506 113.703 89.0014C114.071 88.8523 114.405 88.6305 114.685 88.3493C114.965 88.0682 115.186 87.7334 115.333 87.365L118.776 79.6362C116.864 79.1002 115.07 78.2113 113.485 77.0155L109.945 84.966ZM116.343 49.7583L112.854 46.0306C112.59 45.7478 112.272 45.5198 111.919 45.3598C111.566 45.1998 111.186 45.1108 110.799 45.0979C110.412 45.085 110.026 45.1485 109.663 45.2847C109.301 45.421 108.969 45.6273 108.686 45.8918C108.403 46.1564 108.175 46.4741 108.015 46.8268C107.855 47.1795 107.766 47.5602 107.753 47.9473C107.74 48.3344 107.804 48.7202 107.94 49.0827C108.076 49.4453 108.282 49.7774 108.547 50.0602L111.51 53.2277C112.892 51.7811 114.53 50.6046 116.343 49.7583ZM26.8382 51.3781L29.3216 49.9038C29.9666 49.4913 30.4261 48.8442 30.6029 48.0992C30.7798 47.3543 30.6602 46.5697 30.2693 45.9113C29.8785 45.2528 29.2471 44.7721 28.5084 44.5705C27.7697 44.369 26.9816 44.4624 26.3106 44.831L23.3022 46.6181C24.7664 47.9713 25.9655 49.5855 26.8382 51.3781ZM120.873 58.9166L119.641 60.0345L118.705 60.9158L120.873 58.9166Z" fill="#AC441D"/>
<path d="M12.4644 68.442C18.0399 68.442 22.5597 63.9222 22.5597 58.3467C22.5597 52.7712 18.0399 48.2514 12.4644 48.2514C6.88895 48.2514 2.36914 52.7712 2.36914 58.3467C2.36914 63.9222 6.88895 68.442 12.4644 68.442Z" fill="#AC441D"/>
<g filter="url(#filter0_d_6_518)">
<path d="M72.6845 88.0176V131.026H68.3325V108.37C68.3325 103.975 68.4605 99.7296 68.7165 95.6336L59.9485 119.57H55.1485L46.2525 95.6336C46.5512 99.6016 46.7005 103.826 46.7005 108.306V131.026H42.4125V88.0176H47.7885L57.5165 114.962L67.2445 88.0176H72.6845ZM90.5355 127.122C92.6689 127.122 94.7169 126.46 96.6795 125.138V94.6096H101.224V131.026H96.8715V129.298C94.3969 130.535 91.8582 131.154 89.2555 131.154C86.6955 131.154 84.6475 130.386 83.1115 128.85C81.5755 127.271 80.8075 125.01 80.8075 122.066V94.6096H85.3515V121.682C85.3515 125.308 87.0795 127.122 90.5355 127.122ZM107.031 103.186C107.031 100.199 107.884 97.9802 109.591 96.5296C111.298 95.0362 114.092 94.2896 117.975 94.2896C120.364 94.2896 122.732 94.6522 125.079 95.3776V99.6016C122.946 98.8336 120.599 98.4496 118.039 98.4496C115.479 98.4496 113.751 98.8336 112.855 99.6016C111.959 100.327 111.511 101.564 111.511 103.314V104.978C111.511 106.343 111.767 107.388 112.279 108.114C112.834 108.839 113.836 109.522 115.287 110.162L120.791 112.85C124.631 114.727 126.551 117.33 126.551 120.658V122.386C126.551 128.359 122.69 131.346 114.967 131.346C112.066 131.346 109.506 131.004 107.287 130.322V126.098C109.506 126.866 111.959 127.25 114.647 127.25C117.378 127.25 119.276 126.844 120.343 126.034C121.452 125.18 122.007 123.943 122.007 122.322V121.042C122.007 119.847 121.73 118.93 121.175 118.29C120.62 117.607 119.532 116.882 117.911 116.114L112.407 113.49C108.823 111.783 107.031 109.074 107.031 105.362V103.186ZM131.73 121.746V103.954C131.73 100.924 132.583 98.5136 134.29 96.7216C136.039 94.8869 138.663 93.9696 142.162 93.9696C145.661 93.9696 148.242 94.8869 149.906 96.7216C151.613 98.5136 152.466 100.924 152.466 103.954V115.09H136.21V121.554C136.21 123.474 136.807 124.903 138.002 125.842C139.197 126.78 141.053 127.25 143.57 127.25C146.087 127.25 148.69 126.866 151.378 126.098V130.322C149.245 131.004 146.706 131.346 143.762 131.346C135.741 131.346 131.73 128.146 131.73 121.746ZM136.21 111.314H148.114V103.954C148.114 99.9429 146.13 97.9376 142.162 97.9376C138.194 97.9376 136.21 99.9429 136.21 103.954V111.314ZM169.243 127.122C171.376 127.122 173.424 126.46 175.387 125.138V94.6096H179.931V131.026H175.579V129.298C173.104 130.535 170.566 131.154 167.963 131.154C165.403 131.154 163.355 130.386 161.819 128.85C160.283 127.271 159.515 125.01 159.515 122.066V94.6096H164.059V121.682C164.059 125.308 165.787 127.122 169.243 127.122ZM206.859 97.1056C209.803 95.3562 212.725 94.4816 215.627 94.4816C218.528 94.4816 220.747 95.2282 222.283 96.7216C223.819 98.1722 224.587 100.242 224.587 102.93V131.026H219.979V103.378C219.979 100.263 218.421 98.7056 215.307 98.7056C213.003 98.7056 210.699 99.4096 208.395 100.818C208.608 101.458 208.715 102.311 208.715 103.378V131.026H204.171V103.378C204.171 100.263 202.592 98.7056 199.435 98.7056C197.429 98.7056 195.253 99.2602 192.907 100.37V131.026H188.363V94.6096H192.715V96.2736C195.573 95.0789 198.069 94.4816 200.203 94.4816C203.104 94.4816 205.323 95.3562 206.859 97.1056Z" fill="#E3D3B3"/>
<path d="M72.6845 88.0176H73.6845V87.0176H72.6845V88.0176ZM72.6845 131.026V132.026H73.6845V131.026H72.6845ZM68.3325 131.026H67.3325V132.026H68.3325V131.026ZM68.7165 95.6336L69.7146 95.6959L67.7775 95.2896L68.7165 95.6336ZM59.9485 119.57V120.57H60.6472L60.8875 119.914L59.9485 119.57ZM55.1485 119.57L54.2112 119.918L54.4533 120.57H55.1485V119.57ZM46.2525 95.6336L47.1899 95.2852L45.2553 95.7086L46.2525 95.6336ZM46.7005 131.026V132.026H47.7005V131.026H46.7005ZM42.4125 131.026H41.4125V132.026H42.4125V131.026ZM42.4125 88.0176V87.0176H41.4125V88.0176H42.4125ZM47.7885 88.0176L48.7291 87.678L48.4907 87.0176H47.7885V88.0176ZM57.5165 114.962L56.5759 115.301L57.5165 117.906L58.4571 115.301L57.5165 114.962ZM67.2445 88.0176V87.0176H66.5424L66.3039 87.678L67.2445 88.0176ZM71.6845 88.0176V131.026H73.6845V88.0176H71.6845ZM72.6845 130.026H68.3325V132.026H72.6845V130.026ZM69.3325 131.026V108.37H67.3325V131.026H69.3325ZM69.3325 108.37C69.3325 103.994 69.46 99.7698 69.7146 95.6959L67.7185 95.5712C67.4611 99.6894 67.3325 103.956 67.3325 108.37H69.3325ZM67.7775 95.2896L59.0095 119.226L60.8875 119.914L69.6555 95.9775L67.7775 95.2896ZM59.9485 118.57H55.1485V120.57H59.9485V118.57ZM56.0859 119.221L47.1899 95.2852L45.3152 95.9819L54.2112 119.918L56.0859 119.221ZM45.2553 95.7086C45.5519 99.6488 45.7005 103.848 45.7005 108.306H47.7005C47.7005 103.804 47.5505 99.5544 47.2497 95.5585L45.2553 95.7086ZM45.7005 108.306V131.026H47.7005V108.306H45.7005ZM46.7005 130.026H42.4125V132.026H46.7005V130.026ZM43.4125 131.026V88.0176H41.4125V131.026H43.4125ZM42.4125 89.0176H47.7885V87.0176H42.4125V89.0176ZM46.8479 88.3572L56.5759 115.301L58.4571 114.622L48.7291 87.678L46.8479 88.3572ZM58.4571 115.301L68.1851 88.3572L66.3039 87.678L56.5759 114.622L58.4571 115.301ZM67.2445 89.0176H72.6845V87.0176H67.2445V89.0176ZM96.6795 125.138L97.2384 125.967L97.6795 125.67V125.138H96.6795ZM96.6795 94.6096V93.6096H95.6795V94.6096H96.6795ZM101.224 94.6096H102.224V93.6096H101.224V94.6096ZM101.224 131.026V132.026H102.224V131.026H101.224ZM96.8715 131.026H95.8715V132.026H96.8715V131.026ZM96.8715 129.298H97.8715V127.68L96.4243 128.403L96.8715 129.298ZM83.1115 128.85L82.3947 129.547L82.4044 129.557L83.1115 128.85ZM80.8075 94.6096V93.6096H79.8075V94.6096H80.8075ZM85.3515 94.6096H86.3515V93.6096H85.3515V94.6096ZM90.5355 128.122C92.8895 128.122 95.1294 127.388 97.2384 125.967L96.1207 124.308C94.3043 125.532 92.4482 126.122 90.5355 126.122V128.122ZM97.6795 125.138V94.6096H95.6795V125.138H97.6795ZM96.6795 95.6096H101.224V93.6096H96.6795V95.6096ZM100.224 94.6096V131.026H102.224V94.6096H100.224ZM101.224 130.026H96.8715V132.026H101.224V130.026ZM97.8715 131.026V129.298H95.8715V131.026H97.8715ZM96.4243 128.403C94.0795 129.576 91.6932 130.154 89.2555 130.154V132.154C92.0232 132.154 94.7142 131.494 97.3187 130.192L96.4243 128.403ZM89.2555 130.154C86.9098 130.154 85.1339 129.458 83.8186 128.142L82.4044 129.557C84.1611 131.313 86.4813 132.154 89.2555 132.154V130.154ZM83.8282 128.152C82.5283 126.816 81.8075 124.839 81.8075 122.066H79.8075C79.8075 125.18 80.6227 127.726 82.3948 129.547L83.8282 128.152ZM81.8075 122.066V94.6096H79.8075V122.066H81.8075ZM80.8075 95.6096H85.3515V93.6096H80.8075V95.6096ZM84.3515 94.6096V121.682H86.3515V94.6096H84.3515ZM84.3515 121.682C84.3515 123.637 84.8166 125.29 85.9236 126.451C87.0391 127.622 88.6408 128.122 90.5355 128.122V126.122C88.9743 126.122 87.9839 125.714 87.3715 125.072C86.7504 124.42 86.3515 123.352 86.3515 121.682H84.3515ZM109.591 96.5296L110.239 97.2915L110.244 97.2869L110.25 97.2822L109.591 96.5296ZM125.079 95.3776H126.079V94.64L125.374 94.4222L125.079 95.3776ZM125.079 99.6016L124.74 100.542L126.079 101.024V99.6016H125.079ZM112.855 99.6016L113.484 100.379L113.495 100.37L113.506 100.361L112.855 99.6016ZM112.279 108.114L111.462 108.69L111.473 108.706L111.485 108.721L112.279 108.114ZM115.287 110.162L115.726 109.263L115.708 109.254L115.691 109.247L115.287 110.162ZM120.791 112.85L121.23 111.951L121.23 111.951L120.791 112.85ZM107.287 130.322H106.287V131.06L106.993 131.277L107.287 130.322ZM107.287 126.098L107.614 125.153L106.287 124.693V126.098H107.287ZM120.343 126.034L120.948 126.83L120.953 126.826L120.343 126.034ZM121.175 118.29L120.399 118.92L120.409 118.932L120.419 118.945L121.175 118.29ZM117.911 116.114L117.481 117.016L117.483 117.017L117.911 116.114ZM112.407 113.49L112.837 112.587L112.837 112.587L112.407 113.49ZM108.031 103.186C108.031 100.389 108.824 98.4939 110.239 97.2915L108.943 95.7676C106.945 97.4665 106.031 100.009 106.031 103.186H108.031ZM110.25 97.2822C111.682 96.0283 114.176 95.2896 117.975 95.2896V93.2896C114.008 93.2896 110.913 94.0441 108.933 95.777L110.25 97.2822ZM117.975 95.2896C120.261 95.2896 122.53 95.6364 124.784 96.333L125.374 94.4222C122.935 93.6681 120.467 93.2896 117.975 93.2896V95.2896ZM124.079 95.3776V99.6016H126.079V95.3776H124.079ZM125.418 98.6607C123.163 97.8489 120.7 97.4496 118.039 97.4496V99.4496C120.498 99.4496 122.729 99.8183 124.74 100.542L125.418 98.6607ZM118.039 97.4496C116.715 97.4496 115.565 97.5483 114.606 97.7614C113.656 97.9726 112.824 98.3113 112.204 98.8423L113.506 100.361C113.782 100.124 114.262 99.8865 115.04 99.7138C115.809 99.5429 116.803 99.4496 118.039 99.4496V97.4496ZM112.226 98.8243C110.995 99.8209 110.511 101.421 110.511 103.314H112.511C112.511 101.707 112.923 100.833 113.484 100.379L112.226 98.8243ZM110.511 103.314V104.978H112.511V103.314H110.511ZM110.511 104.978C110.511 106.446 110.783 107.728 111.462 108.69L113.096 107.537C112.751 107.049 112.511 106.24 112.511 104.978H110.511ZM111.485 108.721C112.191 109.645 113.377 110.412 114.883 111.076L115.691 109.247C114.296 108.631 113.476 108.032 113.073 107.506L111.485 108.721ZM114.848 111.06L120.352 113.748L121.23 111.951L115.726 109.263L114.848 111.06ZM120.352 113.748C123.965 115.514 125.551 117.826 125.551 120.658H127.551C127.551 116.833 125.297 113.939 121.23 111.951L120.352 113.748ZM125.551 120.658V122.386H127.551V120.658H125.551ZM125.551 122.386C125.551 125.14 124.674 127.053 123.043 128.315C121.364 129.614 118.727 130.346 114.967 130.346V132.346C118.929 132.346 122.085 131.584 124.267 129.897C126.497 128.171 127.551 125.605 127.551 122.386H125.551ZM114.967 130.346C112.142 130.346 109.684 130.013 107.581 129.366L106.993 131.277C109.327 131.996 111.99 132.346 114.967 132.346V130.346ZM108.287 130.322V126.098H106.287V130.322H108.287ZM106.96 127.043C109.298 127.852 111.864 128.25 114.647 128.25V126.25C112.054 126.25 109.714 125.879 107.614 125.153L106.96 127.043ZM114.647 128.25C117.408 128.25 119.601 127.853 120.948 126.83L119.738 125.237C118.952 125.835 117.347 126.25 114.647 126.25V128.25ZM120.953 126.826C122.349 125.752 123.007 124.198 123.007 122.322H121.007C121.007 123.688 120.556 124.608 119.733 125.241L120.953 126.826ZM123.007 122.322V121.042H121.007V122.322H123.007ZM123.007 121.042C123.007 119.704 122.697 118.519 121.931 117.635L120.419 118.945C120.762 119.34 121.007 119.99 121.007 121.042H123.007ZM121.951 117.659C121.247 116.792 119.983 115.989 118.339 115.21L117.483 117.017C119.081 117.774 119.994 118.421 120.399 118.92L121.951 117.659ZM118.341 115.211L112.837 112.587L111.977 114.392L117.481 117.016L118.341 115.211ZM112.837 112.587C111.173 111.794 109.985 110.799 109.209 109.626C108.436 108.457 108.031 107.05 108.031 105.362H106.031C106.031 107.385 106.522 109.188 107.541 110.729C108.557 112.266 110.057 113.478 111.977 114.392L112.837 112.587ZM108.031 105.362V103.186H106.031V105.362H108.031ZM134.29 96.7216L133.566 96.0315L133.566 96.0319L134.29 96.7216ZM149.906 96.7216L149.165 97.3934L149.173 97.4024L149.182 97.4112L149.906 96.7216ZM152.466 115.09V116.09H153.466V115.09H152.466ZM136.21 115.09V114.09H135.21V115.09H136.21ZM138.002 125.842L137.384 126.628L138.002 125.842ZM151.378 126.098H152.378V124.772L151.103 125.136L151.378 126.098ZM151.378 130.322L151.683 131.274L152.378 131.052V130.322H151.378ZM136.21 111.314H135.21V112.314H136.21V111.314ZM148.114 111.314V112.314H149.114V111.314H148.114ZM132.73 121.746V103.954H130.73V121.746H132.73ZM132.73 103.954C132.73 101.12 133.522 98.9775 135.014 97.4112L133.566 96.0319C131.644 98.0496 130.73 100.728 130.73 103.954H132.73ZM135.014 97.4116C136.512 95.8408 138.83 94.9696 142.162 94.9696V92.9696C138.497 92.9696 135.567 93.933 133.566 96.0315L135.014 97.4116ZM142.162 94.9696C145.498 94.9696 147.759 95.8424 149.165 97.3934L150.647 96.0498C148.725 93.9315 145.823 92.9696 142.162 92.9696V94.9696ZM149.182 97.4112C150.674 98.9775 151.466 101.12 151.466 103.954H153.466C153.466 100.728 152.552 98.0496 150.63 96.0319L149.182 97.4112ZM151.466 103.954V115.09H153.466V103.954H151.466ZM152.466 114.09H136.21V116.09H152.466V114.09ZM135.21 115.09V121.554H137.21V115.09H135.21ZM135.21 121.554C135.21 123.692 135.886 125.451 137.384 126.628L138.62 125.055C137.729 124.355 137.21 123.255 137.21 121.554H135.21ZM137.384 126.628C138.838 127.77 140.964 128.25 143.57 128.25V126.25C141.142 126.25 139.555 125.79 138.62 125.055L137.384 126.628ZM143.57 128.25C146.19 128.25 148.885 127.85 151.653 127.059L151.103 125.136C148.495 125.881 145.985 126.25 143.57 126.25V128.25ZM150.378 126.098V130.322H152.378V126.098H150.378ZM151.073 129.369C149.064 130.012 146.633 130.346 143.762 130.346V132.346C146.779 132.346 149.426 131.996 151.683 131.274L151.073 129.369ZM143.762 130.346C139.858 130.346 137.114 129.562 135.362 128.164C133.652 126.8 132.73 124.724 132.73 121.746H130.73C130.73 125.167 131.813 127.891 134.114 129.727C136.372 131.529 139.645 132.346 143.762 132.346V130.346ZM136.21 112.314H148.114V110.314H136.21V112.314ZM149.114 111.314V103.954H147.114V111.314H149.114ZM149.114 103.954C149.114 101.797 148.58 99.995 147.337 98.7383C146.092 97.4796 144.303 96.9376 142.162 96.9376V98.9376C143.989 98.9376 145.176 99.3982 145.915 100.145C146.656 100.894 147.114 102.1 147.114 103.954H149.114ZM142.162 96.9376C140.021 96.9376 138.232 97.4796 136.987 98.7383C135.744 99.995 135.21 101.797 135.21 103.954H137.21C137.21 102.1 137.668 100.894 138.409 100.145C139.148 99.3982 140.335 98.9376 142.162 98.9376V96.9376ZM135.21 103.954V111.314H137.21V103.954H135.21ZM175.387 125.138L175.946 125.967L176.387 125.67V125.138H175.387ZM175.387 94.6096V93.6096H174.387V94.6096H175.387ZM179.931 94.6096H180.931V93.6096H179.931V94.6096ZM179.931 131.026V132.026H180.931V131.026H179.931ZM175.579 131.026H174.579V132.026H175.579V131.026ZM175.579 129.298H176.579V127.68L175.132 128.403L175.579 129.298ZM161.819 128.85L161.102 129.547L161.112 129.557L161.819 128.85ZM159.515 94.6096V93.6096H158.515V94.6096H159.515ZM164.059 94.6096H165.059V93.6096H164.059V94.6096ZM169.243 128.122C171.597 128.122 173.837 127.388 175.946 125.967L174.828 124.308C173.012 125.532 171.156 126.122 169.243 126.122V128.122ZM176.387 125.138V94.6096H174.387V125.138H176.387ZM175.387 95.6096H179.931V93.6096H175.387V95.6096ZM178.931 94.6096V131.026H180.931V94.6096H178.931ZM179.931 130.026H175.579V132.026H179.931V130.026ZM176.579 131.026V129.298H174.579V131.026H176.579ZM175.132 128.403C172.787 129.576 170.401 130.154 167.963 130.154V132.154C170.731 132.154 173.422 131.494 176.026 130.192L175.132 128.403ZM167.963 130.154C165.617 130.154 163.841 129.458 162.526 128.142L161.112 129.557C162.869 131.313 165.189 132.154 167.963 132.154V130.154ZM162.536 128.152C161.236 126.816 160.515 124.839 160.515 122.066H158.515C158.515 125.18 159.33 127.726 161.102 129.547L162.536 128.152ZM160.515 122.066V94.6096H158.515V122.066H160.515ZM159.515 95.6096H164.059V93.6096H159.515V95.6096ZM163.059 94.6096V121.682H165.059V94.6096H163.059ZM163.059 121.682C163.059 123.637 163.524 125.29 164.631 126.451C165.747 127.622 167.348 128.122 169.243 128.122V126.122C167.682 126.122 166.691 125.714 166.079 125.072C165.458 124.42 165.059 123.352 165.059 121.682H163.059ZM206.859 97.1056L206.107 97.7654L206.655 98.3896L207.369 97.9653L206.859 97.1056ZM222.283 96.7216L221.585 97.4386L221.591 97.4436L221.596 97.4486L222.283 96.7216ZM224.587 131.026V132.026H225.587V131.026H224.587ZM219.979 131.026H218.979V132.026H219.979V131.026ZM208.395 100.818L207.873 99.9643L207.194 100.379L207.446 101.134L208.395 100.818ZM208.715 131.026V132.026H209.715V131.026H208.715ZM204.171 131.026H203.171V132.026H204.171V131.026ZM192.907 100.37L192.479 99.4655L191.907 99.7362V100.37H192.907ZM192.907 131.026V132.026H193.907V131.026H192.907ZM188.363 131.026H187.363V132.026H188.363V131.026ZM188.363 94.6096V93.6096H187.363V94.6096H188.363ZM192.715 94.6096H193.715V93.6096H192.715V94.6096ZM192.715 96.2736H191.715V97.7753L193.1 97.1962L192.715 96.2736ZM207.369 97.9653C210.187 96.2911 212.935 95.4816 215.627 95.4816V93.4816C212.515 93.4816 209.418 94.4214 206.348 96.2459L207.369 97.9653ZM215.627 95.4816C218.362 95.4816 220.294 96.1833 221.585 97.4386L222.98 96.0046C221.199 94.2732 218.694 93.4816 215.627 93.4816V95.4816ZM221.596 97.4486C222.881 98.662 223.587 100.437 223.587 102.93H225.587C225.587 100.046 224.756 97.6825 222.969 95.9946L221.596 97.4486ZM223.587 102.93V131.026H225.587V102.93H223.587ZM224.587 130.026H219.979V132.026H224.587V130.026ZM220.979 131.026V103.378H218.979V131.026H220.979ZM220.979 103.378C220.979 101.666 220.55 100.199 219.518 99.1665C218.485 98.1341 217.018 97.7056 215.307 97.7056V99.7056C216.71 99.7056 217.578 100.056 218.103 100.581C218.628 101.106 218.979 101.974 218.979 103.378H220.979ZM215.307 97.7056C212.789 97.7056 210.307 98.4771 207.873 99.9643L208.916 101.671C211.09 100.342 213.216 99.7056 215.307 99.7056V97.7056ZM207.446 101.134C207.611 101.63 207.715 102.364 207.715 103.378H209.715C209.715 102.258 209.604 101.285 209.343 100.501L207.446 101.134ZM207.715 103.378V131.026H209.715V103.378H207.715ZM208.715 130.026H204.171V132.026H208.715V130.026ZM205.171 131.026V103.378H203.171V131.026H205.171ZM205.171 103.378C205.171 101.663 204.735 100.194 203.689 99.1617C202.645 98.1323 201.164 97.7056 199.435 97.7056V99.7056C200.862 99.7056 201.749 100.057 202.284 100.585C202.817 101.111 203.171 101.978 203.171 103.378H205.171ZM199.435 97.7056C197.245 97.7056 194.922 98.3109 192.479 99.4655L193.334 101.274C195.585 100.21 197.614 99.7056 199.435 99.7056V97.7056ZM191.907 100.37V131.026H193.907V100.37H191.907ZM192.907 130.026H188.363V132.026H192.907V130.026ZM189.363 131.026V94.6096H187.363V131.026H189.363ZM188.363 95.6096H192.715V93.6096H188.363V95.6096ZM191.715 94.6096V96.2736H193.715V94.6096H191.715ZM193.1 97.1962C195.887 96.0314 198.247 95.4816 200.203 95.4816V93.4816C197.891 93.4816 195.259 94.1264 192.329 95.3509L193.1 97.1962ZM200.203 95.4816C202.893 95.4816 204.806 96.2838 206.107 97.7654L207.61 96.4458C205.839 94.4287 203.315 93.4816 200.203 93.4816V95.4816Z" fill="#E3D3B3"/>
</g>
<g filter="url(#filter1_d_6_518)">
<path d="M42.1469 45.4898C42.1469 42.6738 43.0856 40.4764 44.9629 38.8978C46.8402 37.2764 49.4642 36.4658 52.8349 36.4658C56.2482 36.4658 59.1282 36.8284 61.4749 37.5538V41.9058C59.2562 41.0951 56.5469 40.6898 53.3469 40.6898C48.9522 40.6898 46.7549 42.3538 46.7549 45.6818V48.7538C46.7549 50.2471 47.0322 51.4204 47.5869 52.2738C48.1842 53.1271 49.1656 53.9378 50.5309 54.7058L57.9549 58.8658C61.4109 60.7431 63.1389 63.5804 63.1389 67.3778V70.8338C63.1389 73.7778 62.1362 76.0604 60.1309 77.6818C58.1256 79.3031 55.2242 80.1138 51.4269 80.1138C47.6722 80.1138 44.6856 79.6871 42.4669 78.8338V74.4818C44.9842 75.4204 47.8429 75.8898 51.0429 75.8898C56.0776 75.8898 58.5949 74.1191 58.5949 70.5778V67.8898C58.5949 66.4818 58.3389 65.3724 57.8269 64.5618C57.3149 63.7511 56.3976 62.9831 55.0749 62.2578L47.7149 58.2258C44.0029 56.2204 42.1469 53.2338 42.1469 49.2658V45.4898ZM72.5334 52.2738C72.5334 46.1298 76.1174 43.0578 83.2854 43.0578C85.9307 43.0578 88.1921 43.3564 90.0694 43.9538V48.1138C88.0214 47.5591 85.8027 47.2818 83.4134 47.2818C81.0241 47.2818 79.3601 47.7084 78.4214 48.5618C77.5254 49.3724 77.0774 50.6524 77.0774 52.4018V70.8338C77.0774 72.6258 77.5254 73.9271 78.4214 74.7378C79.3601 75.5484 81.0667 75.9538 83.5414 75.9538C86.0161 75.9538 88.2347 75.6124 90.1974 74.9298V79.2178C87.8934 79.8151 85.5894 80.1138 83.2854 80.1138C76.1174 80.1138 72.5334 77.0844 72.5334 71.0258V52.2738ZM102.691 39.2818C100.856 39.2818 99.9389 38.3004 99.9389 36.3378C99.9389 34.3751 100.856 33.3938 102.691 33.3938C104.568 33.3938 105.507 34.3751 105.507 36.3378C105.507 38.3004 104.568 39.2818 102.691 39.2818ZM100.451 43.6338H104.995V79.7938H100.451V43.6338ZM116.776 70.5138V52.7218C116.776 49.6924 117.629 47.2818 119.336 45.4898C121.085 43.6551 123.709 42.7378 127.208 42.7378C130.707 42.7378 133.288 43.6551 134.952 45.4898C136.659 47.2818 137.512 49.6924 137.512 52.7218V63.8578H121.256V70.3218C121.256 72.2418 121.853 73.6711 123.048 74.6098C124.243 75.5484 126.099 76.0178 128.616 76.0178C131.133 76.0178 133.736 75.6338 136.424 74.8658V79.0898C134.291 79.7724 131.752 80.1138 128.808 80.1138C120.787 80.1138 116.776 76.9138 116.776 70.5138ZM121.256 60.0818H133.16V52.7218C133.16 48.7111 131.176 46.7058 127.208 46.7058C123.24 46.7058 121.256 48.7111 121.256 52.7218V60.0818ZM153.233 45.0418C156.092 43.8471 158.694 43.2498 161.041 43.2498C163.43 43.2498 165.393 43.9964 166.929 45.4898C168.465 46.9404 169.233 49.0098 169.233 51.6978V79.7938H164.689V52.1458C164.689 49.0311 163.11 47.4738 159.953 47.4738C157.948 47.4738 155.772 48.0284 153.425 49.1378V79.7938H148.881V43.3778H153.233V45.0418ZM180.706 52.2738C180.706 46.1298 184.29 43.0578 191.458 43.0578C194.103 43.0578 196.365 43.3564 198.242 43.9538V48.1138C196.194 47.5591 193.975 47.2818 191.586 47.2818C189.197 47.2818 187.533 47.7084 186.594 48.5618C185.698 49.3724 185.25 50.6524 185.25 52.4018V70.8338C185.25 72.6258 185.698 73.9271 186.594 74.7378C187.533 75.5484 189.239 75.9538 191.714 75.9538C194.189 75.9538 196.407 75.6124 198.37 74.9298V79.2178C196.066 79.8151 193.762 80.1138 191.458 80.1138C184.29 80.1138 180.706 77.0844 180.706 71.0258V52.2738ZM207.983 70.5138V52.7218C207.983 49.6924 208.837 47.2818 210.543 45.4898C212.293 43.6551 214.917 42.7378 218.415 42.7378C221.914 42.7378 224.495 43.6551 226.159 45.4898C227.866 47.2818 228.719 49.6924 228.719 52.7218V63.8578H212.463V70.3218C212.463 72.2418 213.061 73.6711 214.255 74.6098C215.45 75.5484 217.306 76.0178 219.823 76.0178C222.341 76.0178 224.943 75.6338 227.631 74.8658V79.0898C225.498 79.7724 222.959 80.1138 220.015 80.1138C211.994 80.1138 207.983 76.9138 207.983 70.5138ZM212.463 60.0818H224.367V52.7218C224.367 48.7111 222.383 46.7058 218.415 46.7058C214.447 46.7058 212.463 48.7111 212.463 52.7218V60.0818Z" fill="#E3D3B3"/>
<path d="M44.9629 38.8978L45.6065 39.6632L45.6165 39.6546L44.9629 38.8978ZM61.4749 37.5538H62.4749V36.8162L61.7702 36.5984L61.4749 37.5538ZM61.4749 41.9058L61.1317 42.845L62.4749 43.3358V41.9058H61.4749ZM47.5869 52.2738L46.7484 52.8187L46.7578 52.8332L46.7677 52.8472L47.5869 52.2738ZM50.5309 54.7058L50.0406 55.5773L50.0421 55.5781L50.5309 54.7058ZM57.9549 58.8658L57.466 59.7382L57.4776 59.7445L57.9549 58.8658ZM60.1309 77.6818L60.7596 78.4594L60.1309 77.6818ZM42.4669 78.8338H41.4669V79.5206L42.1079 79.7671L42.4669 78.8338ZM42.4669 74.4818L42.8163 73.5448L41.4669 73.0416V74.4818H42.4669ZM57.8269 64.5618L56.9814 65.0958L56.9814 65.0958L57.8269 64.5618ZM55.0749 62.2578L55.5557 61.3809L55.5553 61.3807L55.0749 62.2578ZM47.7149 58.2258L48.1954 57.3487L48.1902 57.3459L47.7149 58.2258ZM43.1469 45.4898C43.1469 42.9202 43.99 41.0225 45.6065 39.6631L44.3193 38.1324C42.1811 39.9304 41.1469 42.4273 41.1469 45.4898H43.1469ZM45.6165 39.6546C47.256 38.2387 49.6177 37.4658 52.8349 37.4658V35.4658C49.3107 35.4658 46.4245 36.3142 44.3093 38.1409L45.6165 39.6546ZM52.8349 37.4658C56.184 37.4658 58.9577 37.8224 61.1796 38.5092L61.7702 36.5984C59.2987 35.8345 56.3124 35.4658 52.8349 35.4658V37.4658ZM60.4749 37.5538V41.9058H62.4749V37.5538H60.4749ZM61.8181 40.9665C59.4581 40.1042 56.6252 39.6898 53.3469 39.6898V41.6898C56.4686 41.6898 59.0543 42.086 61.1317 42.845L61.8181 40.9665ZM53.3469 39.6898C51.0519 39.6898 49.1478 40.1193 47.7992 41.1406C46.3981 42.2016 45.7549 43.7774 45.7549 45.6818H47.7549C47.7549 44.2581 48.2103 43.338 49.0066 42.735C49.8553 42.0923 51.2472 41.6898 53.3469 41.6898V39.6898ZM45.7549 45.6818V48.7538H47.7549V45.6818H45.7549ZM45.7549 48.7538C45.7549 50.3552 46.0499 51.744 46.7484 52.8187L48.4253 51.7288C48.0146 51.0968 47.7549 50.139 47.7549 48.7538H45.7549ZM46.7677 52.8472C47.4832 53.8694 48.6047 54.7696 50.0406 55.5773L51.0212 53.8342C49.7264 53.1059 48.8852 52.3848 48.4061 51.7003L46.7677 52.8472ZM50.0421 55.5781L57.4661 59.7381L58.4437 57.9934L51.0197 53.8334L50.0421 55.5781ZM57.4776 59.7445C59.0792 60.6145 60.2322 61.6795 60.9888 62.9219C61.7443 64.1625 62.1389 65.6358 62.1389 67.3778H64.1389C64.1389 65.3224 63.6694 63.4784 62.697 61.8816C61.7256 60.2867 60.2866 58.9943 58.4322 57.987L57.4776 59.7445ZM62.1389 67.3778V70.8338H64.1389V67.3778H62.1389ZM62.1389 70.8338C62.1389 73.524 61.2376 75.501 59.5022 76.9041L60.7596 78.4594C63.0348 76.6199 64.1389 74.0316 64.1389 70.8338H62.1389ZM59.5022 76.9041C57.7419 78.3273 55.0999 79.1138 51.4269 79.1138V81.1138C55.3486 81.1138 58.5092 80.2788 60.7596 78.4594L59.5022 76.9041ZM51.4269 79.1138C47.7321 79.1138 44.8832 78.6917 42.8259 77.9004L42.1079 79.7671C44.488 80.6825 47.6124 81.1138 51.4269 81.1138V79.1138ZM43.4669 78.8338V74.4818H41.4669V78.8338H43.4669ZM42.1175 75.4187C44.7657 76.4062 47.7458 76.8898 51.0429 76.8898V74.8898C47.9399 74.8898 45.2027 74.4347 42.8163 73.5448L42.1175 75.4187ZM51.0429 76.8898C53.6469 76.8898 55.7785 76.4374 57.2822 75.3797C58.8502 74.2768 59.5949 72.6174 59.5949 70.5778H57.5949C57.5949 72.0794 57.0809 73.0761 56.1316 73.7438C55.1179 74.4568 53.4736 74.8898 51.0429 74.8898V76.8898ZM59.5949 70.5778V67.8898H57.5949V70.5778H59.5949ZM59.5949 67.8898C59.5949 66.3761 59.3221 65.0565 58.6724 64.0278L56.9814 65.0958C57.3557 65.6884 57.5949 66.5875 57.5949 67.8898H59.5949ZM58.6724 64.0278C58.0323 63.0143 56.9499 62.1455 55.5557 61.3809L54.5941 63.1346C55.8452 63.8207 56.5975 64.4879 56.9814 65.0958L58.6724 64.0278ZM55.5553 61.3807L48.1953 57.3487L47.2344 59.1028L54.5944 63.1348L55.5553 61.3807ZM48.1902 57.3459C46.4568 56.4095 45.2076 55.2724 44.3882 53.9539C43.5709 52.6387 43.1469 51.0878 43.1469 49.2658H41.1469C41.1469 51.4117 41.6508 53.3381 42.6895 55.0096C43.7262 56.6778 45.261 58.0367 47.2396 59.1056L48.1902 57.3459ZM43.1469 49.2658V45.4898H41.1469V49.2658H43.1469ZM90.0694 43.9538H91.0694V43.2225L90.3726 43.0008L90.0694 43.9538ZM90.0694 48.1138L89.808 49.079L91.0694 49.4206V48.1138H90.0694ZM78.4214 48.5618L79.0923 49.3033L79.0941 49.3017L78.4214 48.5618ZM78.4214 74.7378L77.7505 75.4793L77.759 75.487L77.7678 75.4946L78.4214 74.7378ZM90.1974 74.9298H91.1974V73.5232L89.8689 73.9853L90.1974 74.9298ZM90.1974 79.2178L90.4484 80.1858L91.1974 79.9916V79.2178H90.1974ZM73.5334 52.2738C73.5334 49.3996 74.3645 47.4133 75.8722 46.121C77.4094 44.8034 79.821 44.0578 83.2854 44.0578V42.0578C79.5817 42.0578 76.6174 42.8481 74.5706 44.6025C72.4943 46.3822 71.5334 49.0039 71.5334 52.2738H73.5334ZM83.2854 44.0578C85.8607 44.0578 88.014 44.3492 89.7662 44.9067L90.3726 43.0008C88.3702 42.3637 86.0007 42.0578 83.2854 42.0578V44.0578ZM89.0694 43.9538V48.1138H91.0694V43.9538H89.0694ZM90.3308 47.1485C88.1876 46.5681 85.8801 46.2818 83.4134 46.2818V48.2818C85.7254 48.2818 87.8551 48.5501 89.808 49.079L90.3308 47.1485ZM83.4134 46.2818C80.9691 46.2818 78.9769 46.7053 77.7487 47.8218L79.0941 49.3017C79.7432 48.7116 81.079 48.2818 83.4134 48.2818V46.2818ZM77.7505 47.8202C76.5654 48.8924 76.0774 50.4987 76.0774 52.4018H78.0774C78.0774 50.8062 78.4854 49.8524 79.0923 49.3033L77.7505 47.8202ZM76.0774 52.4018V70.8338H78.0774V52.4018H76.0774ZM76.0774 70.8338C76.0774 72.7707 76.5609 74.403 77.7505 75.4793L79.0923 73.9962C78.4899 73.4512 78.0774 72.4809 78.0774 70.8338H76.0774ZM77.7678 75.4946C78.9983 76.5573 81.0302 76.9538 83.5414 76.9538V74.9538C81.1033 74.9538 79.7218 74.5395 79.075 73.9809L77.7678 75.4946ZM83.5414 76.9538C86.1071 76.9538 88.4396 76.5999 90.5259 75.8743L89.8689 73.9853C88.0298 74.6249 85.925 74.9538 83.5414 74.9538V76.9538ZM89.1974 74.9298V79.2178H91.1974V74.9298H89.1974ZM89.9464 78.2498C87.7217 78.8266 85.502 79.1138 83.2854 79.1138V81.1138C85.6768 81.1138 88.0651 80.8036 90.4484 80.1858L89.9464 78.2498ZM83.2854 79.1138C79.8183 79.1138 77.4044 78.3776 75.8669 77.078C74.3616 75.8057 73.5334 73.8528 73.5334 71.0258H71.5334C71.5334 74.2574 72.4972 76.8485 74.5759 78.6055C76.6223 80.3353 79.5845 81.1138 83.2854 81.1138V79.1138ZM73.5334 71.0258V52.2738H71.5334V71.0258H73.5334ZM100.451 43.6338V42.6338H99.4509V43.6338H100.451ZM104.995 43.6338H105.995V42.6338H104.995V43.6338ZM104.995 79.7938V80.7938H105.995V79.7938H104.995ZM100.451 79.7938H99.4509V80.7938H100.451V79.7938ZM102.691 38.2818C101.946 38.2818 101.566 38.0856 101.357 37.8629C101.137 37.6274 100.939 37.1811 100.939 36.3378H98.9389C98.9389 37.4571 99.1991 38.4828 99.8964 39.2286C100.605 39.9872 101.601 40.2818 102.691 40.2818V38.2818ZM100.939 36.3378C100.939 35.4944 101.137 35.0481 101.357 34.8126C101.566 34.5899 101.946 34.3938 102.691 34.3938V32.3938C101.601 32.3938 100.605 32.6883 99.8964 33.4469C99.1991 34.1928 98.9389 35.2184 98.9389 36.3378H100.939ZM102.691 34.3938C103.464 34.3938 103.863 34.5935 104.08 34.821C104.306 35.0568 104.507 35.4997 104.507 36.3378H106.507C106.507 35.2131 106.239 34.1841 105.526 33.4385C104.804 32.6847 103.795 32.3938 102.691 32.3938V34.3938ZM104.507 36.3378C104.507 37.1758 104.306 37.6187 104.08 37.8545C103.863 38.082 103.464 38.2818 102.691 38.2818V40.2818C103.795 40.2818 104.804 39.9908 105.526 39.237C106.239 38.4914 106.507 37.4624 106.507 36.3378H104.507ZM100.451 44.6338H104.995V42.6338H100.451V44.6338ZM103.995 43.6338V79.7938H105.995V43.6338H103.995ZM104.995 78.7938H100.451V80.7938H104.995V78.7938ZM101.451 79.7938V43.6338H99.4509V79.7938H101.451ZM119.336 45.4898L118.612 44.7997L118.612 44.8001L119.336 45.4898ZM134.952 45.4898L134.211 46.1616L134.219 46.1706L134.228 46.1794L134.952 45.4898ZM137.512 63.8578V64.8578H138.512V63.8578H137.512ZM121.256 63.8578V62.8578H120.256V63.8578H121.256ZM123.048 74.6098L122.43 75.3961L123.048 74.6098ZM136.424 74.8658H137.424V73.54L136.149 73.9042L136.424 74.8658ZM136.424 79.0898L136.729 80.0422L137.424 79.8197V79.0898H136.424ZM121.256 60.0818H120.256V61.0818H121.256V60.0818ZM133.16 60.0818V61.0818H134.16V60.0818H133.16ZM117.776 70.5138V52.7218H115.776V70.5138H117.776ZM117.776 52.7218C117.776 49.8885 118.568 47.7457 120.06 46.1794L118.612 44.8001C116.69 46.8178 115.776 49.4964 115.776 52.7218H117.776ZM120.06 46.1798C121.557 44.609 123.876 43.7378 127.208 43.7378V41.7378C123.543 41.7378 120.613 42.7012 118.612 44.7997L120.06 46.1798ZM127.208 43.7378C130.544 43.7378 132.804 44.6105 134.211 46.1616L135.693 44.8179C133.771 42.6996 130.869 41.7378 127.208 41.7378V43.7378ZM134.228 46.1794C135.719 47.7457 136.512 49.8885 136.512 52.7218H138.512C138.512 49.4964 137.598 46.8178 135.676 44.8001L134.228 46.1794ZM136.512 52.7218V63.8578H138.512V52.7218H136.512ZM137.512 62.8578H121.256V64.8578H137.512V62.8578ZM120.256 63.8578V70.3218H122.256V63.8578H120.256ZM120.256 70.3218C120.256 72.4599 120.932 74.2191 122.43 75.3961L123.666 73.8234C122.774 73.1231 122.256 72.0236 122.256 70.3218H120.256ZM122.43 75.3961C123.884 76.5383 126.01 77.0178 128.616 77.0178V75.0178C126.188 75.0178 124.601 74.5586 123.666 73.8234L122.43 75.3961ZM128.616 77.0178C131.236 77.0178 133.931 76.618 136.699 75.8273L136.149 73.9042C133.541 74.6495 131.031 75.0178 128.616 75.0178V77.0178ZM135.424 74.8658V79.0898H137.424V74.8658H135.424ZM136.119 78.1373C134.11 78.7804 131.679 79.1138 128.808 79.1138V81.1138C131.825 81.1138 134.471 80.7645 136.729 80.0422L136.119 78.1373ZM128.808 79.1138C124.904 79.1138 122.16 78.3306 120.408 76.9321C118.698 75.568 117.776 73.4921 117.776 70.5138H115.776C115.776 73.9354 116.859 76.6595 119.16 78.4954C121.418 80.2969 124.691 81.1138 128.808 81.1138V79.1138ZM121.256 61.0818H133.16V59.0818H121.256V61.0818ZM134.16 60.0818V52.7218H132.16V60.0818H134.16ZM134.16 52.7218C134.16 50.565 133.626 48.7631 132.383 47.5064C131.137 46.2478 129.349 45.7058 127.208 45.7058V47.7058C129.035 47.7058 130.222 48.1664 130.961 48.9131C131.702 49.6617 132.16 50.8679 132.16 52.7218H134.16ZM127.208 45.7058C125.067 45.7058 123.278 46.2478 122.033 47.5064C120.79 48.7631 120.256 50.565 120.256 52.7218H122.256C122.256 50.8679 122.714 49.6617 123.455 48.9131C124.193 48.1664 125.381 47.7058 127.208 47.7058V45.7058ZM120.256 52.7218V60.0818H122.256V52.7218H120.256ZM153.233 45.0418H152.233V46.5435L153.618 45.9644L153.233 45.0418ZM166.929 45.4898L166.232 46.2068L166.237 46.2118L166.242 46.2168L166.929 45.4898ZM169.233 79.7938V80.7938H170.233V79.7938H169.233ZM164.689 79.7938H163.689V80.7938H164.689V79.7938ZM153.425 49.1378L152.998 48.2337L152.425 48.5044V49.1378H153.425ZM153.425 79.7938V80.7938H154.425V79.7938H153.425ZM148.881 79.7938H147.881V80.7938H148.881V79.7938ZM148.881 43.3778V42.3778H147.881V43.3778H148.881ZM153.233 43.3778H154.233V42.3778H153.233V43.3778ZM153.618 45.9644C156.392 44.8053 158.862 44.2498 161.041 44.2498V42.2498C158.527 42.2498 155.791 42.8889 152.847 44.1191L153.618 45.9644ZM161.041 44.2498C163.203 44.2498 164.905 44.9165 166.232 46.2068L167.626 44.7728C165.881 43.0764 163.658 42.2498 161.041 42.2498V44.2498ZM166.242 46.2168C167.527 47.4302 168.233 49.2055 168.233 51.6978H170.233C170.233 48.814 169.403 46.4507 167.616 44.7627L166.242 46.2168ZM168.233 51.6978V79.7938H170.233V51.6978H168.233ZM169.233 78.7938H164.689V80.7938H169.233V78.7938ZM165.689 79.7938V52.1458H163.689V79.7938H165.689ZM165.689 52.1458C165.689 50.4308 165.253 48.9617 164.207 47.9299C163.164 46.9005 161.682 46.4738 159.953 46.4738V48.4738C161.381 48.4738 162.267 48.8257 162.803 49.3537C163.335 49.8792 163.689 50.746 163.689 52.1458H165.689ZM159.953 46.4738C157.763 46.4738 155.44 47.0791 152.998 48.2337L153.852 50.0418C156.103 48.9778 158.132 48.4738 159.953 48.4738V46.4738ZM152.425 49.1378V79.7938H154.425V49.1378H152.425ZM153.425 78.7938H148.881V80.7938H153.425V78.7938ZM149.881 79.7938V43.3778H147.881V79.7938H149.881ZM148.881 44.3778H153.233V42.3778H148.881V44.3778ZM152.233 43.3778V45.0418H154.233V43.3778H152.233ZM198.242 43.9538H199.242V43.2225L198.545 43.0008L198.242 43.9538ZM198.242 48.1138L197.98 49.079L199.242 49.4206V48.1138H198.242ZM186.594 48.5618L187.265 49.3033L187.267 49.3017L186.594 48.5618ZM186.594 74.7378L185.923 75.4793L185.932 75.487L185.94 75.4946L186.594 74.7378ZM198.37 74.9298H199.37V73.5232L198.041 73.9853L198.37 74.9298ZM198.37 79.2178L198.621 80.1858L199.37 79.9916V79.2178H198.37ZM181.706 52.2738C181.706 49.3996 182.537 47.4133 184.045 46.121C185.582 44.8034 187.994 44.0578 191.458 44.0578V42.0578C187.754 42.0578 184.79 42.8481 182.743 44.6025C180.667 46.3822 179.706 49.0039 179.706 52.2738H181.706ZM191.458 44.0578C194.033 44.0578 196.186 44.3492 197.939 44.9067L198.545 43.0008C196.543 42.3637 194.173 42.0578 191.458 42.0578V44.0578ZM197.242 43.9538V48.1138H199.242V43.9538H197.242ZM198.503 47.1485C196.36 46.5681 194.053 46.2818 191.586 46.2818V48.2818C193.898 48.2818 196.028 48.5501 197.98 49.079L198.503 47.1485ZM191.586 46.2818C189.142 46.2818 187.149 46.7053 185.921 47.8218L187.267 49.3017C187.916 48.7116 189.251 48.2818 191.586 48.2818V46.2818ZM185.923 47.8202C184.738 48.8924 184.25 50.4987 184.25 52.4018H186.25C186.25 50.8062 186.658 49.8524 187.265 49.3033L185.923 47.8202ZM184.25 52.4018V70.8338H186.25V52.4018H184.25ZM184.25 70.8338C184.25 72.7707 184.733 74.403 185.923 75.4793L187.265 73.9962C186.662 73.4512 186.25 72.4809 186.25 70.8338H184.25ZM185.94 75.4946C187.171 76.5573 189.203 76.9538 191.714 76.9538V74.9538C189.276 74.9538 187.894 74.5395 187.248 73.9809L185.94 75.4946ZM191.714 76.9538C194.28 76.9538 196.612 76.5999 198.698 75.8743L198.041 73.9853C196.202 74.6249 194.097 74.9538 191.714 74.9538V76.9538ZM197.37 74.9298V79.2178H199.37V74.9298H197.37ZM198.119 78.2498C195.894 78.8266 193.674 79.1138 191.458 79.1138V81.1138C193.849 81.1138 196.238 80.8036 198.621 80.1858L198.119 78.2498ZM191.458 79.1138C187.991 79.1138 185.577 78.3776 184.039 77.078C182.534 75.8057 181.706 73.8528 181.706 71.0258H179.706C179.706 74.2574 180.67 76.8485 182.748 78.6055C184.795 80.3353 187.757 81.1138 191.458 81.1138V79.1138ZM181.706 71.0258V52.2738H179.706V71.0258H181.706ZM210.543 45.4898L209.82 44.7997L209.819 44.8001L210.543 45.4898ZM226.159 45.4898L225.419 46.1616L225.427 46.1706L225.435 46.1794L226.159 45.4898ZM228.719 63.8578V64.8578H229.719V63.8578H228.719ZM212.463 63.8578V62.8578H211.463V63.8578H212.463ZM214.255 74.6098L213.638 75.3961L214.255 74.6098ZM227.631 74.8658H228.631V73.54L227.357 73.9042L227.631 74.8658ZM227.631 79.0898L227.936 80.0422L228.631 79.8197V79.0898H227.631ZM212.463 60.0818H211.463V61.0818H212.463V60.0818ZM224.367 60.0818V61.0818H225.367V60.0818H224.367ZM208.983 70.5138V52.7218H206.983V70.5138H208.983ZM208.983 52.7218C208.983 49.8885 209.776 47.7457 211.268 46.1794L209.819 44.8001C207.898 46.8178 206.983 49.4964 206.983 52.7218H208.983ZM211.267 46.1798C212.765 44.609 215.083 43.7378 218.415 43.7378V41.7378C214.75 41.7378 211.821 42.7012 209.82 44.7997L211.267 46.1798ZM218.415 43.7378C221.751 43.7378 224.012 44.6105 225.419 46.1616L226.9 44.8179C224.979 42.6996 222.077 41.7378 218.415 41.7378V43.7378ZM225.435 46.1794C226.927 47.7457 227.719 49.8885 227.719 52.7218H229.719C229.719 49.4964 228.805 46.8178 226.884 44.8001L225.435 46.1794ZM227.719 52.7218V63.8578H229.719V52.7218H227.719ZM228.719 62.8578H212.463V64.8578H228.719V62.8578ZM211.463 63.8578V70.3218H213.463V63.8578H211.463ZM211.463 70.3218C211.463 72.4599 212.14 74.2191 213.638 75.3961L214.873 73.8234C213.982 73.1231 213.463 72.0236 213.463 70.3218H211.463ZM213.638 75.3961C215.091 76.5383 217.217 77.0178 219.823 77.0178V75.0178C217.395 75.0178 215.809 74.5586 214.873 73.8234L213.638 75.3961ZM219.823 77.0178C222.443 77.0178 225.139 76.618 227.906 75.8273L227.357 73.9042C224.748 74.6495 222.238 75.0178 219.823 75.0178V77.0178ZM226.631 74.8658V79.0898H228.631V74.8658H226.631ZM227.327 78.1373C225.317 78.7804 222.886 79.1138 220.015 79.1138V81.1138C223.032 81.1138 225.679 80.7645 227.936 80.0422L227.327 78.1373ZM220.015 79.1138C216.111 79.1138 213.368 78.3306 211.615 76.9321C209.905 75.568 208.983 73.4921 208.983 70.5138H206.983C206.983 73.9354 208.067 76.6595 210.368 78.4954C212.626 80.2969 215.898 81.1138 220.015 81.1138V79.1138ZM212.463 61.0818H224.367V59.0818H212.463V61.0818ZM225.367 60.0818V52.7218H223.367V60.0818H225.367ZM225.367 52.7218C225.367 50.565 224.834 48.7631 223.59 47.5064C222.345 46.2478 220.556 45.7058 218.415 45.7058V47.7058C220.243 47.7058 221.43 48.1664 222.169 48.9131C222.909 49.6617 223.367 50.8679 223.367 52.7218H225.367ZM218.415 45.7058C216.275 45.7058 214.486 46.2478 213.241 47.5064C211.997 48.7631 211.463 50.565 211.463 52.7218H213.463C213.463 50.8679 213.922 49.6617 214.662 48.9131C215.401 48.1664 216.588 47.7058 218.415 47.7058V45.7058ZM211.463 52.7218V60.0818H213.463V52.7218H211.463Z" fill="#E3D3B3"/>
</g>
<path d="M127.2 28.6597C127.194 26.7664 128.391 25.8159 130.791 25.8082C131.564 25.8057 132.338 25.9099 133.112 26.1208L133.116 27.4408C132.329 27.2166 131.542 27.1058 130.755 27.1083C129.969 27.1108 129.416 27.2526 129.097 27.5336C128.777 27.8013 128.619 28.2018 128.62 28.7351L128.645 36.5551C128.647 37.0751 128.808 37.4746 129.129 37.7536C129.463 38.0192 130.037 38.1507 130.851 38.1481C131.677 38.1454 132.457 38.0363 133.189 37.8206L133.194 39.1206C132.528 39.336 131.741 39.4452 130.835 39.4481C128.435 39.4558 127.232 38.513 127.226 36.6196L127.2 28.6597ZM143.405 28.8678C143.401 27.6012 142.739 26.97 141.419 26.9742C140.112 26.9784 139.461 27.6138 139.465 28.8804L139.489 36.3204C139.493 37.6004 140.148 38.2383 141.455 38.2341C142.775 38.2299 143.433 37.5878 143.429 36.3078L143.405 28.8678ZM138.045 28.865C138.042 27.9183 138.326 27.1508 138.898 26.5623C139.469 25.9738 140.308 25.6777 141.415 25.6742C142.535 25.6706 143.382 25.9612 143.958 26.5461C144.533 27.1309 144.822 27.8966 144.825 28.8433L144.849 36.3433C144.852 37.2899 144.568 38.0575 143.996 38.646C143.425 39.2212 142.579 39.5105 141.459 39.5141C140.339 39.5177 139.492 39.2338 138.916 38.6623C138.354 38.0774 138.072 37.3116 138.069 36.365L138.045 28.865ZM159.809 25.8153L159.852 39.2553L158.492 39.2596L158.469 32.1797C158.465 30.8063 158.501 29.4796 158.577 28.1993L155.861 35.688L154.361 35.6928L151.557 28.2218C151.654 29.4615 151.705 30.7813 151.709 32.1813L151.732 39.2813L150.392 39.2855L150.349 25.8456L152.029 25.8402L155.096 34.2505L158.109 25.8208L159.809 25.8153ZM175.009 25.7667L175.052 39.2067L173.692 39.211L173.669 32.131C173.665 30.7577 173.7 29.4309 173.776 28.1507L171.06 35.6394L169.56 35.6442L166.756 28.1731C166.854 29.4128 166.904 30.7327 166.909 32.1327L166.932 39.2326L165.592 39.2369L165.549 25.797L167.229 25.7916L170.296 34.2018L173.309 25.7722L175.009 25.7667ZM185.988 25.7316L187.408 25.727L187.442 36.207C187.445 37.1537 187.161 37.9212 186.589 38.5097C186.031 39.0849 185.192 39.3742 184.072 39.3778C182.952 39.3814 182.104 39.0974 181.529 38.5259C180.967 37.9411 180.685 37.1753 180.682 36.2286L180.648 25.7487L182.068 25.7441L182.102 36.1841C182.106 37.4641 182.761 38.102 184.068 38.0978C185.374 38.0936 186.026 37.4515 186.022 36.1715L185.988 25.7316ZM199.033 36.8499L198.879 32.4304L198.858 25.6904L200.278 25.6859L200.321 39.1258L198.681 39.1311L195.898 32.1799C195.791 31.9003 195.26 30.5086 194.305 28.005L194.439 32.4046L194.461 39.1446L193.081 39.149L193.038 25.709L194.678 25.7038C196.815 31.0836 198.267 34.799 199.033 36.8499ZM206.011 25.6675L207.431 25.663L207.474 39.1029L206.054 39.1075L206.011 25.6675ZM218.603 25.6272L218.607 26.8872L216.007 26.8956L216.046 39.0755L214.606 39.0801L214.567 26.9002L211.967 26.9085L211.963 25.6485L218.603 25.6272ZM226.591 39.0418L225.172 39.0463L225.157 34.5063L221.829 25.6169L223.289 25.6123L224.66 29.2679C224.714 29.4144 225.125 30.6064 225.892 32.844C226.38 31.3091 227.219 28.893 228.408 25.5959L229.848 25.5913L226.577 34.5018L226.591 39.0418Z" fill="#E3D3B3"/>
<defs>
<filter id="filter0_d_6_518" x="38.4125" y="88.0176" width="190.174" height="51.328" filterUnits="userSpaceOnUse" color-interpolation-filters="sRGB">
<feFlood flood-opacity="0" result="BackgroundImageFix"/>
<feColorMatrix in="SourceAlpha" type="matrix" values="0 0 0 0 0 0 0 0 0 0 0 0 0 0 0 0 0 0 127 0" result="hardAlpha"/>
<feOffset dy="4"/>
<feGaussianBlur stdDeviation="2"/>
<feComposite in2="hardAlpha" operator="out"/>
<feColorMatrix type="matrix" values="0 0 0 0 0 0 0 0 0 0 0 0 0 0 0 0 0 0 1 0"/>
<feBlend mode="normal" in2="BackgroundImageFix" result="effect1_dropShadow_6_518"/>
<feBlend mode="normal" in="SourceGraphic" in2="effect1_dropShadow_6_518" result="shape"/>
</filter>
<filter id="filter1_d_6_518" x="38.1469" y="33.3938" width="194.572" height="54.72" filterUnits="userSpaceOnUse" color-interpolation-filters="sRGB">
<feFlood flood-opacity="0" result="BackgroundImageFix"/>
<feColorMatrix in="SourceAlpha" type="matrix" values="0 0 0 0 0 0 0 0 0 0 0 0 0 0 0 0 0 0 127 0" result="hardAlpha"/>
<feOffset dy="4"/>
<feGaussianBlur stdDeviation="2"/>
<feComposite in2="hardAlpha" operator="out"/>
<feColorMatrix type="matrix" values="0 0 0 0 0 0 0 0 0 0 0 0 0 0 0 0 0 0 1 0"/>
<feBlend mode="normal" in2="BackgroundImageFix" result="effect1_dropShadow_6_518"/>
<feBlend mode="normal" in="SourceGraphic" in2="effect1_dropShadow_6_518" result="shape"/>
</filter>
</defs>
</svg>
