<svg width="68" height="68" viewBox="0 0 68 68" fill="none" xmlns="http://www.w3.org/2000/svg">
<path d="M46.24 45.7651C43.8951 48.2225 40.8665 49.9194 37.5464 50.6362C34.2263 51.3531 30.7674 51.0568 27.6175 49.7859C24.4676 48.515 21.7717 46.3278 19.8787 43.5075C17.9858 40.6873 16.983 37.3637 17 33.9671C17 30.81 17.8792 27.7153 19.539 25.0297C21.1987 22.3441 23.5736 20.1738 26.3974 18.7619C29.2212 17.35 32.3824 16.7523 35.5267 17.0358C38.6711 17.3194 41.6743 18.4729 44.2 20.3671V16.9671H51V39.0671C51 40.4197 51.5373 41.7169 52.4938 42.6734C53.4502 43.6298 54.7474 44.1671 56.1 44.1671C57.4526 44.1671 58.7498 43.6298 59.7062 42.6734C60.6627 41.7169 61.2 40.4197 61.2 39.0671V33.9671C61.1958 28.0497 59.2619 22.2951 55.6918 17.576C52.1216 12.8569 47.1099 9.43084 41.4167 7.81732C35.7235 6.2038 29.6595 6.49089 24.1442 8.63505C18.6289 10.7792 13.9633 14.6635 10.8549 19.6987C7.74656 24.734 6.36503 30.6456 6.91985 36.5369C7.47467 42.4282 9.93558 47.978 13.9293 52.3444C17.9231 56.7108 23.2319 59.6557 29.0505 60.7325C34.8691 61.8092 40.8802 60.9592 46.172 58.3111L49.232 64.3971C42.6186 67.7111 35.1049 68.7778 27.8305 67.4355C20.5561 66.0933 13.9179 62.4152 8.92274 56.9593C3.9276 51.5033 0.848064 44.5672 0.151232 37.2029C-0.5456 29.8385 1.17829 22.4479 5.06143 16.1518C8.94457 9.8558 14.7751 4.99793 21.6686 2.31505C28.5622 -0.367836 36.1426 -0.729348 43.2602 1.28534C50.3778 3.30003 56.6441 7.581 61.1088 13.4789C65.5735 19.3768 67.9929 26.5699 68 33.9671H67.388H67.966V39.0671C67.9736 41.6178 67.1614 44.1035 65.6492 46.1576C64.137 48.2117 62.0048 49.7256 59.5669 50.476C57.1291 51.2264 54.5146 51.1736 52.1091 50.3254C49.7035 49.4773 47.6341 47.8786 46.206 45.7651H46.24ZM34 44.1671C36.7052 44.1671 39.2996 43.0925 41.2125 41.1796C43.1254 39.2667 44.2 36.6723 44.2 33.9671C44.2 31.2619 43.1254 28.6675 41.2125 26.7546C39.2996 24.8418 36.7052 23.7671 34 23.7671C31.2948 23.7671 28.7004 24.8418 26.7875 26.7546C24.8747 28.6675 23.8 31.2619 23.8 33.9671C23.8 36.6723 24.8747 39.2667 26.7875 41.1796C28.7004 43.0925 31.2948 44.1671 34 44.1671V44.1671Z" fill="#333538"/>
</svg>
