<svg width="86" height="86" viewBox="0 0 86 86" fill="none" xmlns="http://www.w3.org/2000/svg">
<path d="M23.7217 38.6642C28.8817 48.805 37.195 57.0825 47.3358 62.2783L55.2192 54.395C56.1867 53.4275 57.62 53.105 58.8742 53.535C62.8875 54.8608 67.2233 55.5775 71.6667 55.5775C73.6375 55.5775 75.25 57.19 75.25 59.1608V71.6667C75.25 73.6375 73.6375 75.25 71.6667 75.25C38.0192 75.25 10.75 47.9808 10.75 14.3333C10.75 12.3625 12.3625 10.75 14.3333 10.75H26.875C28.8458 10.75 30.4583 12.3625 30.4583 14.3333C30.4583 18.8125 31.175 23.1125 32.5008 27.1258C32.895 28.38 32.6083 29.7775 31.605 30.7808L23.7217 38.6642Z" fill="#333538"/>
</svg>
