<svg width="52" height="53" viewBox="0 0 52 53" fill="none" xmlns="http://www.w3.org/2000/svg">
<path d="M37.9522 14.4687C37.0568 13.5585 36.5326 12.3383 36.4843 11.0523C36.436 9.76618 36.8673 8.50898 37.6917 7.53208C37.7599 7.45084 37.7954 7.3464 37.791 7.2397C37.7866 7.13301 37.7427 7.03194 37.6681 6.95677L32.9185 2.12455C32.84 2.0448 32.7336 2 32.6226 2C32.5116 2 32.4051 2.0448 32.3266 2.12455L24.7562 9.81804C24.4769 10.1018 24.2665 10.4478 24.1417 10.8287C24.0173 11.2104 23.8072 11.5574 23.5279 11.8422C23.2486 12.1269 22.9078 12.3417 22.5327 12.4693C22.1577 12.5963 21.8169 12.8101 21.5371 13.0938L2.12255 32.8198C2.04408 32.8995 2 33.0077 2 33.1205C2 33.2333 2.04408 33.3415 2.12255 33.4213L6.87207 38.2481C6.94605 38.3239 7.04549 38.3685 7.15048 38.373C7.25547 38.3775 7.35824 38.3414 7.43818 38.2721C8.39925 37.4333 9.6366 36.9944 10.9025 37.0432C12.1685 37.092 13.3696 37.6249 14.2654 38.5352C15.1612 39.4456 15.6855 40.6662 15.7335 41.9527C15.7816 43.2393 15.3496 44.4967 14.5243 45.4734C14.4561 45.5547 14.4206 45.6591 14.425 45.7658C14.4294 45.8725 14.4733 45.9736 14.5479 46.0487L19.2974 50.8755C19.376 50.9552 19.4824 51 19.5934 51C19.7044 51 19.8109 50.9552 19.8894 50.8755L39.305 31.1452C39.5843 30.8609 39.7946 30.5146 39.9196 30.1335C40.0439 29.7518 40.2541 29.4048 40.5334 29.12C40.8127 28.8352 41.1534 28.6205 41.5286 28.4928C41.9033 28.366 42.2438 28.1522 42.5231 27.8683L50.0934 20.1748C50.1719 20.095 50.216 19.9868 50.216 19.874C50.216 19.7612 50.1719 19.653 50.0934 19.5733L45.3439 14.7465C45.2699 14.6707 45.1705 14.626 45.0655 14.6216C44.9605 14.6171 44.8578 14.6531 44.7778 14.7224C43.8179 15.5618 42.5816 16.0019 41.3161 15.9549C40.0506 15.9078 38.8492 15.377 37.9522 14.4687V14.4687Z" stroke="#BCCAEA" stroke-width="2.25" stroke-miterlimit="10"/>
<path d="M25.3398 14.331L23.5117 12.5539M30.2141 19.0691L28.995 17.8851M35.0884 23.8084L33.8704 22.6233M40.5728 29.1385L38.7446 27.3614" stroke="#BCCAEA" stroke-width="2.25" stroke-miterlimit="10" stroke-linecap="round"/>
</svg>
