<svg width="140" height="139" viewBox="0 0 140 139" fill="none" xmlns="http://www.w3.org/2000/svg">
<path d="M102.426 37.5312C99.9745 35.0834 98.5393 31.8022 98.4071 28.3436C98.2749 24.8851 99.4554 21.5042 101.713 18.8771C101.899 18.6586 101.996 18.3777 101.984 18.0908C101.972 17.8038 101.852 17.5321 101.648 17.3299L88.6451 4.33494C88.4302 4.12047 88.1387 4 87.8348 4C87.5309 4 87.2395 4.12047 87.0246 4.33494L66.2993 25.0245C65.5346 25.7877 64.9585 26.7182 64.6168 27.7423C64.2764 28.7688 63.7011 29.702 62.9365 30.4678C62.1719 31.2337 61.239 31.8111 60.2119 32.1544C59.1853 32.4959 58.2523 33.0708 57.4864 33.8339L4.33551 86.8815C4.12068 87.096 4 87.387 4 87.6903C4 87.9937 4.12068 88.2846 4.33551 88.4992L17.3382 101.479C17.5407 101.683 17.813 101.803 18.1004 101.815C18.3878 101.827 18.6691 101.731 18.888 101.544C21.5191 99.2884 24.9066 98.108 28.3723 98.2392C31.838 98.3704 35.1262 99.8035 37.5786 102.252C40.031 104.7 41.4666 107.982 41.5981 111.442C41.7295 114.902 40.547 118.284 38.2874 120.91C38.1007 121.129 38.0037 121.409 38.0157 121.696C38.0277 121.983 38.1479 122.255 38.3522 122.457L51.3549 135.438C51.5698 135.652 51.8613 135.772 52.1652 135.772C52.4691 135.772 52.7605 135.652 52.9754 135.438L106.129 82.3782C106.894 81.6137 107.47 80.6823 107.812 79.6575C108.152 78.631 108.727 77.6978 109.492 76.932C110.257 76.1661 111.19 75.5887 112.217 75.2454C113.243 74.9043 114.175 74.3293 114.939 73.5659L135.664 52.8763C135.879 52.6617 136 52.3708 136 52.0674C136 51.7641 135.879 51.4731 135.664 51.2586L122.662 38.2783C122.459 38.0743 122.187 37.9543 121.9 37.9423C121.612 37.9303 121.331 38.0272 121.112 38.2136C118.484 40.4707 115.099 41.6544 111.635 41.5278C108.17 41.4013 104.881 39.974 102.426 37.5312V37.5312Z" stroke="#333538" stroke-width="6.25" stroke-miterlimit="10"/>
<path d="M67.8969 37.161L62.8921 32.382M81.2411 49.903L77.9035 46.7189M94.5853 62.6479L91.2508 59.4609M109.6 76.9819L104.595 72.2029" stroke="#333538" stroke-width="6.25" stroke-miterlimit="10" stroke-linecap="round"/>
</svg>
